<svg width="1701" height="52" viewBox="0 0 1701 52" fill="none" xmlns="http://www.w3.org/2000/svg">
<path d="M850.075 26.782V25.3892" stroke="#C3955A" stroke-width="50" stroke-linecap="round"/>
<path d="M84.0141 24.9072H836.247" stroke="#C3955A" stroke-width="20" stroke-linecap="round"/>
<path d="M79.0802 36.6094V13.573" stroke="#C3955A" stroke-width="20" stroke-linecap="round"/>
<path d="M72.017 25.7433C71.8616 25.7433 71.7062 25.7433 71.3153 25.815C70.9245 25.8868 70.3029 26.0302 69.5942 26.1041C68.8854 26.178 68.1084 26.178 67.3079 26.178" stroke="#C3955A" stroke-width="20" stroke-linecap="round"/>
<path d="M37.0991 25.1087L25.9215 14.792L14.744 25.1087L25.9215 35.4255L37.0991 25.1087ZM37.0991 25.1087L70.6317 25.1087H59.4542" stroke="#C3955A" stroke-width="20"/>
<path d="M1616.47 23.7236H864.241" stroke="#C3955A" stroke-width="20" stroke-linecap="round"/>
<path d="M1621.41 35.4255V12.3891" stroke="#C3955A" stroke-width="20" stroke-linecap="round"/>
<path d="M1628.47 24.5595C1628.63 24.5595 1628.78 24.5595 1629.17 24.6312C1629.56 24.7029 1630.19 24.8464 1630.89 24.9202C1631.6 24.9941 1632.38 24.9941 1633.18 24.9941" stroke="#C3955A" stroke-width="20" stroke-linecap="round"/>
<path d="M1663.39 23.9251L1674.57 13.6084L1685.74 23.9251L1674.57 34.2419L1663.39 23.9251ZM1663.39 23.9251L1629.86 23.9251H1641.03" stroke="#C3955A" stroke-width="20"/>
</svg>
