<svg width="311" height="311" viewBox="0 0 311 311" fill="none" xmlns="http://www.w3.org/2000/svg">
<path d="M79.153 137.302C79.1201 137.318 79.0871 137.346 79.0597 137.367C78.7745 137.609 78.4947 137.845 78.2094 138.086C77.1288 138.997 76.0645 139.814 74.8467 140.56C73.6508 141.29 72.3946 141.937 71.089 142.453C68.4888 143.473 65.6966 143.912 62.9153 143.627C61.2312 143.451 59.6239 142.979 57.9837 142.601C57.7094 142.535 57.4187 142.475 57.1499 142.568C57.1115 142.579 57.0731 142.595 57.0457 142.628C56.9853 142.694 57.0018 142.793 57.0182 142.875C57.2267 143.72 58.0495 144.334 58.5432 145.026C59.6349 146.551 60.562 148.235 60.9734 150.078C61.1764 150.994 61.2367 151.916 61.1873 152.854C61.1325 153.808 61.1819 154.746 61.0338 155.717C60.8911 156.688 60.743 157.67 60.37 158.581C59.7446 160.128 58.5323 161.34 57.8575 162.859C57.5668 163.518 57.671 163.913 58.45 163.754C59.2783 163.584 60.1122 163.211 60.8637 162.827C62.3997 162.031 63.7601 160.901 64.8079 159.524C65.0328 159.228 65.2468 158.915 65.4497 158.603C65.8063 158.059 66.1409 157.5 66.4536 156.935C66.7224 156.447 66.9144 155.849 67.3642 155.492C67.7373 155.201 68.2529 155.152 68.7137 155.256C69.1745 155.361 69.5914 155.591 70.0028 155.821C70.4911 156.096 70.9848 156.37 71.473 156.644C72.2575 157.083 73.0419 157.516 73.766 158.049C74.15 158.328 75.5324 159.793 75.6037 158.586C75.6751 157.385 74.9893 156.013 74.545 154.938C74.3749 154.521 74.1994 154.104 73.9909 153.704C73.3765 152.541 72.3288 151.449 71.2755 150.681C70.6886 150.253 70.0412 149.76 69.3884 149.458C68.6918 149.134 68.0719 148.876 67.5233 148.311C69.383 148.443 71.2755 147.999 72.9157 147.116C74.8357 146.084 76.4924 144.433 77.5841 142.551C77.8254 142.135 77.9845 141.674 78.1436 141.218C78.5989 139.907 79.1146 138.706 79.3559 137.329C79.3011 137.247 79.2243 137.263 79.153 137.302Z" fill="#C3955A"/>
<path d="M121.93 140.22C120.268 139.408 118.842 138.289 117.471 137.065C114.256 134.207 112.649 130.362 110.97 126.571C109.483 123.214 107.393 120.493 104.255 118.409C104.042 118.266 103.828 118.129 103.608 118.003C100.657 116.225 97.2832 115.474 93.8711 115.348C93.0208 115.315 92.165 115.32 91.3148 115.342C90.448 115.375 89.6252 115.485 88.7584 115.49C88.6432 116.911 88.742 118.337 88.8407 119.758C88.8901 120.493 88.9394 121.234 88.9943 121.969C89.0821 123.269 89.1698 124.569 89.3234 125.864C89.5319 127.619 89.8556 129.363 90.2944 131.075C90.662 132.501 91.0679 134.01 91.984 135.195C93.0153 136.528 93.8272 137.916 95.067 139.09C102.741 146.402 113.993 145.305 122.018 141.992C123.241 141.498 122.94 140.713 121.93 140.22Z" fill="#C3955A"/>
<path d="M88.0343 121.975C87.8259 120.499 87.6393 119.045 87.5735 117.553C87.5406 116.796 87.5241 116.05 87.387 115.304C87.2828 114.75 87.1566 114.196 87.0908 113.636C82.2195 98.0297 73.2723 84.886 62.301 72.9711C61.9005 72.5377 61.33 72.1921 61.0667 71.6271C60.5565 71.3199 60.1561 70.7603 59.7227 70.3983C58.9053 69.7126 58.1373 68.972 57.2596 68.3686C56.5026 67.8419 55.7017 67.3592 55.0269 66.7229C54.5881 66.3059 54.1657 65.7958 53.8146 65.2582C53.7597 65.2308 53.6994 65.2088 53.6555 65.1704C53.6775 65.2637 53.6884 65.3569 53.7104 65.4447C53.9627 66.6022 54.1876 67.7542 54.3467 68.9281C54.5991 70.8591 54.6375 73.0972 55.8608 74.721C55.8662 74.7265 55.8662 74.7265 55.8662 74.732C56.0747 74.8033 56.2667 74.9898 56.4916 75.2147C57.2322 75.9443 58.1373 76.5038 58.9327 77.1676C59.7501 77.8478 60.5181 78.5829 61.2367 79.3729C62.3613 80.6071 63.3213 81.9456 64.4239 83.2073C67.249 86.4274 69.8438 89.8505 72.1368 93.4656C73.009 94.848 73.8428 96.2523 74.6273 97.6896C75.4117 99.1323 76.0865 100.624 76.9752 102.007C77.3976 102.665 78.8184 106.653 78.9994 107.152C79.3944 108.228 79.7674 109.314 80.1185 110.411C80.8151 112.6 81.4131 114.816 81.9068 117.06C82.0659 117.784 82.214 118.502 82.3511 119.232C84.6826 131.476 84.1011 143.522 79.3944 155.081C75.3459 165.026 68.7137 172.525 57.2816 173.853C50.9127 174.588 44.6919 174.111 39.2336 169.892C32.7002 164.845 28.169 156.913 30.6101 147.949C32.1406 142.338 34.324 139.968 39.4366 139.567C44.2695 139.189 48.6197 140.884 52.2402 144.071C52.9534 144.696 53.5568 145.442 54.0231 146.271C54.9008 147.834 55.6304 150.253 54.8294 151.992C54.0724 153.627 53.2002 155.289 51.4667 156.068C50.0514 156.705 48.2027 156.929 46.6667 157.089C45.4215 157.22 43.5838 157.028 42.931 155.756C44.7687 155.553 46.579 155.042 48.2521 154.258C48.8007 154 49.3438 153.709 49.7497 153.265C50.0734 152.914 50.3038 152.486 50.4793 152.042C50.8907 151.016 51.3241 149.189 50.8084 148.125C49.8539 146.167 47.4018 144.685 45.4215 144.033C43.2876 143.325 40.7916 143.281 38.8332 144.515C38.1036 144.976 37.555 145.602 37.0887 146.32C33.5834 151.702 35.7831 160.155 41.5815 163.578C43.9459 164.977 46.7106 165.608 49.448 165.394C50.8523 165.284 52.2402 164.961 53.5568 164.456C54.7252 164.012 55.762 163.304 56.7824 162.585C57.309 162.218 57.682 161.675 58.0386 161.137C58.461 160.495 58.8669 159.837 59.2783 159.184C59.5362 158.773 59.794 158.361 59.9695 157.906C60.2987 157.078 60.2932 156.337 60.2548 155.487C60.2054 154.39 60.2493 153.303 60.0957 152.206C59.4978 148.043 57.1938 144.647 54.4784 141.564C53.5403 140.5 52.6955 139.534 51.5326 138.722C50.4683 137.982 49.3383 137.335 48.1643 136.792C45.7781 135.689 43.2053 135.009 40.5886 134.751C39.0965 134.603 37.5989 134.592 36.1068 134.691C34.7683 134.778 33.523 135.124 32.1955 135.157C32.1626 135.157 32.1242 135.157 32.0913 135.14C32.02 135.091 32.0529 134.981 32.1022 134.904C32.6234 134.054 33.3804 133.379 34.0222 132.617C34.4062 132.162 34.7463 131.673 35.0865 131.191C35.6954 130.318 36.3153 129.441 36.6773 128.437C36.9187 127.762 37.0394 127.049 37.1326 126.341C37.2533 125.436 37.555 124.109 37.0174 123.291C36.5731 122.606 35.7447 122.501 34.9932 122.578C33.3036 122.743 31.6524 123.269 30.2207 124.191C28.564 125.261 27.412 126.857 26.1503 128.333C26.0131 128.492 25.7608 128.656 25.6237 128.503C25.5798 128.453 25.5688 128.393 25.5523 128.333C25.3933 127.592 25.311 126.835 25.1958 126.083C24.9928 124.745 24.6856 123.417 24.2906 122.117C23.9176 120.905 23.5336 119.55 22.7876 118.519C21.5094 116.752 20.0228 115.194 18.2564 113.905C15.6836 112.024 12.7158 110.751 9.66579 109.884C9.20499 109.753 8.62351 109.462 8.29986 109.95C7.94329 110.482 8.52477 110.844 8.84842 111.168C10.6422 112.967 12.2441 114.92 13.6703 117.021C19.5181 125.683 22.3706 135.365 23.38 145.662C24.2138 154.181 26.3752 162.267 31.241 169.426C35.2565 175.334 40.7532 179.404 47.8846 180.266C59.4319 181.659 69.2349 177.451 77.2385 169.3C84.337 162.075 87.0798 153.216 88.9998 143.402C89.4057 141.334 89.4661 137.658 89.3948 136.616C89.1479 131.706 88.731 126.846 88.0343 121.975Z" fill="#C3955A"/>
<path d="M108.523 55.6689C107.909 55.5098 106.4 55.1258 105.912 55.6525C102.286 59.5802 97.2667 62.3834 92.4667 64.6106C83.3221 68.851 73.8154 70.0688 63.9082 68.0611C60.7375 67.4193 57.8356 65.8449 54.6045 65.4225C54.8569 65.7516 55.1366 66.0698 55.4219 66.3386C56.0857 66.9694 56.8866 67.4357 57.6326 67.9569C58.2141 68.3628 58.7023 68.8839 59.2564 69.3008C59.8653 69.7562 60.8363 69.9098 61.3739 70.4419C62.098 70.8314 62.8276 71.2867 63.5956 71.5884C64.2922 71.8627 64.9944 71.9285 65.7295 72.0382C66.8102 72.1973 67.836 72.5868 68.8783 72.8995C69.9919 73.2341 71.0232 73.278 72.1587 73.3328C73.382 73.3932 74.6108 73.3767 75.8396 73.2944C81.1827 72.9543 86.3831 71.4238 91.2434 69.2131C96.9376 66.6238 102.396 63.4476 107.185 59.4047C107.969 58.7464 108.688 58.0113 109.456 57.3475C109.769 57.0733 110.092 56.607 109.823 56.2669C109.577 55.9597 108.885 55.7622 108.523 55.6689Z" fill="#C3955A"/>
<path d="M113.334 47.8683C114.004 48.0603 114.684 48.2304 115.364 48.384C116.181 48.5705 117.004 48.7241 117.833 48.8557C118.162 48.9051 121.903 45.0048 121.689 44.917C120.987 44.6208 120.263 44.3739 119.522 44.1874C118.167 43.8418 116.779 43.7595 115.402 43.9954C114.333 45.3504 113.444 46.5079 112.522 47.627C112.791 47.7147 113.065 47.7915 113.334 47.8683Z" fill="#C3955A"/>
<path d="M123.856 40.9068C124.24 40.3254 124.613 39.7878 125.107 39.2721C126.379 37.9336 127.553 36.5018 128.952 35.284C130.378 34.0442 131.931 32.9471 133.33 31.6744C134.487 30.6212 135.557 29.4198 136.939 28.6463C138.294 27.8893 139.539 26.9567 140.872 26.1229C143.643 24.3894 146.589 22.9193 149.682 21.8605C152.946 20.7469 156.364 20.1161 159.809 20.0119C163.095 19.9131 163.013 19.968 163.073 16.693C163.1 15.1899 162.651 14.8114 161.164 14.7566C156.638 14.5865 152.568 16.1883 148.58 17.9163C137.274 22.826 128.228 30.8406 119.742 39.5299C119.44 39.8371 119.166 40.062 118.891 40.2266C119.336 40.3802 119.791 40.5009 120.257 40.649C121.014 40.8904 121.716 41.2634 122.452 41.5487C123.06 41.7845 123.477 41.4773 123.806 40.9781C123.828 40.9452 123.839 40.9288 123.856 40.9068Z" fill="#C3955A"/>
<path d="M182.394 27.3574C179.892 25.1686 176.897 23.9672 173.682 23.3528C166.194 21.9211 158.953 23.457 151.899 25.7117C146.473 27.4451 141.454 30.2209 136.44 32.9363C132.863 34.8728 129.462 36.9738 126.171 39.3491C125.825 39.6014 123.998 41.3843 124.212 41.856C124.218 41.8725 124.218 41.889 124.223 41.9109C124.284 41.9987 124.267 42.0974 124.201 42.1742C124.591 42.2675 124.986 42.3278 125.381 42.4046C125.776 42.4814 126.154 42.635 126.544 42.7118C127.038 42.816 127.114 42.6844 127.548 42.3497C128.294 41.7738 129.04 41.1978 129.791 40.6272C131.3 39.4917 132.83 38.3946 134.421 37.3797C140.406 33.5727 147.159 31.3071 154 29.59C158.372 28.4929 162.848 27.8456 167.352 27.6207C172.196 27.3793 176.859 28.3832 181.56 29.2499C182.18 29.3651 183.096 29.8643 183.447 28.9976C183.771 28.2351 182.882 27.7853 182.394 27.3574Z" fill="#C3955A"/>
<path d="M122.232 51.2912C121.656 51.0224 112.868 47.5993 102.912 47.144C93.2183 46.7052 82.4115 49.2121 76.9861 50.792C75.1923 51.3131 73.3766 51.752 71.5663 52.2293C70.7818 52.4377 70.0248 52.723 69.2788 53.0411C68.9112 53.2002 68.5272 53.4416 68.1432 53.5458C67.858 53.6281 67.5617 53.5897 67.4959 53.9792C68.8618 54.3577 70.3814 53.9024 71.7363 53.6885C72.5921 53.5513 73.4534 53.4745 74.3146 53.3922C74.8467 53.3429 75.3734 53.2935 75.9055 53.2441C76.1468 53.2222 76.3882 53.2002 76.6351 53.2112C77.7541 53.277 78.9007 53.0466 80.0142 52.9314C84.4302 52.4761 88.8846 52.2238 93.317 52.5474C95.8075 52.7285 98.682 53.2112 101.145 53.5403C103.592 53.875 105.912 54.4455 108.282 55.186C110.103 55.7511 111.804 56.6617 113.428 57.6656C114.87 58.5652 115.951 59.805 117.229 60.8692C121.431 64.3581 123.198 70.0852 123.351 75.3624C123.505 80.7109 122.078 85.7742 120.01 90.6729C119.659 91.5068 119.061 92.5052 119.648 93.2677C120.285 94.096 121.371 93.5365 122.216 93.3061C125.688 92.3625 129.117 91.2105 132.216 89.4058C140.291 84.699 143.067 79.356 140.669 71.9064C137.658 62.5314 131.316 55.5371 122.232 51.2912Z" fill="#C3955A"/>
<path d="M61.3025 47.1058C61.3135 46.5134 61.1928 45.8112 61.1654 45.4875C61.0831 44.4233 60.9295 43.3646 60.7814 42.3058C60.7046 41.7628 60.6278 41.2142 60.551 40.6711C60.3425 39.1954 60.1725 37.6869 59.8488 36.2332C59.5471 34.8837 59.0205 33.5507 58.5323 32.2561C57.5119 29.5516 56.2886 26.9295 54.9556 24.3676C54.7801 24.033 54.6045 23.6984 54.429 23.3692C53.7652 22.1295 52.9917 20.3686 51.2912 20.6867C50.2873 20.8733 50.0349 21.751 49.9691 22.6506C49.9362 23.1334 49.8539 23.5996 49.8045 24.0714C49.7387 24.7023 49.9362 25.3989 49.9746 26.0353C49.9856 26.1999 49.9856 26.3754 49.8923 26.5071C49.2999 25.6732 48.6361 24.8778 48.0546 24.055C47.4073 23.1443 46.9465 22.1021 46.2827 21.1914C45.6793 20.3631 45.032 19.5677 44.3463 18.8052C42.4921 16.7425 40.3417 14.9542 37.9609 13.5334C36.7596 12.8148 35.5034 12.1949 34.2087 11.6683C32.9141 11.1416 31.4714 10.8838 30.1219 10.4779C29.897 10.4121 29.6721 10.3407 29.4362 10.3517C29.2003 10.3572 28.9589 10.4505 28.8273 10.6425C28.7176 10.807 28.7011 11.0155 28.6901 11.213C28.5695 13.6651 28.5749 16.2269 29.1619 18.6241C29.5679 20.2863 30.3084 21.5535 31.3617 22.903C32.0584 23.7916 32.7715 24.6748 33.6053 25.4373C35.0042 26.721 36.6992 27.6426 38.1255 28.8933C38.6576 29.3651 39.283 29.9082 39.6505 30.5226C38.9977 30.9669 38.2517 30.7201 37.5056 30.6762C36.7815 30.6323 36.0629 30.5829 35.3388 30.561C34.9274 30.55 34.3898 30.5829 34.3514 31.0986C34.3075 31.6636 35.5527 32.0257 35.9477 32.2341C36.3152 32.4261 36.6828 32.6181 37.0448 32.8046C37.2643 32.9198 37.7196 33.2819 37.9609 33.2819C38.3065 33.4629 38.6576 33.6439 39.0032 33.825C39.3982 34.0279 39.7932 34.2364 40.1827 34.4503C41.8832 35.3994 43.4631 36.5733 44.8729 37.9228C41.4882 38.5207 38.131 37.824 34.7299 38.0819C34.3623 38.1093 33.7699 37.9392 33.4517 38.1861C33.0677 38.4823 33.545 38.8663 33.8028 39.1296C34.7628 40.0951 35.7667 41.0167 36.8199 41.8834C37.7799 42.6734 39.0581 42.9422 40.2101 43.4139C41.1756 43.8089 42.0697 44.3355 43.0462 44.7031C44.0939 45.0926 45.1691 45.3888 46.2388 45.6905C47.5883 46.0635 48.8884 46.4914 50.2708 46.5847C50.589 46.6066 50.8962 46.6834 51.2034 46.7602C52.1908 46.9961 53.2989 47.3582 54.3193 47.3636C55.3835 47.3691 56.4587 47.3582 57.5284 47.3746C58.2415 47.3856 58.9492 47.3966 59.6623 47.4075C60.0354 47.413 60.4029 47.4185 60.7759 47.424C61.1325 47.424 61.2971 47.5008 61.3025 47.1058Z" fill="#C3955A"/>
<path d="M90.4151 13.6539C90.075 12.5787 89.3344 12.2605 88.2811 12.48C81.073 13.9776 74.4188 16.7423 68.8618 21.6465C65.148 24.9215 61.9992 29.6502 61.2422 34.6367C61.1764 35.0645 61.1709 35.4979 61.1654 35.9313C61.1489 36.7761 61.138 37.6209 61.1215 38.4657C61.1105 39.2556 60.9679 40.1662 61.1325 40.9397C61.4452 42.4208 61.5275 43.9294 61.7414 45.438C61.8127 45.9481 61.6756 46.8972 62.1034 47.2044C62.5039 47.4896 63.1457 47.4018 63.601 47.325C64.6543 47.1495 65.6966 46.941 66.7443 46.7271C67.9347 46.4912 69.1251 46.2498 70.31 46.014C72.2465 45.6245 74.1006 45.0759 75.8725 44.1982C76.7228 43.7758 77.5676 43.3589 78.4179 42.9365C80.3598 41.9765 82.3182 41 84.0078 39.6451C85.3408 38.5754 86.3666 37.171 87.6777 36.1013C88.901 35.1029 89.4715 33.6273 90.2176 32.2339C90.4645 31.7786 90.7113 31.3288 90.9417 30.868C91.194 30.3688 91.0953 30.1329 91.216 29.6392C91.5232 28.3501 91.9017 27.0774 92.1321 25.7718C92.3735 24.4058 92.3131 23.1441 92.187 21.7782C91.9236 19.0079 91.2489 16.298 90.4151 13.6539Z" fill="#C3955A"/>
<path d="M148.777 55.4497C146.578 53.6449 144.038 52.1144 141.651 50.6113C138.854 48.8449 135.963 47.2267 132.962 45.8223C132.66 45.8223 131.015 44.9501 130.598 44.7746C129.769 44.418 126.171 43.3428 125.216 43.0027C118.897 40.7755 112.287 39.4151 105.583 39.2066C99.1154 39.0091 92.8014 39.8539 86.5367 41.3844C86.1582 41.4777 85.7742 41.4886 85.3957 41.5874C83.761 42.0043 82.1482 42.5199 80.5409 43.0356C79.932 43.2276 79.3176 43.4251 78.7361 43.6939C78.1491 43.9627 77.6664 44.418 77.0739 44.6484C76.476 44.8788 75.8396 45.0214 75.2252 45.2134C74.5889 45.4109 73.9526 45.6139 73.3162 45.8114C72.1587 46.1679 71.1 46.6836 70.0413 47.2541C69.9316 47.3144 69.8109 47.3638 69.7066 47.4187C67.9622 48.4939 66.2232 49.5745 64.4733 50.6443C63.0964 51.4836 63.1128 52.6465 63.7218 53.9247C63.9522 54.4074 64.2868 54.6104 64.7476 54.6543C64.9835 54.4074 65.3565 54.1825 65.4827 54.0893C66.5085 53.3432 67.5782 52.5862 68.7137 52.0102C70.0138 51.3519 71.3085 50.6772 72.6086 50.0024C73.5521 49.5142 74.4956 49.026 75.4666 48.5926C78.3521 47.309 81.435 46.5519 84.5125 45.8827C85.8291 45.5974 87.2279 45.5151 88.4951 45.0982C90.0256 44.5935 91.589 44.1986 93.1689 43.8804C94.6884 43.5732 96.219 43.3318 97.7495 43.1124C98.7369 42.9753 99.7298 42.8436 100.723 42.7613C101.688 42.679 102.659 42.6406 103.63 42.6022C104.629 42.5638 105.621 42.52 106.62 42.4816C108.233 42.4157 109.856 42.3499 111.464 42.5529C112.835 42.7229 118.557 43.5677 120.076 43.7378C121.947 43.9462 123.609 44.3851 125.408 45.0434C126.725 45.5261 128.03 45.8278 129.281 46.4642C130.444 47.0566 131.64 47.4571 132.841 47.9672C135.42 49.0699 137.91 50.359 140.351 51.7414C143.912 53.7546 147.159 57.1009 151.235 58.0554C150.73 57.3587 150.308 56.7663 149.644 56.1738C149.348 55.9325 149.063 55.6911 148.777 55.4497Z" fill="#C3955A"/>
<path d="M191.823 44.7305C191.439 42.1083 190.304 39.8317 188.11 38.0928C185.054 35.6681 181.56 34.5819 177.769 34.3461C171.247 33.9346 166.82 36.2441 164.625 41.077C162.629 45.471 165.679 49.909 170.479 49.5743C172.163 49.4591 173.726 49.0367 174.352 47.2045C174.971 45.3887 174.143 44.0502 172.75 42.997C171.762 42.2454 171.181 41.3458 171.532 40.106C171.883 38.8498 172.788 38.0928 174.05 37.802C179.848 36.469 185.06 38.5536 188.378 43.5291C190.639 46.9138 188.697 53.6721 184.901 55.1972C181.434 56.5905 177.758 57.5834 174.072 57.7974C167.983 58.1539 161.817 58.6312 155.81 57.0349C153.934 56.5357 151.932 56.3601 150.077 55.7841C150.802 56.585 151.465 57.4353 152.096 58.3185C160.862 60.5073 169.595 62.0981 178.636 61.3302C188.137 60.5183 193.211 54.1439 191.823 44.7305Z" fill="#C3955A"/>
<path d="M58.62 136.407C56.6397 134.723 54.6539 133.055 52.9862 131.037C49.5138 126.835 46.8971 121.991 45.2185 116.812C44.5493 114.761 44.0281 112.66 43.6277 110.537C43.4302 109.5 43.3369 108.436 43.0626 107.415C42.8267 106.538 42.6348 105.643 42.5031 104.744C42.4208 104.179 42.2946 103.263 42.4921 102.714C43.677 103.306 44.7138 104.025 46.0249 104.36C46.771 104.552 48.1808 104.914 48.68 104.113C49.2121 103.263 48.3069 102.566 47.8681 101.902C47.7145 101.902 47.1659 100.805 47.0727 100.646C46.8039 100.202 46.546 99.7518 46.2992 99.2964C44.9442 96.8059 43.7648 94.0192 43.0133 91.2928C42.5415 89.5813 41.4389 81.9891 41.5925 81.5338C43.5289 84.0353 45.9371 86.1747 48.4605 88.0672C48.9981 88.4732 49.7223 88.8736 50.4189 88.4293C50.7975 88.1879 50.5451 87.2663 50.5122 86.8714C50.4573 86.2515 50.386 85.6371 50.2928 85.0172C50.013 83.1521 49.5467 81.3418 49.0859 79.526C48.9433 78.961 48.8007 78.3905 48.6745 77.82C48.5264 77.1343 48.5044 76.4266 48.3563 75.7409C48.2192 75.0881 47.9504 74.4298 47.7529 73.788C47.4512 72.817 47.144 71.8132 47.2866 70.8038C47.2921 70.7544 47.3031 70.7051 47.3305 70.6667C47.3963 70.5844 47.5225 70.5953 47.6212 70.6392C48.3508 70.9519 48.9707 71.9009 49.4919 72.4769C50.3147 73.3766 51.3131 74.1117 52.4048 74.6438C52.9588 74.9126 53.5293 75.1046 54.1108 75.2856C54.6484 75.4557 54.7636 75.2691 54.7142 74.7645C54.5442 72.9432 54.0943 71.1274 53.8639 69.3007C53.7104 68.0884 53.4964 66.898 53.2276 65.7076C52.9808 64.5995 52.6132 63.5243 52.3609 62.4052C52.0866 61.1874 51.8617 59.9476 51.1814 58.8999C50.8468 58.3842 50.6713 57.7204 50.4354 57.1499C50.1831 56.541 49.9197 55.9376 49.6455 55.3396C48.5593 52.9369 47.3195 50.6 45.8548 48.4003C45.4544 47.7749 45.0704 47.0617 44.5109 46.5845C43.7538 45.9427 42.9858 45.3008 42.1026 44.84C41.2249 44.3847 39.6725 43.7594 38.7399 44.2531C37.6537 44.8291 36.6115 45.5148 35.5582 46.1566C32.0748 48.2741 28.564 50.4629 25.5304 53.2057C23.1167 55.389 21.1583 57.9563 19.3864 60.6717C16.9288 64.4349 15.4367 68.8344 14.6139 73.2285C14.378 74.4792 14.197 75.7409 14.0872 77.0081C13.994 78.0559 13.7746 79.1969 13.8843 80.2117C13.9172 80.5299 13.8568 80.8481 13.8239 81.1663C13.7142 82.1756 13.9885 83.0369 14.1311 84.0133C14.2299 84.6881 14.6194 85.1324 15.2392 84.4247C16.5009 82.993 17.5213 81.3528 18.5855 79.7784C19.7375 78.0778 20.9334 76.4047 22.1786 74.7699C22.7875 73.969 23.4239 73.1626 24.2632 72.6196C24.4003 72.5318 24.6033 72.455 24.713 72.5757C24.7843 72.647 24.7788 72.7622 24.7679 72.8609C24.6691 73.585 24.2467 74.1994 23.9011 74.8248C23.583 75.4008 23.4239 76.0207 23.1277 76.5967C22.7491 77.3372 22.4529 78.1107 22.1841 78.9007C21.6355 80.5244 21.268 82.1976 21.0376 83.8926C20.5768 87.2663 20.6591 90.6839 20.8511 94.0686C20.873 94.48 20.7414 95.4126 21.1528 95.6814C21.641 96.005 22.1512 95.1932 22.42 94.8969C23.3855 93.8217 24.2906 92.6917 25.1244 91.5123C26.2984 89.8666 26.8908 88.0398 27.8399 86.2625C28.0703 85.8291 28.4159 85.3518 28.9096 85.3683C28.1251 88.8133 27.7795 92.2857 27.412 95.7911C27.1267 98.5284 26.9402 101.282 27.401 103.992C27.5327 104.755 27.6808 105.731 28.5585 105.929C29.6062 106.17 30.2097 105.259 30.857 104.568C31.6085 103.767 32.2723 102.89 32.8428 101.952C33.1994 103.147 33.1665 104.607 33.2597 105.846C33.8302 113.236 36.2988 120.351 41.0768 126.083C46.2334 132.276 52.7229 136.254 60.7375 138.859C60.1944 137.323 59.2893 136.978 58.62 136.407Z" fill="#C3955A"/>
<path d="M54.8185 93.0263C51.4887 100.224 51.5984 107.821 55.208 115.057C59.3003 123.269 66.3933 128.42 74.0678 132.88C75.3404 133.62 76.2675 133.242 76.1578 131.547C75.9384 128.195 76.6351 124.975 77.5292 121.777C78.5112 118.239 78.9829 114.645 78.78 110.943C78.6922 109.374 78.2698 107.854 77.6773 106.406C77.222 105.303 76.7393 104.217 76.2236 103.147C75.7299 102.116 75.2033 101.096 74.6547 100.092C74.161 99.1922 73.7167 98.2432 73.0968 97.4313C71.8186 95.7637 70.3978 94.1948 68.7357 92.9002C67.5233 91.9566 66.3165 90.9966 65.0109 90.1902C63.7492 89.4168 62.3119 88.9395 60.9679 88.2922C60.8089 88.2154 60.6443 88.1331 60.5401 87.9905C60.4413 87.8588 60.4139 87.6888 60.3865 87.5242C60.178 86.2021 60.0793 84.8581 60.0957 83.5196C60.1122 82.3128 60.0738 80.8755 60.551 79.7565C60.5839 79.6797 60.6114 79.6029 60.6059 79.5206C60.5894 79.3834 60.4578 79.2902 60.3426 79.2079C59.602 78.6868 59.0809 77.8639 58.2635 77.4689C58.1867 77.4305 58.1044 77.3976 58.0221 77.3976C57.2048 77.3757 56.9579 79.729 56.8756 80.2776C56.7001 81.4351 56.6672 82.609 56.6617 83.783C56.6343 86.9756 56.2667 89.894 54.8185 93.0263Z" fill="#C3955A"/>
<path d="M65.0273 221.666C65.0328 221.622 65.0328 221.578 65.0383 221.534C65.0877 220.892 65.0438 220.234 64.967 219.598C64.9176 219.203 64.8957 218.78 64.7311 218.407C64.5172 217.941 64.1606 218.248 63.7656 218.347C63.036 218.528 62.3339 218.841 61.5933 218.983C61.1544 219.071 60.8034 219.258 60.3919 219.406C60.1561 219.494 59.7337 219.675 59.5362 219.669C58.5871 220.064 57.704 220.58 56.7824 221.046C56.4422 221.216 52.7449 223.147 52.7394 223.147C52.7504 223.163 52.7559 223.174 52.7668 223.191C52.4871 223.383 52.2018 223.558 51.9385 223.761C49.8759 225.325 48.0107 227.179 46.6064 229.368C45.9042 230.465 45.3228 231.633 44.8839 232.862C44.4066 234.179 43.9184 235.632 43.9349 237.042C43.9349 237.136 43.9404 237.24 43.9897 237.322C44.1049 237.514 44.3847 237.503 44.6041 237.47C45.5422 237.317 46.4802 237.163 47.4183 237.015C47.4951 237.004 47.5829 236.993 47.6377 237.048C47.72 237.136 47.6432 237.273 47.5664 237.36C46.4912 238.611 45.2076 239.659 44.2256 240.959C43.123 242.418 41.7187 243.669 40.5831 245.112C38.5479 247.69 36.211 250.098 35.1742 253.346C34.8561 254.35 34.5489 255.65 35.081 256.637C35.6844 257.767 36.9022 257.597 37.9555 257.301C38.515 257.142 38.9539 256.906 38.9648 257.668C38.9758 258.354 38.7454 259.067 38.5041 259.698C37.3905 262.595 36.403 265.557 35.9093 268.634C35.7557 269.589 35.6296 270.637 36.3043 271.427C37.0065 272.255 38.3998 272.211 39.2666 271.673C39.6176 271.454 39.9084 271.158 40.1991 270.862C40.6928 270.357 41.1866 269.852 41.6803 269.347C41.7132 269.315 41.7516 269.276 41.8009 269.287C41.8503 269.293 41.8777 269.353 41.8942 269.402C42.0752 269.934 42.1301 270.505 42.1795 271.07C42.3385 272.798 42.2947 274.477 42.355 276.21C42.3879 277.137 42.4208 278.059 42.4867 278.986C42.547 279.896 42.7719 280.845 42.7719 281.756C43.6112 287.543 44.5328 293.303 47.8133 298.339C48.285 299.063 49.0201 300.632 50.0459 300.643C51.1979 300.654 50.9566 298.465 51.0114 297.719C51.2308 294.883 51.3515 292.042 51.4777 289.2C51.5106 288.498 51.538 287.796 51.571 287.094C51.6423 285.536 51.7081 283.978 51.8233 282.425C51.933 280.977 52.114 279.606 52.0372 278.157C52.0098 277.702 52.0372 277.241 52.114 276.786C52.1195 276.742 52.1305 276.687 52.1689 276.66C52.2292 276.611 52.317 276.654 52.3828 276.698C52.9369 277.093 53.3099 277.702 53.65 278.284C53.864 278.657 54.1053 279.392 54.621 279.392C55.378 279.392 54.8624 276.177 54.8624 275.596C54.8075 274.318 54.7472 273.045 54.7362 271.767C54.7197 269.77 54.8185 267.779 55.0324 265.793C55.0708 265.447 55.1751 263.16 55.4822 263.105C55.9101 263.033 56.9524 264.542 57.2267 264.833C57.6217 265.25 58.0112 265.908 58.5213 266.188C59.0809 266.5 59.6953 267.806 60.4303 267.674C61.2422 267.526 60.5016 265.2 60.4139 264.635C60.0134 261.991 59.6678 259.336 59.4155 256.687C59.1961 253.982 59.0095 251.267 58.9821 248.551C58.9766 248.09 58.9876 247.597 59.2729 247.235C59.7007 246.686 60.924 248.76 61.1435 249.122C61.3355 249.44 61.6043 249.956 61.9883 250.071C62.5862 250.252 62.493 249.484 62.5259 249.05C62.6301 247.75 62.3778 246.428 62.5478 245.156C62.6795 244.163 62.652 243.137 62.7288 242.138C62.9373 239.56 63.069 237.004 63.3981 234.426C63.6395 232.544 63.9247 230.673 64.2264 228.803C64.38 227.876 64.5336 226.954 64.6927 226.033C64.9396 224.606 64.9231 223.125 65.0273 221.666Z" fill="#C3955A"/>
<path d="M84.9678 232.067C84.4576 231.491 83.8652 230.98 83.3002 230.454C82.1427 229.373 80.9687 228.314 79.7729 227.272C78.0723 225.785 76.3443 224.326 74.5999 222.889C74.2049 222.56 73.8154 222.209 73.393 221.913C73.0803 221.693 72.7622 221.353 72.4056 221.21C72.2575 220.963 71.9009 220.821 71.6595 220.667C71.1274 220.333 70.6063 219.916 70.0687 219.537C69.2952 219.005 67.4356 217.392 66.4262 218.188C65.351 219.038 65.9325 220.234 66.3713 221.265C66.4756 221.512 66.5524 221.781 66.684 222.022C66.9802 222.543 67.2161 223.086 67.5288 223.602C69.2678 226.466 71.6431 228.89 74.4737 230.684C77.3043 232.478 80.497 233.635 83.7555 234.381C84.5783 234.568 85.7907 234.979 86.2405 234.025C86.6684 233.164 85.5054 232.67 84.9678 232.067Z" fill="#C3955A"/>
<path d="M70.6666 208.56C70.7983 208.835 70.9409 209.098 71.1 209.356C71.2975 209.679 71.5882 209.987 71.846 210.255C72.0326 210.447 72.2794 210.563 72.4714 210.744C72.6634 210.919 72.7896 211.106 73.009 211.265C73.5356 211.66 74.0787 212.038 74.5999 212.444C75.0442 212.79 75.494 213.135 75.9493 213.47C76.4321 213.832 76.7777 213.975 77.3592 214.117C79.4547 214.617 81.6764 214.479 83.728 213.881C84.7703 213.58 85.9443 213.262 86.8878 212.724C89.2137 211.391 89.285 210.875 86.9591 209.586C82.2963 207.002 78.7799 203.448 76.8764 198.406C74.5889 192.361 74.6108 186.19 75.8945 179.947C76.0975 178.954 76.7941 177.616 75.6696 177.078C74.5231 176.535 73.9416 177.912 73.3217 178.729C72.1862 180.232 71.2481 181.938 69.9096 183.227C61.3519 191.451 50.9511 194.029 39.4037 192.921C38.7235 192.855 37.9226 192.504 37.4892 193.283C37.0613 194.056 37.5056 194.758 37.961 195.417C40.4679 198.999 44.094 200.425 48.2686 200.688C50.3367 200.815 52.4212 200.71 54.6484 200.71C53.9846 202.691 52.6736 204.1 51.6697 205.68C48.7129 210.321 47.2811 215.379 47.3963 220.876C47.4457 223.317 47.7858 223.597 50.1172 223.262C50.7316 223.174 51.346 223.092 51.9659 223.01C51.9879 222.966 52.0153 222.927 52.0701 222.894C53.8475 221.885 55.6797 220.991 57.49 220.042C58.9602 219.274 60.4632 218.495 61.8182 217.524C62.3942 217.113 62.9373 216.635 63.3816 216.081C63.8918 215.45 64.2374 214.715 64.5227 213.958C65.1425 212.296 65.4552 210.546 66.0312 208.868C66.5578 207.332 67.0241 205.713 67.9238 204.342C68.0115 204.21 68.1597 204.177 68.2968 204.243C69.1526 204.655 69.3775 205.488 69.7231 206.284C70.0413 207.046 70.3101 207.82 70.6666 208.56Z" fill="#C3955A"/>
<path d="M92.1376 228.238C88.7036 225.094 85.2531 221.973 81.8135 218.846C81.2814 218.363 80.7438 217.875 80.2117 217.387C79.7345 216.954 79.2243 216.608 78.7251 216.196C78.4837 215.796 77.7432 215.428 77.3208 215.182C76.2072 214.523 75.2033 213.602 74.1829 212.812C73.3546 212.17 72.4879 211.578 71.6705 210.914C71.462 210.744 71.2536 210.568 71.0506 210.382C70.908 210.25 70.6721 209.91 70.4966 209.85C70.1894 209.751 70.2607 210.255 70.3046 210.508C71.3962 214.244 73.1407 217.738 75.4885 220.859C79.4547 226.126 84.6441 229.28 91.1611 230.201C91.8578 230.3 92.8946 230.684 93.2622 229.834C93.5803 229.11 92.6258 228.682 92.1376 228.238Z" fill="#C3955A"/>
<path d="M208.385 21.3832C205.867 20.319 195.828 18.9092 192.015 18.9092C189.755 18.9092 184.171 19.8417 183.502 19.8966C182.3 19.9953 182.52 21.3064 183.057 22.1128C184.731 24.6417 186.661 27.0225 189.059 28.8492C197.962 35.6296 208.242 36.1507 218.802 34.9329C221.572 34.6147 221.995 33.5505 220.404 31.3233C217.288 26.9622 213.421 23.5117 208.385 21.3832Z" fill="#C3955A"/>
<path d="M291.164 38.2407C290.966 37.5989 290.248 37.6538 289.705 37.6757C286.945 37.8019 284.257 37.2204 281.542 36.8967C273.385 35.9313 265.792 33.4847 258.875 28.9754C257.328 27.9661 256.236 26.463 254.607 25.5798C244.031 19.8637 233.065 15.3599 221.002 13.7856C209.756 12.3154 198.867 13.2205 188.324 17.5487C187.572 17.8559 186.919 18.3387 186.245 18.7885C187.221 18.7282 188.192 18.613 189.163 18.5142C191.154 18.3112 193.173 18.3935 195.17 18.4648C197.123 18.5362 199.114 18.2235 201.067 18.0424C202.91 17.8724 204.764 17.7023 206.613 17.8066C207.277 17.845 207.935 17.9163 208.593 17.9931C210.233 18.1741 211.874 18.3606 213.514 18.5416C214.995 18.7062 216.465 18.5636 217.963 18.7007C219.405 18.8324 220.848 19.0024 222.28 19.1999C233.668 20.7633 243.345 25.0641 249.127 35.7722C250.652 38.5973 252.023 41.4718 251.958 44.7029C251.859 49.5687 249.884 53.5294 244.168 53.3154C243.608 53.2935 243.043 53.3428 242.478 53.3099C238.117 53.0137 234.184 51.8727 231.529 48.0107C229.176 44.5877 230.333 39.8426 233.954 38.0817C235.413 37.374 236.57 37.9116 237.618 38.8167C238.666 39.7164 238.194 40.6819 237.552 41.6254C236.762 42.7884 236.631 44.0611 237.574 45.1417C238.874 46.6338 240.652 47.0672 242.561 46.7436C243.938 46.5077 245.095 45.8933 245.441 44.3408C246.521 39.4421 244.744 36.3208 239.993 34.8012C239.593 34.675 239.187 34.5544 238.775 34.4666C233.164 33.2707 228.896 36.5676 227.875 39.9468C225.884 46.5241 228.32 53.4635 235.484 55.8169C240.004 57.3035 244.662 57.2486 249.204 55.9156C253.302 54.7143 255.139 51.8398 255.233 47.5445C255.282 45.2953 254.591 43.2711 253.905 41.203C253.148 38.921 252.248 36.7048 251.162 34.505C258.507 39.1514 265.995 42.9529 274.811 43.4905C280.445 43.8361 285.519 42.4373 290.248 39.5025C290.708 39.2172 291.367 38.899 291.164 38.2407Z" fill="#C3955A"/>
<path d="M155.925 60.4744C157.801 60.9297 159.546 61.3301 161.279 61.7854C168.729 63.7603 176.272 64.9342 183.973 63.7822C189.722 62.921 195.093 60.9681 198.812 56.1955C200.875 53.5514 202.471 50.5453 204.292 47.7147C205.132 46.4146 205.977 45.1254 207.321 44.2477C208.708 43.3426 209.394 43.8143 209.619 45.3229C209.652 45.5314 209.625 45.7453 209.663 45.9538C209.822 46.8644 209.378 47.6708 209.356 48.5704C209.35 48.8392 209.389 49.1464 209.614 49.2891C210.195 49.6621 210.903 48.6363 211.265 48.3236C211.813 47.8573 212.4 47.4404 212.987 47.0235C214.156 46.2006 215.489 45.6027 216.86 45.2022C218.917 44.5988 219.905 45.3558 220.168 47.4733C220.42 49.492 219.866 51.4175 218.72 53.0797C218.155 53.9025 217.661 54.5443 216.855 55.1533C215.955 55.8335 214.968 56.3985 213.925 56.8319C213.75 56.9032 213.563 56.98 213.443 57.1281C213.322 57.2762 213.289 57.5176 213.432 57.6492C213.53 57.737 213.678 57.748 213.81 57.748C214.71 57.7699 215.604 57.8028 216.498 57.8467C217.831 57.9126 219.17 57.8796 220.503 57.9784C221.452 58.0497 222.318 58.4227 222.675 59.3992C223.026 60.3592 222.395 61.0229 221.77 61.5934C218.561 64.5118 214.808 66.5635 210.87 68.3079C201.22 72.5813 191.149 73.2231 180.918 71.3689C172.19 69.7891 164.154 66.2837 156.594 61.6757C156.309 61.5057 155.969 61.3466 155.925 60.4744Z" fill="#C3955A"/>
<path d="M105.188 34.3407C102.198 34.5711 99.3074 33.8305 96.378 33.5013C94.9463 33.3423 94.5513 32.6127 95.1822 31.3345C101.798 17.9001 111.935 11.1197 127.433 12.952C130.022 13.2592 132.518 13.9778 135.008 14.7787C136.758 15.3437 137.054 16.1995 136.264 17.7465C132.792 24.5597 127.548 29.3487 120.312 31.9654C115.408 33.7317 110.328 34.2145 105.188 34.3407Z" fill="#C3955A"/>
<path d="M159.079 65.7899C159.014 65.5869 158.975 65.362 158.953 65.1096C158.948 65.0658 158.948 65.0219 158.975 64.9835C159.025 64.9122 159.129 64.9286 159.211 64.956C160.094 65.2578 165.234 69.4872 166.107 70.0797C166.715 70.4911 167.407 70.8477 168.032 71.2481C170.495 72.8116 173.035 74.2762 175.723 75.4282C177.297 76.103 178.916 76.6844 180.578 77.1014C182.937 77.7103 185.268 78.012 187.665 77.5786C189.733 77.2001 191.719 77.6938 193.722 78.0778C194.621 78.2534 195.274 78.7251 195.433 79.6961C195.653 81.0291 194.577 81.4076 193.595 81.8958C192.405 82.4828 191.083 82.8558 189.75 82.7571C189.245 82.7187 188.746 82.62 188.252 82.5157C187.709 82.406 185.526 81.6106 185.115 81.3802C183.99 80.7384 182.86 80.0965 181.73 79.4547C181.604 79.3834 181.467 79.3066 181.324 79.2956C181.176 79.2847 181.011 79.356 180.962 79.4931C180.929 79.5864 180.956 79.6961 180.984 79.7893C181.187 80.4257 181.56 80.7768 182.015 81.2156C182.476 81.66 182.8 82.3182 183.195 82.8339C183.995 83.8707 184.901 84.8362 185.882 85.7029C187.764 87.376 189.925 88.6981 192.169 89.8227C193.436 90.459 194.725 91.035 196.026 91.6C193.963 92.763 188.439 91.8962 184.056 89.9872C182.619 89.3564 181.247 88.561 180.024 87.5735C178.888 86.6519 177.61 85.5383 177.078 84.1724C176.557 82.8449 175.899 81.5667 175.109 80.3763C175.037 80.2721 174.944 80.1514 174.812 80.1624C174.752 80.1679 174.697 80.2008 174.653 80.2447C174.489 80.4037 174.456 80.6451 174.434 80.87C174.28 82.3731 174.154 83.8104 173.748 85.2695C173.441 86.3667 172.783 87.387 172.02 88.2373C170.747 89.6526 169.058 90.2231 167.182 89.9763C166.046 89.8281 164.938 89.4551 163.874 89.0382C162.941 88.6707 162.673 87.9411 163.309 86.9975C167.516 80.7054 167.281 76.3059 162.459 70.3375C161.729 69.4324 161.076 68.4449 160.308 67.5727C159.782 66.9693 159.304 66.4975 159.079 65.7899Z" fill="#C3955A"/>
<path d="M52.7723 12.8257C55.2518 12.8038 57.1828 13.4785 59.0315 14.3562C60.189 14.9048 61.127 14.7896 62.1748 14.0929C64.1771 12.7708 66.3713 11.8054 68.6808 11.1361C69.4159 10.9222 70.1894 10.7576 70.9519 10.7247C71.4895 10.7027 73.1187 10.5107 73.3052 11.2458C73.4863 11.959 72.2081 12.6721 71.7418 12.9464C70.321 13.7857 68.9277 14.7018 67.6495 15.7441C66.3768 16.7864 64.9505 17.6366 63.7108 18.7283C63.0909 19.2769 62.5039 19.8693 61.9938 20.5276C61.703 20.9061 61.3903 21.537 60.8582 21.2627C60.6388 21.1475 60.4578 20.8622 60.2493 20.7141C59.9586 20.5111 59.6349 20.3411 59.3277 20.171C58.077 19.4689 56.7769 18.8654 55.4329 18.3662C54.5277 18.0316 53.6775 17.7573 52.8107 17.3349C51.9166 16.9016 50.995 16.5231 50.0514 16.2049C48.8555 15.8044 47.6267 15.4972 46.4309 15.0803C46.2773 15.0255 46.1182 14.9706 46.003 14.8554C45.8878 14.7402 45.8329 14.5482 45.9152 14.4111C45.9646 14.3288 46.0578 14.2739 46.1456 14.23C46.6119 13.9996 47.1276 13.9612 47.5938 13.7583C48.1808 13.5004 48.7952 13.3304 49.4261 13.2097C50.4903 13.0177 51.6916 12.8312 52.7723 12.8257Z" fill="#C3955A"/>
<path d="M42.4483 207.079C38.2956 206.794 34.505 205.977 31.6469 202.823C31.2904 202.428 30.6376 202.022 31.0271 201.418C31.3891 200.864 32.0693 201.122 32.585 201.309C35.8984 202.477 39.2391 203.547 42.6732 204.287C44.2476 204.627 45.8494 204.819 47.4348 205.127C47.8791 205.214 48.6032 205.149 48.6142 205.763C48.6306 206.509 47.8407 206.482 47.336 206.553C45.6684 206.772 43.9897 206.92 42.4483 207.079Z" fill="#C3955A"/>
<path d="M104.914 147.872C104.969 150.089 103.449 151.806 101.419 151.817C99.2141 151.833 97.3874 150.127 97.4039 148.064C97.4148 146.007 99.0331 144.449 101.227 144.384C103.29 144.323 104.864 145.815 104.914 147.872Z" fill="#C3955A"/>
<path d="M304.554 36.7214C304.505 38.7182 302.695 40.4243 300.698 40.3584C298.537 40.2871 296.962 38.6908 296.995 36.5953C297.028 34.4942 298.646 32.9857 300.841 33.0186C303.024 33.0515 304.609 34.6314 304.554 36.7214Z" fill="#C3955A"/>
<path d="M17.9108 150.857C15.7714 150.818 14.4493 149.403 14.4767 147.187C14.5042 145.13 16.2376 143.445 18.2728 143.5C20.0612 143.55 22.0031 145.607 21.9976 147.445C21.9921 149.277 20.0557 150.895 17.9108 150.857Z" fill="#C3955A"/>
<path d="M52.9808 188.428C50.8962 188.379 49.1408 186.645 49.2231 184.709C49.3054 182.696 51.0553 181.187 53.2221 181.269C55.2299 181.346 56.7769 182.981 56.711 184.961C56.6452 186.925 54.9721 188.478 52.9808 188.428Z" fill="#C3955A"/>
<path d="M23.8737 158.57C23.9011 160.791 22.5188 162.152 20.1764 162.196C18.015 162.24 16.6546 160.747 16.6765 158.367C16.693 156.502 18.2344 155.086 20.2971 155.053C22.4255 155.02 23.8463 156.419 23.8737 158.57Z" fill="#C3955A"/>
<path d="M44.1433 184.045C44.1708 186.415 42.9365 187.671 40.5338 187.726C38.5095 187.775 36.9735 186.267 36.9132 184.171C36.8638 182.333 38.537 180.556 40.3034 180.562C42.7774 180.573 44.1214 181.79 44.1433 184.045Z" fill="#C3955A"/>
<path d="M63.3158 186.513C61.3245 186.557 59.7611 185.032 59.6898 182.975C59.6239 181.028 61.0612 179.552 63.0854 179.481C65.4333 179.398 66.9199 180.71 66.9528 182.898C66.9912 185.263 65.7844 186.464 63.3158 186.513Z" fill="#C3955A"/>
<path d="M24.5978 165.981C26.7098 166.008 28.1635 167.5 28.0977 169.579C28.0319 171.604 26.452 173.101 24.4058 173.079C22.2609 173.057 20.8237 171.637 20.8072 169.53C20.7908 167.391 22.3322 165.953 24.5978 165.981Z" fill="#C3955A"/>
<path d="M31.9487 182.169C29.7105 182.174 28.383 180.869 28.4104 178.696C28.4378 176.639 29.7818 175.29 31.828 175.257C34.0826 175.224 35.668 176.689 35.6405 178.784C35.6186 180.858 34.1978 182.163 31.9487 182.169Z" fill="#C3955A"/>
<path d="M46.4034 214.128C43.7868 218.045 36.5292 219.779 33.172 216.526C32.8264 216.191 32.2668 215.917 32.4149 215.374C32.585 214.748 33.2323 214.94 33.6821 214.951C37.7909 215.061 41.9052 215.16 46.4034 214.128Z" fill="#C3955A"/>
<path d="M25.9089 198.456C26.8723 198.456 27.6534 197.675 27.6534 196.711C27.6534 195.748 26.8723 194.967 25.9089 194.967C24.9455 194.967 24.1645 195.748 24.1645 196.711C24.1645 197.675 24.9455 198.456 25.9089 198.456Z" fill="#C3955A"/>
<path d="M27.5985 214.545C28.5316 214.545 29.2881 213.789 29.2881 212.856C29.2881 211.922 28.5316 211.166 27.5985 211.166C26.6654 211.166 25.9089 211.922 25.9089 212.856C25.9089 213.789 26.6654 214.545 27.5985 214.545Z" fill="#C3955A"/>
<path d="M100.394 231.408C101.327 231.408 102.083 230.652 102.083 229.719C102.083 228.786 101.327 228.029 100.394 228.029C99.4604 228.029 98.704 228.786 98.704 229.719C98.704 230.652 99.4604 231.408 100.394 231.408Z" fill="#C3955A"/>
<path d="M93.6187 237.355C94.5519 237.355 95.3083 236.598 95.3083 235.665C95.3083 234.732 94.5519 233.976 93.6187 233.976C92.6856 233.976 91.9291 234.732 91.9291 235.665C91.9291 236.598 92.6856 237.355 93.6187 237.355Z" fill="#C3955A"/>
</svg>
