<svg width="94" height="111" viewBox="0 0 94 111" fill="none" xmlns="http://www.w3.org/2000/svg">
<path d="M76.5804 101C76.5804 89.3729 66.7551 79.858 47.3135 79.9473C27.872 80.0366 18.0467 88.9518 18.0467 101M9.05762 81.9765C9.05762 73.3436 7.71022 53.9933 18.0467 50.7446C14.4542 46.8898 12.1933 41.2877 12.1933 35.0526C12.1933 23.4256 17.2105 14 29.7534 14C40.415 15.3943 42.2964 22.3696 42.2964 26.3016M51.7036 26.3016C51.7036 22.3696 53.585 15.3943 64.2466 14C76.7895 14 81.8067 23.4256 81.8067 35.0526C81.8067 41.2877 79.5458 46.8898 75.9533 50.7446C86.2898 53.9933 84.9424 73.3436 84.9424 81.9765M47.3135 68.4069C37.6154 68.4069 29.7534 58.9813 29.7534 47.3542C29.7534 35.7272 37.6154 26.3016 47.3135 26.3016C57.0117 26.3016 64.8736 35.7272 64.8736 47.3542C64.8736 58.9813 57.0117 68.4069 47.3135 68.4069Z" stroke="#C3955A" stroke-width="3" stroke-linecap="round" stroke-linejoin="round"/>
</svg>
