<svg width="261" height="218" viewBox="0 0 261 218" fill="none" xmlns="http://www.w3.org/2000/svg">
<path d="M259.819 112.151C259.034 111.198 257.9 110.259 257.593 109.927C255.851 108.041 254.185 106.084 252.573 104.068C249.349 100.052 246.351 95.8408 243.4 91.6006C237.007 82.4124 231.632 72.5017 225.451 63.1618C222.569 58.7988 219.421 54.6019 215.801 50.8963C213.759 48.8015 211.477 47.0172 209.305 45.0814C207.291 43.2827 205.31 41.6502 202.865 40.5233C202.339 40.285 201.834 39.5771 202.011 38.9342C202.23 38.1468 203.097 37.7784 203.876 37.7206C204.32 37.6917 205.645 37.959 205.938 37.5256C206.287 37.0127 205.672 36.5649 205.262 36.3915C199.388 33.9716 192.688 35.4235 186.897 38.0601C184.014 39.3676 181.248 40.964 178.633 42.7843C176.597 44.2073 174.644 45.7676 172.697 47.3206C170.02 49.466 167.049 51.4741 164.583 53.8579C162.05 56.3283 159.932 59.355 157.603 62.0421C157.112 62.6055 156.586 63.4146 155.711 63.0967C154.1 62.5189 154.653 58.9288 154.762 57.6358C154.953 55.4109 155.124 53.0922 155.834 51.0046C156.353 49.4732 156.968 47.9852 157.61 46.5116C158.17 45.2186 158.56 43.9545 159.4 42.8348C159.605 42.5604 160.725 40.8556 161.032 40.899C159.318 40.6678 157.583 41.3324 156.162 42.3725C155.37 42.9504 154.66 43.6511 154.052 44.4385C153.881 44.6552 152.863 46.1432 152.659 45.1753C152.501 44.4096 152.87 43.1527 152.98 42.3798C153.116 41.4118 153.287 40.4511 153.505 39.5048C153.902 37.764 154.352 35.8786 155.384 34.4339C157.214 31.8696 159.072 31.0461 162.111 30.9811C162.111 28.7779 161.647 27.7811 160.574 26.9143C159.331 25.9102 157.617 25.7585 156.087 26.1269C154.27 26.5675 152.419 27.5427 151.149 28.973C150.828 29.3341 148.089 33.7116 148.404 33.8777C147.98 33.661 148.212 32.3319 148.233 31.8551C148.349 29.3341 148.923 26.9648 150.118 24.7617C152.46 20.4492 155.896 19.9075 159.707 23.2736C160.656 20.7671 159.509 17.2348 157.241 15.6601C154.66 13.8759 151.17 14.1648 149.168 16.5124C147.823 18.0872 146.758 19.9219 146.081 21.9301C145.938 22.349 145.61 24.61 145.105 24.6389C144.476 24.6678 144.702 22.9702 144.722 22.5802C144.995 18.0727 146.3 13.6375 148.506 9.7657C149.223 8.50882 150.022 7.87315 151.395 7.65644C147.864 5.32326 143.971 7.28804 141.444 10.3291C140.795 11.1093 140.351 12.0628 139.689 12.8212C139.361 13.1969 139.067 13.5725 138.767 13.977C138.637 14.1504 137.728 14.9233 137.722 15.0316C137.858 12.8357 138.883 10.8276 140.16 9.15893C140.836 8.27044 141.574 7.43251 142.359 6.64515C142.632 6.37066 144.306 4.50701 144.647 4.62258C142.462 3.84244 139.866 3.4307 137.571 3.4307C136.888 3.4307 129.765 3.97246 129.778 4.39142C129.703 2.57833 130.769 0.786909 132.333 0.0645599C131.595 -0.0871334 130.837 0.0573271 130.093 0.201797C125.496 1.10473 120.674 2.11602 117.123 5.31603C116.706 5.69165 116.221 6.12507 115.682 6.02394C115.395 5.9806 115.149 5.77111 114.944 5.55441C114.384 4.98375 113.981 4.23251 113.797 3.4307C112.902 4.49255 112.547 5.99505 112.738 7.38918C112.834 8.06096 113.045 8.79775 113.435 9.35396C113.735 9.77292 114.056 9.80905 113.94 10.4447C113.817 11.0876 113.359 11.6872 112.909 12.1061C110.846 14.0276 107.752 14.9305 105.225 13.5147C104.303 12.9946 103.483 12.2145 102.459 12.0339C101.441 11.8533 100.424 12.3011 99.5358 12.8574C95.8135 15.1616 93.2864 19.5174 93.0269 24.0754C92.9996 24.545 92.9996 25.6357 93.5801 25.7585C94.5363 25.9535 95.2193 24.0032 96.2096 24.6822C96.5101 24.8845 96.6877 25.2456 96.8516 25.5924C97.1317 26.1991 97.4185 26.8059 97.6986 27.4127C98.4635 26.9143 98.9689 26.1052 99.6314 25.4551C100.28 24.805 101.223 24.3138 102.049 24.6678C102.732 24.9639 103.224 25.8019 103.968 25.773C104.433 25.7441 104.808 25.3684 105.177 25.0651C105.676 24.6533 107.493 23.317 108.053 23.6493C108.599 23.9743 109.077 24.4366 109.432 24.9856C109.596 25.224 109.767 25.5129 110.04 25.5274C110.306 25.549 110.518 25.3107 110.696 25.1084C111.987 23.642 114.329 22.9847 116.16 23.3603C117.198 23.577 118.181 24.0465 119.144 24.5161C119.629 24.7544 120.203 25.1301 120.155 25.7007C120.128 26.0402 119.875 26.3075 119.636 26.5386C118.625 27.521 117.608 28.5107 116.46 29.3052C116.208 29.4858 115.374 30.3599 115.203 30.4032C114.732 30.5116 114.275 29.8976 113.797 29.8687C113.701 29.8687 113.612 29.8831 113.544 29.9337C113.469 29.9843 113.421 30.0709 113.38 30.1576C112.82 31.2122 112.028 32.498 110.812 32.5703C109.617 32.6425 108.292 32.3608 107.527 31.3206C107.213 30.8944 106.898 30.3238 106.393 30.331C106.058 30.3382 105.778 30.591 105.587 30.88C105.157 31.5229 105 32.3463 104.535 32.9676C104.078 33.5888 103.046 33.8849 102.623 33.2348C102.486 33.0181 102.445 32.7581 102.329 32.5341C102.199 32.3102 101.913 32.1441 101.715 32.2885C101.578 32.3897 101.544 32.5703 101.53 32.7364C101.148 36.2254 103.538 39.3242 106.393 40.7545C106.331 39.801 106.905 38.8908 107.67 38.378C108.442 37.8723 109.371 37.6989 110.272 37.6628C115.067 37.4678 118.946 41.0362 122.634 43.7306C123.283 42.8637 122.641 41.159 123.611 40.7545C124.069 40.5667 124.574 40.8628 124.916 41.2312C125.257 41.5996 125.53 42.0547 125.961 42.3003C126.384 42.5459 127.047 42.4448 127.19 41.9536C127.258 41.7152 127.19 41.4624 127.115 41.224C126.855 40.3572 125.681 37.9445 126.603 37.1644C126.896 36.9188 127.313 36.926 127.675 37.0272C128.973 37.3956 130.011 38.8041 131.349 38.6308C131.295 37.2078 130.817 35.8425 130.639 34.4267C130.523 33.5093 130.619 29.9915 131.964 31.9635C132.77 33.1481 133.733 38.4646 133.671 39.6565C133.501 43.0227 132.818 46.3238 132.463 49.661C132.224 51.9148 131.978 54.183 131.486 56.4006C130.55 60.6624 128.706 64.6426 125.797 67.7848C120.824 73.1374 113.66 71.8372 109.439 66.2823C106.557 62.49 103.613 58.7554 100.608 55.0787C98.6001 52.6227 96.5648 50.1956 94.3314 47.978C89.8783 43.55 84.6603 39.4904 79.2442 36.5143C78.5681 36.1387 77.8783 35.763 77.1338 35.5752C73.9169 34.7518 70.0376 35.3802 67.0256 36.7093C67.7496 37.4606 68.8423 37.5617 69.8327 37.7495C70.823 37.9373 71.9294 38.3707 72.2641 39.3748C72.551 40.2199 72.148 41.1879 71.5128 41.7802C70.8776 42.3725 70.0512 42.6759 69.2521 42.9649C66.4109 43.9906 63.638 44.9297 60.988 46.4105C58.3585 47.8768 55.8724 49.6177 53.5571 51.5825C48.3527 56.0033 43.442 60.8069 38.2855 65.2855C33.9007 69.1067 29.5091 73.0652 24.0452 75.0227C20.5347 76.2796 16.99 77.4209 13.3838 78.3455C11.6217 78.8006 9.84592 79.1979 8.06332 79.5446C7.06616 79.7324 4.44349 79.6169 3.79465 80.4476C3.5761 80.7293 7.6467 81.1699 8.01551 81.2205C9.64102 81.4227 11.3417 82.0729 12.8784 82.6652C15.986 83.8571 18.9706 85.5329 21.4772 87.83C22.9251 89.1591 24.6053 91.2395 23.7857 93.2982C22.932 95.4435 21.3406 97.3939 19.6536 98.8458C18.6291 99.7271 17.4339 100.558 17.0309 101.88C18.0213 102.378 19.1687 102.313 20.2615 102.255C25.2063 101.981 30.1579 101.959 35.1096 101.937C37.4864 101.93 39.87 101.916 42.2468 101.909C43.7152 101.901 45.8188 101.721 46.0237 103.743C46.092 104.422 45.9213 105.101 45.7164 105.751C44.487 109.724 42.0624 113.184 40.8126 117.15C40.5598 117.959 40.4915 119.115 41.2497 119.426C41.5365 119.541 41.8575 119.483 42.158 119.404C43.6265 119.021 44.9583 118.212 46.3379 117.547C51.6311 115.005 57.6004 114.607 63.194 112.932C64.9903 112.39 67.4969 111.299 69.3546 112.065C72.3666 113.3 68.9926 118.219 68.214 119.924C68.1662 120.032 68.1184 120.177 68.1935 120.271C68.255 120.35 68.3642 120.343 68.4667 120.336C72.3665 119.975 75.5766 118.335 79.1964 117.02C82.9392 115.655 86.7298 113.531 90.1037 111.357C92.8698 109.565 95.4447 107.463 97.9786 105.318C99.8295 103.751 101.667 102.154 103.292 100.327C106.728 96.4765 109.398 91.6079 112.041 87.1726C112.601 86.2336 113.209 85.309 114.104 84.6661C114.384 84.4638 114.732 84.1677 115.046 84.4711C115.436 84.8395 115.012 85.1284 114.814 85.3957C112.287 88.7546 110.163 92.4241 108.292 96.2309C106.55 99.7632 105.348 103.736 103.347 107.088C101.796 109.681 100.342 112.014 98.4157 114.311C97.159 115.814 95.8408 117.273 94.6524 118.84C93.3138 120.617 92.139 122.546 91.1624 124.576C90.6979 125.551 90.4657 126.36 89.653 127.039C88.8948 127.675 88.007 128.18 87.1123 128.549C86.2244 128.917 85.3092 128.809 84.9062 127.711C84.592 126.844 85.1316 126.23 85.8214 125.956C87.0713 125.457 86.7981 126.924 87.2762 127.444C87.9182 127.046 88.4441 126.57 88.2392 125.804C88.0616 125.161 87.4264 124.944 86.8322 124.85C85.3501 124.626 83.8954 124.735 82.5704 125.544C81.1566 126.418 80.7536 127.776 81.423 129.358C82.0581 130.853 83.0553 131.9 84.6535 132.197C85.2614 132.305 85.8282 132.637 85.0018 133.201C82.8094 134.696 80.4804 135.895 77.7758 135.621C75.7473 135.418 74.5248 133.692 74.8663 131.77C75.0302 130.875 75.5493 130.347 76.3006 130.051C77.0109 129.77 77.6938 129.907 78.2607 130.456C78.7456 130.925 78.8344 131.532 78.6227 132.161C78.411 132.775 77.9875 133.316 77.4002 133.389C76.7582 133.468 77.325 132.486 76.7104 132.291C76.0274 132.861 76.1093 133.41 76.5396 133.966C77.0109 134.58 77.6256 134.631 78.2949 134.414C79.5652 133.995 80.8766 132.096 80.8834 130.514C80.8902 128.672 79.8589 127.451 78.3632 126.844C76.8743 126.237 75.2692 126.273 74.2584 127.855C73.6096 128.859 73.2476 128.809 72.4144 128.065C69.9829 125.883 67.4832 126.302 65.7211 129.127C64.3278 131.351 64.0273 133.764 65.202 136.177C66.4109 138.676 68.3438 140.142 71.0962 140.135C76.5191 140.121 80.9722 137.405 85.3092 134.378C89.1749 131.677 91.7566 127.776 94.2016 123.738C94.4475 123.333 94.5568 122.459 95.2739 122.864C96.0867 123.319 97.0702 123.731 97.4458 124.648C97.6917 125.255 96.8516 125.443 96.4487 125.732C92.7127 128.469 89.53 131.85 87.8089 136.285C82.0376 151.194 82.7411 165.858 90.3906 179.85C98.5796 194.832 115.204 197.237 127.033 191.523C137.394 186.525 142.298 172.72 137.414 162.579C133.508 154.481 122.764 148.587 114.247 149.873C105.901 151.137 99.7817 159.162 100.649 167.715C101.072 171.854 104.207 175.227 108.073 175.682C111.966 176.144 115.88 173.558 116.972 169.694C117.587 167.505 117.915 165.251 116.016 163.496C114.261 161.871 110.457 161.51 108.524 162.709C107.465 163.359 107.008 164.059 108.264 165.056C109.337 165.909 110.457 166.732 111.283 167.881C112.26 169.246 112.007 169.976 110.45 170.358C109.104 170.691 107.766 170.575 106.441 170.243C104.863 169.838 103.326 169.253 102.978 167.296C102.65 165.454 103.279 163.893 104.658 162.694C106.427 161.148 108.367 159.884 110.457 158.873C116.016 156.179 120.702 157.638 123.83 163.2C128.296 171.167 124.424 180.139 116.078 180.818C109.268 181.374 102.889 179.727 97.0634 176.087C90.2403 171.825 86.9415 165.302 86.9756 156.93C86.9893 153.13 87.4674 149.367 88.4304 145.726C90.3496 138.51 92.1459 131.164 98.5659 126.591C98.9416 126.331 99.2148 125.789 99.7612 126.006C100.403 126.259 100.301 126.887 100.294 127.436C100.26 130.037 100.854 132.471 102.083 134.718C105.696 141.356 111.044 145.105 118.318 145.892C126.555 146.774 133.111 142.555 135.563 134.559C137.988 126.649 132.586 118.624 125.148 119.317C120.941 119.714 117.601 121.99 115.518 125.934C113.339 130.073 114.821 135.404 118.577 137.564C121.747 139.384 125.202 137.564 125.503 133.909C125.64 132.175 124.656 130.217 123.311 129.553C122.061 128.932 121.002 129.365 120.135 130.333C119.486 131.041 118.68 131.929 119.103 132.926C119.588 134.068 120.51 132.998 121.234 132.991C121.781 132.984 122.464 132.565 122.73 133.417C122.976 134.212 121.33 136.278 120.278 136.531C118.837 136.87 118.154 135.91 117.949 134.674C117.751 133.468 117.778 132.197 117.881 130.969C118.106 128.217 119.281 126.541 121.391 125.97C123.966 125.277 126.329 125.761 128.091 127.978C129.662 129.957 129.621 132.182 128.488 134.4C126.917 137.491 124.608 139.839 121.726 141.501C117.744 143.79 113.851 143.509 110.136 140.771C108.053 139.24 106.188 137.383 104.61 135.274C103.941 134.371 102.978 133.295 102.486 132.305C101.865 131.048 102.377 129.459 102.862 128.26C103.839 125.847 104.87 123.984 106.926 122.51C110.908 119.664 115.6 118.898 120.237 118.082C126.582 116.97 133.002 116.262 139.122 113.979C147.106 110.996 151.948 105.188 153.423 96.3176C153.669 94.8223 153.731 93.2982 153.984 91.7957C154.113 91.0155 153.717 89.0435 154.994 89.1663C155.602 89.2241 156.053 89.7587 156.422 90.2715C157.125 91.2611 157.74 92.3158 158.314 93.3993C159.591 95.7758 160.663 98.2679 161.872 100.688C164.549 106.069 167.869 111.097 171.721 115.612C173.032 117.143 174.418 118.624 175.976 119.873C176.706 120.458 177.56 121.217 178.428 121.556C178.755 121.686 180.203 121.679 180.313 121.86C179.343 120.292 178.967 118.349 179.179 116.486C179.397 114.629 180.19 112.859 181.358 111.451C181.576 111.184 181.822 110.923 182.129 110.772C184.165 109.76 186.699 111.667 188.44 112.578C190.305 113.553 192.285 114.326 194.184 115.236C198.234 117.186 202.237 119.259 206.171 121.455C207.058 121.968 208.5 123.182 209.497 123.312C211.04 123.521 210.275 122.438 209.838 121.21C209.326 119.751 208.8 118.263 208.677 116.709C208.575 115.438 208.759 113.264 209.722 112.325C210.685 111.379 212.188 111.826 213.349 112.231C217.993 113.835 222.344 116.283 226.421 119.108C228.436 120.502 230.389 122.004 232.295 123.565C233.114 124.244 233.907 125.096 234.842 125.58C235.109 125.717 237.964 126.635 237.991 126.44C238.148 125.204 237.431 124.07 236.891 122.958C235.566 120.227 235.204 116.984 235.887 113.993C236.577 111.01 238.722 110.447 241.406 110.57C243.462 110.663 245.476 111.155 247.484 111.653C251.159 112.556 254.833 113.466 258.515 114.369C259.027 114.499 259.58 114.622 260.072 114.412C261.028 114.015 260.591 113.076 259.819 112.151ZM118.571 19.9219C117.58 20.1025 117.532 19.9364 117.853 19.1274C118.297 18.0366 117.676 17.0831 116.815 16.3319C117.375 16.4185 117.929 16.5052 118.489 16.5919C118.741 16.6352 118.987 16.6497 119.226 16.6497C120.196 16.6569 121.146 16.4619 122.156 16.693C122.641 16.8014 123.133 16.7436 123.611 16.7653C124.014 16.7869 124.622 16.8519 124.779 17.2492C123.099 18.7084 120.667 19.5246 118.571 19.9219ZM104.938 69.4173C105.075 69.4895 105.157 69.6701 105.567 70.1541C100.458 69.2728 95.9843 67.7631 91.7224 65.5166C89.571 64.3825 87.4128 63.2845 85.2613 62.1649C79.7291 59.29 74.2174 59.3694 68.7057 62.2588C62.9345 65.2782 57.3818 68.7455 51.5013 71.5193C49.0152 72.6968 46.5087 73.8814 43.6538 73.7586C43.6128 72.9712 44.1319 72.8123 44.5007 72.6029C50.3266 69.3523 55.5104 65.0904 60.8377 61.0525C63.6516 58.9143 66.7456 57.2963 69.9624 55.931C74.7433 53.9085 79.4833 54.1396 83.8066 56.964C90.6774 61.4498 97.5961 65.8272 104.938 69.4173ZM97.1795 69.9229C97.1453 70.053 97.1112 70.1902 97.077 70.3202C94.2495 69.7062 91.4014 69.1572 88.5875 68.4638C82.987 67.0769 77.5094 66.6362 72.2436 69.8868C68.7467 72.0466 65.3455 74.3221 62.313 77.1753C59.0825 80.2164 55.8519 83.2719 52.5941 86.2841C51.5081 87.2882 50.2924 88.1261 48.5986 88.8774C49.3294 87.3966 50.2924 86.6092 51.1393 85.7713C55.1894 81.755 58.2082 76.8719 61.4797 72.1983C65.8987 65.8994 71.7109 63.0028 79.1759 64.0864C83.6085 64.7292 87.8157 66.2317 92.0093 67.8137C93.7509 68.4638 95.4584 69.215 97.1795 69.9229ZM68.1525 45.3197C69.9898 44.4962 71.8816 43.8895 73.876 43.6078C78.2949 42.9865 82.2425 43.9545 85.5823 47.234C87.7406 49.3504 90.0286 51.3441 91.777 53.9012C89.4754 52.9333 87.5767 51.3658 85.6575 49.8705C80.5419 45.8759 75.16 44.7852 69.136 47.4362C66.2402 48.7075 63.1804 49.5744 59.8747 49.0615C62.634 47.8191 65.3864 46.5622 68.1525 45.3197ZM52.5941 58.9721C58.7273 55.0714 65.1747 51.8787 71.8748 49.2276C75.4468 47.8191 78.773 48.4908 82.0172 50.2678C85.4116 52.1315 88.4168 54.6236 91.4424 57.0507C93.6348 58.8132 95.9159 60.3374 98.5386 61.3703C96.1208 61.8832 93.9899 61.0669 91.9205 60.0123C89.168 58.6037 86.6888 56.7184 84.1754 54.927C79.333 51.4741 74.3062 51.2574 68.9448 53.3089C64.6966 54.927 60.7285 57.2096 56.5281 58.9288C54.9094 59.6006 53.2771 60.2507 51.4057 60.4746C51.4535 59.5428 52.1092 59.2827 52.5941 58.9721ZM50.1217 64.3897C43.2918 72.6679 33.9417 76.2868 24.5301 79.7902C32.7806 74.1559 42.199 70.6886 50.1217 64.3897ZM30.9366 88.6029C39.4193 86.1469 47.7244 83.2286 54.8753 77.4859C48.3254 84.6083 39.7334 86.8404 30.9366 88.6029ZM38.907 98.9903C45.1905 95.588 51.9247 93.2476 57.9077 89.2674C52.5668 94.6778 46.3038 98.1018 38.907 98.9903ZM50.347 103.722C50.5861 102.508 51.1393 102.01 51.6652 101.555C55.729 97.9645 58.6658 93.4426 61.4114 88.7329C63.4126 85.3162 65.2225 81.755 67.8588 78.8006C72.1275 74.0403 77.7143 72.2634 83.5675 71.346C91.1077 70.1758 98.5045 71.3532 105.799 73.4119C106.051 73.4841 106.393 73.4697 106.509 74.0981C103.948 75.0372 101.264 75.4489 98.5728 75.7812C94.7822 76.2507 90.9711 76.2652 87.1669 76.1568C81.0405 75.9835 76.1913 78.165 72.1002 83.2503C67.7154 88.704 63.194 94.0927 58.1673 98.9397C55.9612 101.056 53.5161 102.783 50.347 103.722ZM103.033 87.0137C102.479 89.8814 101.578 92.6264 100.342 95.2413C96.8038 102.761 88.9563 106.979 81.2249 105.535C80.2482 105.347 79.2784 105.101 78.4178 104.523C77.6939 104.032 77.4548 103.397 78.1241 102.696C80.5487 100.182 82.2835 97.1194 83.7041 93.9627C87.0439 86.5442 92.3986 83.0047 100.137 83.5031H100.314C103.743 83.3225 103.743 83.3225 103.033 87.0137ZM102.302 78.7139C98.8186 79.8841 95.192 80.2236 91.5858 80.5487C86.7434 80.9893 82.8982 83.0841 80.0365 87.3171C76.5737 92.453 73.3705 97.7912 69.3409 102.479C67.1212 105.051 64.7444 107.42 62.1286 109.522C61.7461 109.826 61.2543 110.425 60.7626 109.999C60.264 109.558 60.7216 108.93 60.9402 108.467C62.5247 105.08 64.519 101.945 66.4314 98.7591C68.6579 95.0535 71.0074 91.42 73.0427 87.5988C76.6011 80.9099 82.1196 77.9699 89.1134 77.9193C94.4748 77.8832 99.7407 77.5004 104.856 75.6728C105.519 75.4417 106.181 75.2105 106.851 74.9938C106.946 74.9649 107.069 75.0444 107.417 75.1383C106.113 77.197 104.255 78.0566 102.302 78.7139ZM71.9226 138.142C70.6864 137.694 69.8805 136.654 69.7849 135.216C69.7097 134.19 70.3312 133.49 71.1167 132.977C71.9704 132.428 72.7354 132.384 73.4115 133.36C73.8213 133.959 74.3472 134.465 74.8253 135.007C75.7815 136.068 76.8606 136.617 78.288 136.126C78.9847 135.888 79.7496 135.758 80.7195 136.473C77.8168 138.272 75.037 139.254 71.9226 138.142ZM227.787 75.4778C222.617 78.2155 207.011 71.0065 205.658 65.4588C212.543 70.6164 219.864 73.8092 227.787 75.4778ZM224.659 83.4236C224.379 84.0882 223.86 83.7993 223.443 83.7704C217.74 83.3731 212.864 80.9099 208.493 77.1175C205.959 74.9216 203.384 72.7762 200.741 70.7247C195.058 66.3112 188.727 65.2638 181.897 66.7879C177.854 67.6909 174.125 69.4606 170.368 71.1798C169.521 71.5627 168.675 72.0178 167.623 71.9383C167.616 71.3965 167.875 71.2087 168.128 71.0715C173.251 68.1026 178.298 64.9749 183.912 63.0534C191.841 60.3374 198.658 62.4033 204.613 68.2904C206.963 70.6164 209.183 73.0868 211.566 75.3767C214.763 78.4394 218.389 80.7871 222.494 82.2751C223.252 82.5568 224.078 82.7302 224.659 83.4236ZM220.261 59.8751C217.29 61.9193 212.181 60.2724 209.736 56.4511C213.041 58.3003 216.422 59.8751 220.261 59.8751ZM214.36 54.5297C212.256 55.2448 209.913 55.1653 207.455 54.4141C203.582 53.2367 199.675 52.1532 195.844 50.8313C189.451 48.6281 183.857 50.1378 178.837 54.6091C177.096 56.1622 175.409 57.7875 173.729 59.42C172.042 61.0597 170.088 62.1866 167.794 62.8078C168.538 62.0782 169.31 61.3775 170.027 60.6191C172.65 57.8742 175.286 55.1509 177.847 52.3554C182.703 47.0606 188.509 45.5653 195.202 47.2845C198.002 47.9996 200.673 49.0543 203.268 50.3545C206.744 52.0954 210.214 53.8579 214.36 54.5297ZM208.868 47.9346C207.256 49.8416 203.971 49.2926 202.523 46.5549C204.805 47.5012 206.737 48.0502 208.868 47.9346ZM176.645 48.5414C177.389 47.5157 178.154 46.4899 178.988 45.5364C181.713 42.4303 185.094 41.3251 189.021 42.0475C193.392 42.8493 197.695 44.2507 202.216 43.5283C202.551 43.4777 203.022 43.4633 203.118 43.8895C203.254 44.4529 202.715 44.5685 202.373 44.7418C200.106 45.8543 197.729 45.8832 195.325 45.4859C194.69 45.3847 194.048 45.2475 193.44 45.038C187.054 42.8132 182.191 45.5653 177.915 50.3112C175.054 53.4895 172.411 56.9062 169.084 59.5861C168.593 59.9834 168.074 60.3446 167.568 60.7202C167.479 60.5902 167.384 60.4529 167.295 60.3229C170.484 56.4656 173.688 52.6082 176.645 48.5414ZM163.996 69.4028C169.822 65.885 174.2 60.5468 179.076 55.8588C183.4 51.7053 188.215 50.7157 193.706 52.1604C198.938 53.5473 203.534 56.4078 208.172 59.1599C212.099 61.5004 216.163 63.5302 220.384 65.2204C220.698 65.3505 221.073 65.3794 221.265 66.0439C217.781 66.4268 214.414 65.9789 211.095 65.1554C207.379 64.238 203.883 62.6128 200.386 61.0669C192.736 57.6719 185.394 58.0981 178.134 62.3455C174.548 64.4403 171.045 66.6724 167.507 68.8539C166.352 69.5618 165.15 70.1396 163.525 70.1252C163.805 69.6846 163.866 69.4823 163.996 69.4028ZM163.743 74.6832C171.919 71.411 180.115 68.1387 189.123 69.7424C193.624 70.5442 197.251 73.1807 200.352 76.5902C204.654 81.3216 208.745 86.2697 213.581 90.4232C215.295 91.8896 217.023 93.3415 218.744 94.8079C215.275 95.5013 212.208 94.8801 209.415 92.9081C205.385 90.062 202.318 86.0819 198.712 82.7374C194.867 79.169 190.919 75.7017 185.783 74.4593C181.228 73.3613 176.7 74.4521 172.192 75.1961C169.535 75.6295 166.906 76.3446 164.187 76.2074C163.696 76.1857 162.992 76.3807 162.842 75.6801C162.726 75.1239 163.327 74.8494 163.743 74.6832ZM192.968 100.392C189.991 102.414 186.685 103.353 183.147 103.397C177.485 103.31 172.943 101.092 169.87 95.8553C168.012 92.6914 166.441 89.383 165.212 85.8941C164.973 85.2006 164.536 84.341 164.911 83.7776C165.383 83.0841 166.216 83.6765 166.871 83.8282C168.142 84.1315 169.412 84.3482 170.703 84.0954C176.481 82.9686 180.941 85.3379 184.294 90.127C186.658 93.5076 189.383 96.2237 193.139 97.7406C194.56 98.3185 194.526 99.337 192.968 100.392ZM199.73 103.021C202.134 105.528 204.654 107.89 208.056 109.89C204.572 109.854 200.953 106.763 199.73 103.021ZM207.632 104.357C203.705 101.446 200.611 97.6323 197.462 93.8833C194.785 90.6833 192.156 87.4327 189.096 84.6227C185.797 81.5961 182.15 79.7758 177.594 80.1225C173.804 80.4114 169.979 80.4909 166.195 79.8625C164.064 79.5157 161.968 79.0245 160.151 77.4932C160.697 76.8864 161.128 76.9514 161.51 77.0453C167.083 78.4756 172.602 77.4137 178.072 76.4819C183.748 75.5211 188.802 76.2146 192.921 80.8449C194.321 82.4196 195.707 84.0087 196.916 85.7713C201.021 91.7307 205.119 97.69 210.637 102.356C213.287 104.603 216.019 106.719 218.901 108.634C219.38 108.951 219.987 109.132 220.472 110.136C215.869 108.439 211.443 107.189 207.632 104.357ZM206.034 92.2652C212.27 98.3618 219.509 102.855 226.954 107.095C220.5 106.979 208.5 98.4918 206.034 92.2652ZM218.082 86.5586C224.741 92.0124 232.274 95.1185 240.634 96.072C233.9 97.8345 222.002 92.807 218.082 86.5586Z" fill="#C29459"/>
<path d="M62.7091 179.872L62.7159 179.864L63.4536 178.896C63.9863 178.463 64.3415 177.849 64.6966 177.264C67.2578 173.038 69.778 168.791 71.9636 164.327C72.5578 163.12 73.2408 161.936 73.5276 160.021C73.0837 160.628 72.9129 160.794 72.8173 160.997C71.0074 164.962 68.7809 168.682 66.7661 172.525C66.124 173.753 65.6323 174.367 64.28 173.45C63.4331 172.879 62.3061 173.067 61.3636 173.385C59.3078 174.086 57.293 174.945 55.2441 175.682C54.3767 175.993 54.7455 176.448 55.0187 176.917C55.8861 178.42 57.6755 179.2 59.4376 178.94C61.1109 178.687 62.5179 177.748 64.0546 176.845L62.2652 179.756C62.033 180.038 61.8486 180.384 61.6232 180.666C60.626 181.858 59.4376 182.703 58.0511 183.267C56.3232 183.975 53.2771 182.913 52.314 181.237C51.3784 179.597 49.9782 179.185 48.38 179.734C45.9964 180.551 43.6674 181.562 41.2975 182.422C40.5667 182.682 40.7511 183.043 41.0106 183.491C42.3083 185.708 43.9611 187.55 46.4404 188.164C48.544 188.684 50.709 188.403 51.9657 186.394C53.3863 184.148 55.5309 184.603 57.3477 183.859C57.4638 184.025 57.573 184.191 57.6892 184.357L52.8809 188.583C52.5667 188.757 52.2662 188.908 51.9794 189.082C47.9361 191.487 43.7426 193.473 39.1597 194.506C37.8825 194.795 37.4727 194.42 37.1722 193.286C36.8239 191.985 37.1654 190.859 37.7459 189.732C38.0465 189.139 38.4153 188.092 37.7118 187.948C36.1136 187.608 36.5575 186.582 36.6873 185.593C36.8307 184.524 36.2638 183.7 35.895 182.797C35.4989 181.8 35.0003 181.533 34.2627 182.422C33.088 183.83 32.3435 183.729 31.6742 181.873C31.319 180.876 30.3902 180.233 29.2291 180.63C28.068 181.02 27.9792 182.053 28.1841 183.057C28.4642 184.386 27.8973 184.509 26.8796 184.386C25.6981 184.242 24.5301 184.343 23.5876 185.268C23.2803 185.564 22.9866 185.925 23.1164 186.402C23.2598 186.922 23.7174 186.9 24.134 186.9C26.0805 186.893 27.7334 187.781 28.9286 189.255C30.8 191.552 32.3708 194.131 35.8131 194.434C35.1369 195.279 34.6998 195.185 34.3173 195.207C26.0873 195.568 19.1482 192.217 12.9399 186.821C12.5437 186.481 12.1544 186.026 11.9632 185.535C11.8334 185.21 11.6695 184.979 11.4509 184.827H11.4441V184.82C11.2529 184.531 6.51294 177.206 12.2978 171.305L12.3047 171.297C13.1174 171.045 13.9916 171.16 14.8659 170.51C15.6991 169.889 17.5773 170.062 18.4789 171.088C19.2575 171.984 20.1112 172.265 21.0674 172.561C20.9581 172.366 20.7737 172.15 20.7942 171.976C20.9854 170.568 20.5757 169.867 19.1141 170.199C17.8437 170.488 17.6661 168.422 16.3889 168.74C16.1157 168.805 15.8835 169.029 15.6445 169.203C15.303 169.455 14.9205 169.672 14.5107 169.564C13.0833 169.166 12.5369 170.04 12.1066 171.088L12.0998 171.081C12.0998 171.081 10.8499 171.355 9.76395 172.988C9.682 173.103 9.60004 173.233 9.52492 173.363C9.51809 173.37 9.51126 173.385 9.50443 173.392C8.59605 174.952 7.12079 177.632 8.11795 181.417C8.57555 183.158 9.56589 184.697 10.8909 185.838C11.3007 186.199 11.7036 186.546 12.1612 186.943C11.5875 186.943 11.369 186.958 11.1504 186.936C10.9387 186.922 10.7611 186.618 10.4401 186.929C22.0646 196.775 34.5564 199.382 48.4005 192.26C44.5758 194.586 43.1757 198.407 42.2195 202.524C42.0146 203.427 41.7073 204.301 41.4341 205.183C40.7647 207.357 39.3919 208.852 37.5274 209.979C36.0316 210.882 34.3652 211.077 32.5757 211.489C35.2257 213.49 38.4494 214.234 41.4546 213.533C42.3356 213.324 42.8274 213.28 43.1279 214.385C43.5377 215.845 44.2821 217.369 45.9145 217.289C47.499 217.21 48.4074 215.808 48.9674 214.299C49.1587 213.786 49.2201 213.222 49.3567 212.688C49.5753 211.799 48.906 210.463 49.5684 210.087C50.3539 209.647 51.1735 210.817 52.0204 211.193C54.0147 212.088 55.0938 211.438 55.2577 209.206C55.4011 207.184 55.1211 205.248 54.1581 203.464C53.68 202.575 53.4342 201.867 54.5611 201.203C55.7222 200.524 55.4968 199.447 54.7865 198.523C54.3084 197.909 53.6664 197.439 53.12 196.876C50.8729 194.514 50.6885 192.296 52.478 189.587C52.5326 189.508 52.6077 189.436 52.6829 189.363L58.2765 185.296C57.8667 186.452 57.5047 187.399 57.1974 188.366C56.5076 190.562 55.9749 192.794 57.0471 195.034C57.9692 196.962 58.9322 198.869 59.902 200.776C60.4348 201.824 61.2475 202.344 62.3676 201.896C63.2077 201.557 63.8224 201.911 64.478 202.366C66.288 203.615 67.1417 203.42 68.6374 201.441C68.4325 201.369 68.173 201.34 68.0432 201.188C67.0666 200.054 66.0353 199.512 64.7103 200.617C64.4302 200.849 63.9658 200.885 63.7814 200.495C63.0779 198.999 61.8964 198.653 60.4416 198.718C59.902 198.739 59.5127 198.255 59.1985 197.786C58.2902 196.413 57.5252 194.976 57.3272 193.264C56.8627 189.204 58.3107 185.788 60.5031 182.617C61.1724 181.641 62.0944 180.883 62.7091 179.872ZM46.7614 204.388C45.7915 204.778 45.2315 204.59 44.7739 203.63C44.0704 202.142 44.0977 200.639 44.6509 199.129C45.4364 196.991 46.8228 195.337 48.4757 193.892C49.3704 193.12 49.7733 193.329 49.8212 194.55C49.869 195.662 49.9919 196.775 50.0875 197.887C50.0738 200.69 49.6982 203.225 46.7614 204.388Z" fill="#C3955A"/>
<path d="M85.0633 136.899C79.8726 148.196 74.8048 159.638 64.0888 166.573C59.9703 169.238 55.6129 170.994 50.7022 170.95C48.5303 170.929 46.3516 171.088 44.4461 172.388C43.4489 173.067 43.1757 172.467 43.1552 171.601C43.1074 169.441 44.1455 167.873 45.6754 166.551C46.4814 165.858 47.9293 165.627 48.0317 164.529C48.1342 163.452 46.8228 162.831 46.1808 161.972C44.5348 159.747 45.0198 158.107 47.5878 157.255C49.9851 156.46 52.4507 156.388 54.8958 156.655C67.0734 157.977 75.6722 152.032 82.1469 141.739C83.1509 140.142 84.0935 138.51 85.0633 136.899ZM71.0211 156.308C70.6455 156.207 70.4747 156.489 70.2903 156.691C67.5174 159.653 63.959 160.765 60.2231 161.408C59.0825 161.603 58.0102 161.415 57.2452 160.317C57.0062 159.978 56.8286 159.183 56.2481 159.631C55.7085 160.05 55.5719 160.765 55.9681 161.459C56.6852 162.73 57.8394 162.882 59.0415 162.672C60.8104 162.362 62.5657 161.936 64.3278 161.56C61.91 163.257 59.3557 164.42 56.4461 164.233C55.3055 164.16 54.1035 164.211 53.4137 162.838C53.0244 162.066 52.6078 162.557 52.5053 163.099C52.3004 164.153 52.7785 164.919 53.68 165.331C54.4996 165.706 55.3807 165.771 56.2686 165.648C61.8964 164.839 66.5475 162.102 70.3586 157.695C70.6796 157.313 71.1577 156.966 71.0211 156.308Z" fill="#C3955A"/>
<path d="M83.7178 145.264C82.707 153.672 82.8026 161.857 79.934 169.542C78.37 173.739 76.2869 177.575 72.9744 180.529C71.1918 182.118 69.1838 183.209 66.8753 183.606C66.1377 183.729 65.2498 183.895 64.8878 182.949C64.5805 182.162 65.0449 181.403 65.6459 181.028C68.7262 179.106 69.6073 175.812 70.4747 172.518C72.749 163.915 76.4235 155.998 81.0405 148.551C81.703 147.482 82.345 146.377 83.7178 145.264Z" fill="#C3955A"/>
<path d="M68.6784 201.456C68.6648 201.449 68.6511 201.449 68.6375 201.442C68.6375 201.434 68.6443 201.427 68.6511 201.419L68.6784 201.456Z" fill="#C3955A"/>
<path d="M90.773 140.619C91.7361 141.233 91.8385 142.353 92.1595 143.299C92.7674 145.076 93.5391 146.723 95.0007 147.886C97.5756 149.923 100.827 149.143 103.224 145.813C104.16 144.513 104.884 143.032 105.737 141.587C107.711 145.004 107.144 148.796 104.351 151.382C101.571 153.961 96.9677 154.134 94.106 151.765C91.3604 149.49 89.4617 143.22 90.773 140.619Z" fill="#C3955A"/>
<path d="M98.8801 158.527C96.8926 159.068 95.3354 159.256 93.7645 159.018C91.0052 158.606 89.0587 155.023 90.1515 152.408C90.4588 151.664 90.8277 150.87 91.7087 150.841C92.5078 150.812 92.9654 151.513 93.2386 152.184C94.3382 154.908 95.7725 157.291 98.8801 158.527Z" fill="#C3955A"/>
<path d="M68.6784 201.455C69.7575 200.552 70.2971 198.978 72.066 198.906C72.6671 198.877 73.0154 197.764 72.7012 196.854C72.2573 195.561 72.7012 194.803 73.9238 194.282C75.1463 193.762 75.1258 192.91 73.9306 192.115C73.4935 191.826 73.0222 191.4 73.1588 191.003C73.6984 189.428 72.749 188.54 71.9089 187.507C73.1178 188.121 74.1013 189.045 75.4058 189.414C76.2254 189.645 76.3347 190.57 75.8976 191.263C75.0302 192.614 75.2692 193.741 76.1503 194.969C77.0587 196.24 76.806 197.129 75.3034 197.605C73.7462 198.104 72.4826 198.617 72.3734 200.675C72.3324 201.398 71.5333 201.795 70.8571 201.441C70.0854 201.036 69.3887 201.419 68.6648 201.412C68.6443 201.412 68.6784 201.455 68.6784 201.455Z" fill="#C3955A"/>
<path d="M21.122 172.576L21.1084 172.584L21.0879 172.598C21.081 172.584 21.0742 172.576 21.0674 172.562C21.0879 172.562 21.1015 172.569 21.122 172.576Z" fill="#C3955A"/>
<path d="M21.0879 172.598C22.7612 174.303 21.7367 176.238 21.5045 178.102C21.4772 178.333 21.3952 178.673 21.245 178.752C19.6195 179.54 18.0349 180.558 16.1294 180.168C15.7469 180.089 15.3713 179.85 15.2825 179.243C16.0543 178.817 16.7987 178.427 17.5978 179.287C18.0827 179.807 18.6974 179.785 19.1755 179.316C20.0498 178.449 19.7424 176.665 21.2586 176.267C21.1903 176.043 21.1835 175.74 21.0401 175.61C19.9063 174.563 20.4459 173.58 21.1084 172.576C21.1152 172.576 21.0879 172.598 21.0879 172.598Z" fill="#C3955A"/>
<path d="M80.8766 102.653C81.0405 102.443 81.1429 102.205 81.3205 102.104C85.2409 99.8788 87.5152 96.0142 90.0423 92.4025C92.0434 89.542 95.0622 88.0467 98.5318 88.184C98.6821 88.639 98.3269 88.6607 98.081 88.733C96.3121 89.2386 95.1988 90.5244 94.3997 92.1858C93.3616 94.3384 92.1664 96.3826 90.8209 98.3258C88.4168 101.779 84.3188 103.577 80.8766 102.653Z" fill="#C3955A"/>
<path d="M170.744 88.8123C172.656 87.6421 174.391 88.1477 176.071 88.9062C177.362 89.4913 178.557 90.2859 179.63 91.2466C182.512 93.8471 185.421 96.3897 189.096 97.9356C186.944 99.243 183.127 98.853 180.511 97.1699C178.803 96.0719 177.328 94.6706 175.914 93.1825C175.129 92.3518 174.357 91.4994 173.496 90.7626C172.684 90.0836 171.762 89.5274 170.744 88.8123Z" fill="#C3955A"/>
<path d="M84.3598 164.515C84.5784 168.069 84.8174 171.63 85.0018 175.184C85.3296 181.381 86.8937 187.139 90.3906 192.202C95.2944 199.303 102.042 202.655 110.252 203.066C115.852 203.348 121.344 202.467 126.855 201.636C127.579 201.528 128.617 201.029 128.986 201.723C129.389 202.474 128.358 203.038 127.887 203.594C118.639 214.487 107.834 216.444 94.7071 210.716C89.6939 208.527 86.8732 203.984 84.9062 198.855C81.662 190.389 81.5596 181.598 82.7206 172.706C83.0894 169.968 83.4241 167.202 84.3598 164.515Z" fill="#C3955A"/>
<path d="M90.1925 34.0582C90.0832 32.6785 90.6706 31.6817 91.6131 30.8871C92.8493 29.8397 94.3382 29.5797 95.8613 29.4785C96.8243 29.4135 97.7941 29.3918 98.7571 29.3341C100.239 29.2402 101.646 28.8934 102.903 27.9038C102.63 28.7345 102.104 29.4424 101.175 30.107C100.103 30.8727 98.9757 31.5661 97.8966 32.3246C96.756 33.1264 95.8135 34.1232 95.349 35.5318C95.1578 36.1025 95.0622 36.6948 95.1646 37.2943C95.2397 37.735 95.0827 37.8072 94.7138 37.7711C93.8738 37.6844 93.1361 37.0126 92.863 36.0447C92.5966 35.1056 92.74 34.2027 93.1293 33.3575C93.4367 32.693 93.1635 32.5846 92.6239 32.5919C91.7565 32.5919 91.2443 32.888 90.1925 34.0582Z" fill="#C29459"/>
<path d="M16.6485 210.326C15.904 207.35 17.1539 204.46 19.9131 202.604C22.727 200.704 25.862 200.169 29.113 199.917C34.7886 199.483 40.6418 198.624 44.9924 194.73C45.4227 194.347 45.8393 193.95 46.256 193.553C46.3925 193.827 46.5496 194.087 46.6999 194.355C45.2178 195.597 43.5718 196.659 41.7073 197.475C38.825 198.739 35.7653 199.31 32.7738 200.169C29.0857 201.224 25.5205 202.604 22.4402 205.089C21.2313 206.064 20.118 207.263 20.6781 208.989C21.2586 210.781 22.891 211.265 24.5028 211.467C25.8278 211.633 27.5011 210.412 27.5762 209.264C27.6514 208.216 27.4055 207.183 26.2717 206.945C24.817 206.642 23.8676 207.371 23.5261 209.083C22.6656 208.166 22.6587 207.234 23.3486 206.541C24.5848 205.284 26.1693 205.053 27.7675 205.558C29.393 206.071 30.397 207.653 30.356 209.322C30.2672 213.172 27.2552 215.794 23.1573 215.592C20.0497 215.454 17.3929 213.295 16.6485 210.326Z" fill="#C3955A"/>
<path d="M17.3793 197.786C13.3496 196.652 9.39513 195.33 6.32169 192.108C5.98703 191.762 5.65236 191.415 5.34501 191.046C3.35752 188.612 3.70585 186.878 6.43097 185.614C4.73033 185.398 3.2619 186.915 3.2619 188.901C3.2619 189.847 3.48046 190.786 3.94489 191.567C6.62903 196.074 10.2011 199.252 15.4532 199.635C17.2836 199.772 19.1345 199.794 21.3747 199.31C19.9746 198.739 18.9638 198.328 17.9598 197.916C17.7686 197.873 17.5773 197.829 17.3793 197.786Z" fill="#C3955A"/>
<path d="M17.3793 197.786C17.5773 197.829 17.7686 197.872 17.9598 197.908C19.558 198.075 21.122 198.609 22.85 198.262C21.1493 197.381 19.4419 196.507 17.7412 195.626C15.7333 194.6 13.7662 193.502 12.2295 191.74C10.6245 189.898 10.884 187.962 12.8579 186.835C9.96883 186.582 8.5414 188.597 9.73662 191.306C10.6655 193.423 12.3593 194.745 14.1965 195.886C15.2415 196.543 16.3138 197.157 17.3793 197.786Z" fill="#C3955A"/>
<path d="M12.4959 201.022C8.83508 200.553 5.85725 198.422 2.72234 196.666C1.94374 196.233 0.871448 195.214 0.23627 196.139C-0.508186 197.223 0.680216 198.118 1.40418 198.884C4.62105 202.293 8.46626 202.156 12.4959 201.022Z" fill="#C3955A"/>
<path d="M13.3564 210.572C11.8129 208.412 11.7992 207.791 13.2335 205.963C14.7224 204.063 16.4709 202.452 18.3286 200.863C15.3371 200.668 11.7036 202.77 11.0684 205.009C10.4674 207.169 11.2324 209.279 13.3564 210.572Z" fill="#C3955A"/>
</svg>
