<svg width="246" height="249" viewBox="0 0 246 249" fill="none" xmlns="http://www.w3.org/2000/svg">
<path d="M122.624 1.76774L36.4751 87.917L71.9484 123.39L36.4751 158.863L124.314 246.702" stroke="#C3955A" stroke-width="5"/>
<path d="M77.0159 199.404L87.1511 189.269" stroke="#C3955A" stroke-width="5"/>
<path d="M83.7728 206.161L93.908 196.026" stroke="#C3955A" stroke-width="5"/>
<path d="M95.5972 217.986L105.732 207.85L56.7455 158.864V87.917L104.043 40.6194L95.5972 32.1734" stroke="#C3955A" stroke-width="5"/>
<path d="M83.7729 43.9977L92.2189 52.4437" stroke="#C3955A" stroke-width="5"/>
<path d="M77.0159 50.7546L85.4619 59.2006" stroke="#C3955A" stroke-width="5"/>
<path d="M56.7454 158.863L90.5294 125.079L56.7454 91.2954" stroke="#C3955A" stroke-width="5"/>
<path d="M66.8806 168.999L85.4618 130.147" stroke="#C3955A" stroke-width="5"/>
<path d="M77.0158 179.134L90.5295 125.079" stroke="#C3955A" stroke-width="5"/>
<path d="M55.0562 126.769L38.1642 143.661L17.8938 123.39L36.475 104.809L56.7454 125.08" stroke="#C3955A" stroke-width="5"/>
<path d="M30.043 110.202L23.8059 103.965L3.53552 124.235L23.8059 144.505L31.177 137.134" stroke="#C3955A" stroke-width="5"/>
<path d="M65.1915 79.471L87.1511 121.701" stroke="#C3955A" stroke-width="5"/>
<path d="M73.6375 71.025L90.5295 125.079" stroke="#C3955A" stroke-width="5"/>
</svg>
