<svg width="80" height="80" viewBox="0 0 80 80" fill="none" xmlns="http://www.w3.org/2000/svg">
<path d="M40 0C62.0914 0 80 17.9086 80 40C80 62.0914 62.0914 80 40 80C17.9086 80 0 62.0914 0 40C0 17.9086 17.9086 0 40 0ZM59.9141 26.1787C59.6224 23.7255 56.6477 24.2648 54.9922 24.8164C46.4837 28.054 38.0601 31.5314 29.6699 35.0703C24.7929 37.231 19.5725 39.3814 14.8965 41.957C12.6187 43.625 16.4906 44.7273 19.1328 45.8213C22.0798 46.7269 25.5165 48.1142 28.4648 46.4912C34.2368 43.1756 39.5771 39.1721 45.0518 35.3994C46.0481 34.7619 49.0692 32.6817 48.0469 35.1504C44.2569 39.295 40.0156 42.643 36.0166 46.584C34.6143 47.7233 33.1583 50.0149 34.7285 51.6104C39.5218 54.9659 44.4143 58.2137 49.2695 61.4932C51.2897 63.1061 54.4471 61.8016 54.8916 59.2812C56.1808 51.7142 57.5027 44.1477 58.6465 36.5557C59.0971 33.1034 59.7543 29.6513 59.9141 26.1787Z" fill="#C3955A"/>
</svg>
