<svg width="81" height="81" viewBox="0 0 81 81" fill="none" xmlns="http://www.w3.org/2000/svg">
<path d="M52.2793 0C74.6927 2.59485e-05 80 5.30721 80 27.7207V52.2793C80 74.6927 74.6927 80 52.2793 80H27.7197C5.30661 79.9999 1.31047e-05 74.6926 0 52.2793V27.7207C0 5.30732 5.30658 7.5915e-05 27.7197 0H52.2793ZM15.4121 25.3486C13.7188 25.3488 13.4365 26.1395 13.4365 26.9863C13.4365 28.5107 15.4121 36.1892 22.6387 46.3516C27.4375 53.2957 34.2691 57.0214 40.4229 57.0215C44.1487 57.0215 44.6005 56.1749 44.6006 54.7637V49.5127C44.6006 47.8192 44.9397 47.5372 46.125 47.5371C46.9719 47.5371 48.4966 47.9884 51.9404 51.3193C55.8923 55.2712 56.5699 57.078 58.7715 57.0781H64.5869C66.2806 57.0781 67.0708 56.231 66.6191 54.5938C66.1109 52.9565 64.1919 50.5853 61.708 47.7627C60.3531 46.182 58.3204 44.4319 57.6992 43.585C56.8524 42.4558 57.0782 42.0035 57.6992 40.9873C57.6971 40.9114 64.7591 30.9253 65.4902 27.5508C65.8853 26.3088 65.4902 25.4053 63.7402 25.4053H57.9248C56.457 25.4053 55.78 26.1961 55.3848 27.043C55.3848 27.043 52.3917 34.2691 48.2139 38.9551C46.859 40.31 46.2378 40.7617 45.5039 40.7617C45.1088 40.7614 44.6006 40.3099 44.6006 39.0684V27.4941C44.6005 26.0265 44.1492 25.3486 42.9072 25.3486H33.7607C32.8577 25.3489 32.293 26.0267 32.293 26.7041C32.293 28.1155 34.3826 28.4543 34.6084 32.4062V40.9873C34.6084 42.8504 34.2691 43.1895 33.5352 43.1895C31.559 43.1889 26.7601 35.9064 23.8809 27.6074C23.3163 25.9702 22.752 25.3486 21.2842 25.3486H15.4121Z" fill="#C3955A"/>
</svg>
