<svg width="80" height="80" viewBox="0 0 80 80" fill="none" xmlns="http://www.w3.org/2000/svg">
<path d="M40 0C62.0914 5.15408e-07 80 17.9086 80 40C80 62.0914 62.0914 80 40 80C17.9086 80 5.15475e-07 62.0914 0 40C0 17.9086 17.9086 0 40 0ZM41.3184 14.667C28.2082 14.667 17.5385 25.336 17.5332 38.4502C17.5314 42.6423 18.6265 46.7346 20.708 50.3418L17.333 62.667L29.9424 59.3594C33.4164 61.2542 37.3279 62.2525 41.3086 62.2539H41.3184C54.4324 62.2486 65.0983 51.58 65.1035 38.4688C65.1059 32.1136 62.6341 26.1382 58.1436 21.6426C53.6529 17.1467 47.6811 14.6698 41.3184 14.667Z" fill="#C3955A"/>
<path d="M41.3259 18.6841C46.6063 18.6859 51.57 20.7451 55.3025 24.4819C59.035 28.2188 61.0897 33.1858 61.0876 38.4683C61.0831 49.3688 52.2142 58.2368 41.3181 58.2368H41.3103C37.7631 58.2354 34.2839 57.2829 31.2488 55.4819L30.5261 55.0532L23.0437 57.0161L25.0408 49.7212L24.571 48.9731C22.5921 45.8256 21.5471 42.1872 21.5486 38.4517C21.553 27.5519 30.4214 18.6842 41.3259 18.6841ZM32.8972 27.4663C32.501 27.4663 31.8569 27.6155 31.3123 28.2104C30.7672 28.8057 29.2322 30.2439 29.2322 33.1685C29.2324 36.0933 31.3614 38.9188 31.6589 39.3159C31.9561 39.7127 35.8504 45.7152 41.8123 48.2896C43.2301 48.9018 44.3368 49.2677 45.2 49.5415C46.6236 49.994 47.9193 49.93 48.9431 49.7769C50.085 49.6063 52.4593 48.3398 52.9548 46.9517C53.4496 45.5637 53.4499 44.3739 53.3015 44.1255C53.153 43.8776 52.7562 43.7287 52.1619 43.4312C51.567 43.1334 48.6465 41.6963 48.1013 41.4976C47.5568 41.2994 47.1604 41.2002 46.7644 41.7944C46.3683 42.3893 45.2293 43.7288 44.8826 44.1255C44.5359 44.522 44.1886 44.5715 43.5945 44.2739C42.9999 43.9764 41.085 43.3483 38.8152 41.3237C37.049 39.7482 35.8565 37.803 35.5095 37.2075C35.163 36.6128 35.4719 36.2909 35.7693 35.9946C36.0367 35.7283 36.3638 35.2996 36.6609 34.9526C36.958 34.6057 37.0575 34.3578 37.2556 33.9614C37.4536 33.5647 37.3544 33.2179 37.2058 32.9204C37.0572 32.6228 35.869 29.6973 35.3738 28.5073C34.8915 27.3491 34.4016 27.5059 34.0369 27.4878C33.6906 27.4704 33.2934 27.4663 32.8972 27.4663Z" fill="#C3955A"/>
</svg>
