<svg width="1255" height="788" viewBox="0 0 1255 788" fill="none" xmlns="http://www.w3.org/2000/svg">
<path d="M1244.58 57.1182L1219.06 86.4727C1216.76 89.1113 1215.5 92.4906 1215.5 95.9873V782.226C1215.5 782.471 1215.28 783.249 1213.69 784.111C1212.2 784.922 1209.97 785.5 1207.36 785.5H10.6377C8.03427 785.5 5.80119 784.922 4.30859 784.111C2.71919 783.249 2.50011 782.471 2.5 782.226V40.0342C2.66264 40.0264 2.83509 40.0166 3.01758 40.0088C4.90791 39.9275 7.73625 39.8506 11.458 39.7783C18.8954 39.6338 29.8318 39.5092 43.8115 39.4023C71.7678 39.1886 111.861 39.0462 160.401 38.9609C257.481 38.7905 388.33 38.8466 523.405 39.0068C793.554 39.3272 1080.6 40.0638 1148.18 40.2373L1158.58 40.2646H1158.58C1162 40.2732 1165.07 39.0688 1167.61 36.9531L1168.11 36.5176L1197.42 9.9502L1244.58 57.1182Z" fill="#122436" stroke="#C3955A" stroke-width="5"/>
<rect x="1142.54" y="57.9827" width="77" height="77" rx="9.5" transform="rotate(-45 1142.54 57.9827)" fill="#122436" stroke="#C3955A" stroke-width="5"/>
<path d="M79.1529 169.301C79.12 169.318 79.0871 169.345 79.0597 169.367C78.7744 169.608 78.4946 169.844 78.2094 170.086C77.1287 170.996 76.0645 171.814 74.8466 172.56C73.6508 173.289 72.3945 173.937 71.089 174.452C68.4887 175.473 65.6965 175.911 62.9153 175.626C61.2312 175.451 59.6239 174.979 57.9836 174.6C57.7094 174.535 57.4186 174.474 57.1498 174.567C57.1114 174.578 57.073 174.595 57.0456 174.628C56.9853 174.694 57.0017 174.792 57.0182 174.875C57.2266 175.719 58.0495 176.334 58.5432 177.025C59.6348 178.55 60.5619 180.234 60.9733 182.077C61.1763 182.993 61.2367 183.915 61.1873 184.853C61.1324 185.808 61.1818 186.746 61.0337 187.717C60.8911 188.688 60.7429 189.67 60.3699 190.58C59.7446 192.127 58.5322 193.34 57.8575 194.859C57.5667 195.517 57.671 195.912 58.4499 195.753C59.2783 195.583 60.1121 195.21 60.8636 194.826C62.3996 194.031 63.7601 192.901 64.8078 191.524C65.0328 191.228 65.2467 190.915 65.4497 190.602C65.8062 190.059 66.1409 189.5 66.4535 188.934C66.7223 188.446 66.9143 187.848 67.3642 187.492C67.7372 187.201 68.2529 187.152 68.7137 187.256C69.1744 187.36 69.5914 187.591 70.0028 187.821C70.491 188.095 70.9847 188.369 71.4729 188.644C72.2574 189.083 73.0419 189.516 73.766 190.048C74.15 190.328 75.5324 191.793 75.6037 190.586C75.675 189.384 74.9893 188.013 74.5449 186.938C74.3749 186.521 74.1993 186.104 73.9909 185.703C73.3765 184.54 72.3287 183.449 71.2755 182.681C70.6885 182.253 70.0412 181.759 69.3884 181.458C68.6917 181.134 68.0718 180.876 67.5233 180.311C69.3829 180.443 71.2755 179.998 72.9157 179.115C74.8357 178.084 76.4923 176.433 77.584 174.551C77.8254 174.134 77.9845 173.673 78.1435 173.218C78.5989 171.907 79.1145 170.706 79.3559 169.329C79.301 169.246 79.2242 169.263 79.1529 169.301Z" fill="#C3955A"/>
<path d="M121.93 172.22C120.268 171.408 118.842 170.289 117.471 169.065C114.256 166.207 112.649 162.362 110.97 158.571C109.483 155.214 107.393 152.493 104.255 150.408C104.042 150.266 103.828 150.129 103.608 150.003C100.657 148.225 97.2832 147.474 93.8711 147.347C93.0208 147.315 92.165 147.32 91.3148 147.342C90.448 147.375 89.6252 147.485 88.7584 147.49C88.6432 148.911 88.742 150.337 88.8407 151.758C88.8901 152.493 88.9394 153.234 88.9943 153.969C89.0821 155.269 89.1698 156.569 89.3234 157.864C89.5319 159.619 89.8556 161.363 90.2944 163.075C90.662 164.501 91.0679 166.01 91.984 167.195C93.0153 168.528 93.8272 169.916 95.067 171.09C102.741 178.402 113.993 177.305 122.018 173.991C123.241 173.498 122.94 172.713 121.93 172.22Z" fill="#C3955A"/>
<path d="M88.0343 153.974C87.8259 152.499 87.6393 151.045 87.5735 149.553C87.5406 148.796 87.5241 148.05 87.387 147.304C87.2828 146.75 87.1566 146.195 87.0908 145.636C82.2195 130.029 73.2723 116.885 62.301 104.971C61.9005 104.537 61.33 104.192 61.0667 103.627C60.5565 103.319 60.1561 102.76 59.7227 102.398C58.9053 101.712 58.1373 100.971 57.2596 100.368C56.5026 99.8414 55.7017 99.3587 55.0269 98.7224C54.5881 98.3055 54.1657 97.7953 53.8146 97.2577C53.7597 97.2303 53.6994 97.2083 53.6555 97.1699C53.6775 97.2632 53.6884 97.3564 53.7104 97.4442C53.9627 98.6017 54.1876 99.7537 54.3467 100.928C54.5991 102.859 54.6375 105.097 55.8608 106.721C55.8662 106.726 55.8662 106.726 55.8662 106.731C56.0747 106.803 56.2667 106.989 56.4916 107.214C57.2322 107.944 58.1373 108.503 58.9327 109.167C59.7501 109.847 60.5181 110.582 61.2367 111.372C62.3613 112.607 63.3213 113.945 64.4239 115.207C67.249 118.427 69.8438 121.85 72.1368 125.465C73.009 126.847 73.8428 128.252 74.6273 129.689C75.4117 131.132 76.0865 132.624 76.9752 134.006C77.3976 134.665 78.8184 138.653 78.9994 139.152C79.3944 140.227 79.7674 141.313 80.1185 142.41C80.8151 144.599 81.4131 146.815 81.9068 149.059C82.0659 149.783 82.214 150.502 82.3511 151.231C84.6826 163.475 84.1011 175.522 79.3944 187.08C75.3459 197.026 68.7137 204.525 57.2816 205.852C50.9127 206.587 44.6919 206.11 39.2336 201.892C32.7002 196.845 28.169 188.913 30.6101 179.949C32.1406 174.337 34.324 171.967 39.4366 171.567C44.2695 171.188 48.6197 172.883 52.2402 176.071C52.9534 176.696 53.5568 177.442 54.0231 178.27C54.9008 179.834 55.6304 182.253 54.8294 183.992C54.0724 185.627 53.2002 187.289 51.4667 188.068C50.0514 188.704 48.2027 188.929 46.6667 189.088C45.4215 189.22 43.5838 189.028 42.931 187.755C44.7687 187.552 46.579 187.042 48.2521 186.257C48.8007 186 49.3438 185.709 49.7497 185.265C50.0734 184.913 50.3038 184.486 50.4793 184.041C50.8907 183.015 51.3241 181.189 50.8084 180.124C49.8539 178.166 47.4018 176.685 45.4215 176.032C43.2876 175.324 40.7916 175.281 38.8332 176.515C38.1036 176.976 37.555 177.601 37.0887 178.32C33.5834 183.701 35.7831 192.155 41.5815 195.578C43.9459 196.977 46.7106 197.607 49.448 197.393C50.8523 197.284 52.2402 196.96 53.5568 196.455C54.7252 196.011 55.762 195.303 56.7824 194.585C57.309 194.217 57.682 193.674 58.0386 193.137C58.461 192.495 58.8669 191.836 59.2783 191.184C59.5362 190.772 59.794 190.361 59.9695 189.905C60.2987 189.077 60.2932 188.337 60.2548 187.486C60.2054 186.389 60.2493 185.303 60.0957 184.206C59.4978 180.042 57.1938 176.647 54.4784 173.564C53.5403 172.499 52.6955 171.534 51.5326 170.722C50.4683 169.981 49.3383 169.334 48.1643 168.791C45.7781 167.688 43.2053 167.008 40.5886 166.75C39.0965 166.602 37.5989 166.591 36.1068 166.69C34.7683 166.778 33.523 167.123 32.1955 167.156C32.1626 167.156 32.1242 167.156 32.0913 167.14C32.02 167.09 32.0529 166.981 32.1022 166.904C32.6234 166.054 33.3804 165.379 34.0222 164.616C34.4062 164.161 34.7463 163.673 35.0865 163.19C35.6954 162.318 36.3153 161.44 36.6773 160.436C36.9187 159.762 37.0394 159.048 37.1326 158.341C37.2533 157.436 37.555 156.108 37.0174 155.291C36.5731 154.605 35.7447 154.501 34.9932 154.578C33.3036 154.742 31.6524 155.269 30.2207 156.19C28.564 157.26 27.412 158.856 26.1503 160.332C26.0131 160.491 25.7608 160.656 25.6237 160.502C25.5798 160.453 25.5688 160.392 25.5523 160.332C25.3933 159.592 25.311 158.835 25.1958 158.083C24.9928 156.744 24.6856 155.417 24.2906 154.117C23.9176 152.904 23.5336 151.55 22.7876 150.518C21.5094 148.752 20.0228 147.194 18.2564 145.905C15.6836 144.023 12.7158 142.75 9.66579 141.884C9.20499 141.752 8.62351 141.461 8.29986 141.95C7.94329 142.482 8.52477 142.844 8.84842 143.167C10.6422 144.967 12.2441 146.92 13.6703 149.021C19.5181 157.683 22.3706 167.365 23.38 177.661C24.2138 186.181 26.3752 194.267 31.241 201.425C35.2565 207.333 40.7532 211.404 47.8846 212.265C59.4319 213.658 69.2349 209.451 77.2385 201.299C84.337 194.075 87.0798 185.215 88.9998 175.401C89.4057 173.333 89.4661 169.658 89.3948 168.616C89.1479 163.706 88.731 158.845 88.0343 153.974Z" fill="#C3955A"/>
<path d="M108.523 87.6687C107.909 87.5097 106.4 87.1257 105.912 87.6523C102.286 91.58 97.2667 94.3832 92.4667 96.6104C83.3221 100.851 73.8154 102.069 63.9082 100.061C60.7375 99.4191 57.8356 97.8447 54.6045 97.4223C54.8568 97.7514 55.1366 98.0696 55.4219 98.3384C56.0856 98.9692 56.8865 99.4355 57.6326 99.9567C58.2141 100.363 58.7023 100.884 59.2564 101.301C59.8653 101.756 60.8362 101.91 61.3738 102.442C62.0979 102.831 62.8275 103.286 63.5955 103.588C64.2922 103.862 64.9944 103.928 65.7295 104.038C66.8101 104.197 67.836 104.587 68.8782 104.899C69.9918 105.234 71.0231 105.278 72.1587 105.333C73.382 105.393 74.6108 105.377 75.8396 105.294C81.1826 104.954 86.3831 103.424 91.2434 101.213C96.9375 98.6236 102.396 95.4474 107.185 91.4045C107.969 90.7462 108.688 90.0111 109.456 89.3474C109.769 89.0731 110.092 88.6068 109.823 88.2667C109.577 87.9595 108.885 87.762 108.523 87.6687Z" fill="#C3955A"/>
<path d="M113.334 79.8681C114.004 80.0601 114.684 80.2301 115.364 80.3837C116.181 80.5702 117.004 80.7238 117.833 80.8555C118.162 80.9049 121.903 77.0045 121.689 76.9168C120.987 76.6205 120.263 76.3737 119.522 76.1872C118.167 75.8416 116.779 75.7593 115.402 75.9952C114.333 77.3501 113.444 78.5076 112.522 79.6267C112.791 79.7145 113.066 79.7913 113.334 79.8681Z" fill="#C3955A"/>
<path d="M123.856 72.9067C124.24 72.3252 124.613 71.7876 125.106 71.272C126.379 69.9335 127.553 68.5017 128.952 67.2839C130.378 66.0441 131.931 64.947 133.329 63.6743C134.487 62.6211 135.557 61.4197 136.939 60.6462C138.294 59.8892 139.539 58.9566 140.872 58.1228C143.643 56.3893 146.588 54.9191 149.682 53.8604C152.946 52.7468 156.364 52.116 159.809 52.0117C163.095 51.913 163.012 51.9678 163.073 48.6929C163.1 47.1898 162.65 46.8113 161.164 46.7564C156.638 46.5864 152.568 48.1882 148.58 49.9162C137.274 54.8259 128.228 62.8405 119.741 71.5298C119.44 71.837 119.165 72.0619 118.891 72.2265C119.335 72.3801 119.791 72.5008 120.257 72.6489C121.014 72.8903 121.716 73.2633 122.451 73.5485C123.06 73.7844 123.477 73.4772 123.806 72.978C123.828 72.9451 123.839 72.9287 123.856 72.9067Z" fill="#C3955A"/>
<path d="M182.393 59.3571C179.892 57.1683 176.897 55.9669 173.682 55.3525C166.194 53.9207 158.953 55.4567 151.898 57.7114C146.473 59.4448 141.454 62.2206 136.44 64.936C132.863 66.8725 129.462 68.9735 126.171 71.3488C125.825 71.6011 123.998 73.384 124.212 73.8557C124.218 73.8722 124.218 73.8886 124.223 73.9106C124.284 73.9984 124.267 74.0971 124.201 74.1739C124.591 74.2672 124.986 74.3275 125.381 74.4043C125.776 74.4811 126.154 74.6347 126.544 74.7115C127.037 74.8157 127.114 74.6841 127.547 74.3494C128.294 73.7734 129.04 73.1975 129.791 72.6269C131.3 71.4914 132.83 70.3943 134.421 69.3794C140.406 65.5723 147.159 63.3068 153.999 61.5897C158.372 60.4926 162.848 59.8453 167.352 59.6204C172.195 59.379 176.858 60.3829 181.56 61.2496C182.179 61.3648 183.096 61.864 183.447 60.9973C183.77 60.2348 182.882 59.7849 182.393 59.3571Z" fill="#C3955A"/>
<path d="M122.232 83.2911C121.656 83.0223 112.868 79.5993 102.912 79.144C93.2185 78.7051 82.4117 81.2121 76.9863 82.7919C75.1925 83.3131 73.3768 83.7519 71.5665 84.2292C70.782 84.4377 70.025 84.7229 69.2789 85.0411C68.9114 85.2002 68.5274 85.4415 68.1434 85.5458C67.8581 85.628 67.5619 85.5896 67.4961 85.9791C68.862 86.3576 70.3816 85.9023 71.7365 85.6884C72.5923 85.5512 73.4535 85.4744 74.3148 85.3922C74.8469 85.3428 75.3735 85.2934 75.9056 85.244C76.147 85.2221 76.3884 85.2002 76.6352 85.2111C77.7543 85.277 78.9008 85.0466 80.0144 84.9314C84.4304 84.4761 88.8848 84.2237 93.3172 84.5474C95.8077 84.7284 98.6822 85.2111 101.145 85.5403C103.592 85.8749 105.912 86.4454 108.282 87.186C110.103 87.751 111.804 88.6616 113.428 89.6655C114.87 90.5652 115.951 91.8049 117.229 92.8692C121.431 96.358 123.198 102.085 123.351 107.362C123.505 112.711 122.079 117.774 120.011 122.673C119.659 123.507 119.062 124.505 119.649 125.268C120.285 126.096 121.371 125.536 122.216 125.306C125.688 124.362 129.117 123.21 132.216 121.406C140.291 116.699 143.067 111.356 140.67 103.906C137.658 94.5313 131.317 87.5371 122.232 83.2911Z" fill="#C3955A"/>
<path d="M61.3026 79.1056C61.3136 78.5131 61.1929 77.8109 61.1655 77.4873C61.0832 76.4231 60.9296 75.3643 60.7815 74.3056C60.7047 73.7625 60.6279 73.2139 60.5511 72.6709C60.3426 71.1952 60.1726 69.6866 59.8489 68.2329C59.5472 66.8835 59.0206 65.5504 58.5324 64.2558C57.512 61.5514 56.2887 58.9292 54.9557 56.3674C54.7802 56.0328 54.6046 55.6981 54.4291 55.369C53.7653 54.1292 52.9918 52.3683 51.2913 52.6865C50.2874 52.873 50.035 53.7507 49.9692 54.6504C49.9363 55.1331 49.854 55.5994 49.8046 56.0712C49.7388 56.702 49.9363 57.3987 49.9747 58.035C49.9857 58.1996 49.9857 58.3752 49.8924 58.5068C49.3 57.673 48.6362 56.8776 48.0547 56.0547C47.4074 55.1441 46.9466 54.1018 46.2828 53.1912C45.6794 52.3628 45.0321 51.5674 44.3464 50.8049C42.4922 48.7423 40.3418 46.954 37.961 45.5332C36.7597 44.8145 35.5035 44.1947 34.2088 43.668C32.9142 43.1414 31.4715 42.8836 30.122 42.4776C29.8971 42.4118 29.6722 42.3405 29.4363 42.3515C29.2004 42.357 28.959 42.4502 28.8274 42.6422C28.7177 42.8068 28.7012 43.0152 28.6902 43.2127C28.5695 45.6648 28.575 48.2266 29.162 50.6239C29.5679 52.286 30.3085 53.5532 31.3618 54.9027C32.0584 55.7914 32.7716 56.6746 33.6054 57.4371C35.0043 58.7208 36.6993 59.6423 38.1256 60.8931C38.6577 61.3649 39.2831 61.9079 39.6506 62.5223C38.9978 62.9667 38.2518 62.7198 37.5057 62.6759C36.7816 62.632 36.063 62.5827 35.3389 62.5607C34.9275 62.5498 34.3899 62.5827 34.3515 63.0983C34.3076 63.6634 35.5528 64.0254 35.9478 64.2339C36.3153 64.4259 36.6829 64.6179 37.0449 64.8044C37.2644 64.9196 37.7197 65.2816 37.961 65.2816C38.3066 65.4627 38.6577 65.6437 39.0033 65.8247C39.3983 66.0277 39.7933 66.2361 40.1827 66.4501C41.8833 67.3991 43.4632 68.573 44.873 69.9225C41.4883 70.5205 38.1311 69.8238 34.73 70.0816C34.3624 70.109 33.77 69.939 33.4518 70.1858C33.0678 70.4821 33.5451 70.8661 33.8029 71.1294C34.7629 72.0949 35.7668 73.0165 36.82 73.8832C37.78 74.6731 39.0582 74.9419 40.2102 75.4137C41.1757 75.8087 42.0698 76.3353 43.0463 76.7028C44.094 77.0923 45.1692 77.3885 46.2389 77.6903C47.5884 78.0633 48.8885 78.4912 50.2709 78.5844C50.5891 78.6064 50.8963 78.6832 51.2035 78.76C52.1909 78.9959 53.299 79.3579 54.3194 79.3634C55.3836 79.3689 56.4588 79.3579 57.5285 79.3744C58.2416 79.3853 58.9493 79.3963 59.6624 79.4073C60.0354 79.4128 60.403 79.4183 60.776 79.4237C61.1326 79.4237 61.2971 79.5005 61.3026 79.1056Z" fill="#C3955A"/>
<path d="M90.4151 45.6538C90.075 44.5786 89.3344 44.2605 88.2811 44.4799C81.073 45.9775 74.4188 48.7423 68.8618 53.6465C65.148 56.9214 61.9992 61.6501 61.2422 66.6366C61.1764 67.0645 61.1709 67.4978 61.1654 67.9312C61.1489 68.776 61.138 69.6208 61.1215 70.4656C61.1105 71.2555 60.9679 72.1662 61.1325 72.9396C61.4452 74.4208 61.5275 75.9293 61.7414 77.4379C61.8127 77.9481 61.6756 78.8971 62.1034 79.2043C62.5039 79.4896 63.1457 79.4018 63.601 79.325C64.6543 79.1494 65.6966 78.941 66.7443 78.727C67.9347 78.4912 69.1251 78.2498 70.31 78.0139C72.2465 77.6244 74.1006 77.0758 75.8725 76.1981C76.7228 75.7757 77.5676 75.3588 78.4179 74.9364C80.3598 73.9764 82.3182 73 84.0078 71.645C85.3408 70.5753 86.3666 69.171 87.6777 68.1013C88.901 67.1029 89.4715 65.6272 90.2176 64.2339C90.4645 63.7785 90.7113 63.3287 90.9417 62.8679C91.194 62.3687 91.0953 62.1328 91.216 61.6391C91.5232 60.35 91.9017 59.0773 92.1321 57.7717C92.3735 56.4058 92.3131 55.1441 92.187 53.7781C91.9236 51.0079 91.2489 48.2979 90.4151 45.6538Z" fill="#C3955A"/>
<path d="M148.777 87.4493C146.578 85.6445 144.038 84.114 141.651 82.6109C138.854 80.8445 135.963 79.2262 132.962 77.8219C132.66 77.8219 131.015 76.9497 130.598 76.7741C129.769 76.4176 126.171 75.3424 125.216 75.0023C118.897 72.7751 112.287 71.4146 105.583 71.2062C99.1154 71.0087 92.8014 71.8535 86.5367 73.384C86.1582 73.4772 85.7742 73.4882 85.3957 73.587C83.761 74.0039 82.1482 74.5195 80.5409 75.0352C79.932 75.2272 79.3176 75.4247 78.7361 75.6935C78.1491 75.9623 77.6664 76.4176 77.0739 76.648C76.476 76.8784 75.8396 77.021 75.2252 77.213C74.5889 77.4105 73.9526 77.6135 73.3162 77.8109C72.1587 78.1675 71.1 78.6832 70.0413 79.2537C69.9316 79.314 69.8109 79.3634 69.7066 79.4182C67.9622 80.4934 66.2232 81.5741 64.4733 82.6438C63.0964 83.4831 63.1128 84.6461 63.7218 85.9243C63.9522 86.407 64.2868 86.61 64.7476 86.6539C64.9835 86.407 65.3565 86.1821 65.4827 86.0888C66.5085 85.3428 67.5782 84.5858 68.7137 84.0098C70.0138 83.3515 71.3085 82.6767 72.6086 82.002C73.5521 81.5138 74.4956 81.0255 75.4666 80.5922C78.3521 79.3085 81.435 78.5515 84.5125 77.8822C85.8291 77.597 87.2279 77.5147 88.4951 77.0978C90.0256 76.5931 91.589 76.1981 93.1689 75.88C94.6884 75.5728 96.219 75.3314 97.7495 75.112C98.7369 74.9748 99.7298 74.8432 100.723 74.7609C101.688 74.6786 102.659 74.6402 103.63 74.6018C104.629 74.5634 105.621 74.5195 106.62 74.4811C108.233 74.4153 109.856 74.3495 111.464 74.5524C112.835 74.7225 118.557 75.5673 120.076 75.7373C121.947 75.9458 123.609 76.3847 125.408 77.0429C126.725 77.5257 128.03 77.8274 129.281 78.4637C130.444 79.0562 131.64 79.4566 132.841 79.9668C135.42 81.0694 137.91 82.3586 140.351 83.741C143.912 85.7542 147.159 89.1005 151.235 90.055C150.73 89.3583 150.308 88.7659 149.644 88.1734C149.348 87.932 149.063 87.6907 148.777 87.4493Z" fill="#C3955A"/>
<path d="M191.824 76.7303C191.44 74.1081 190.304 71.8316 188.11 70.0926C185.054 67.6679 181.56 66.5818 177.769 66.3459C171.247 65.9345 166.82 68.2439 164.626 73.0768C162.629 77.4708 165.679 81.9088 170.479 81.5741C172.163 81.4589 173.726 81.0365 174.352 79.2043C174.972 77.3886 174.143 76.0501 172.75 74.9968C171.763 74.2453 171.181 73.3456 171.532 72.1058C171.883 70.8496 172.788 70.0926 174.05 69.8019C179.848 68.4688 185.06 70.5534 188.379 75.5289C190.639 78.9136 188.697 85.672 184.901 87.197C181.434 88.5903 177.758 89.5832 174.072 89.7972C167.983 90.1538 161.817 90.631 155.81 89.0347C153.934 88.5355 151.932 88.3599 150.078 87.7839C150.802 88.5849 151.466 89.4351 152.096 90.3183C160.863 92.5071 169.596 94.098 178.636 93.33C188.137 92.5181 193.212 86.1437 191.824 76.7303Z" fill="#C3955A"/>
<path d="M58.6202 168.407C56.6399 166.723 54.6541 165.055 52.9864 163.037C49.514 158.835 46.8973 153.991 45.2187 148.812C44.5494 146.761 44.0283 144.66 43.6278 142.537C43.4304 141.5 43.3371 140.436 43.0628 139.415C42.8269 138.537 42.6349 137.643 42.5033 136.744C42.421 136.179 42.2948 135.263 42.4923 134.714C43.6772 135.306 44.714 136.025 46.0251 136.36C46.7711 136.552 48.181 136.914 48.6802 136.113C49.2123 135.263 48.3071 134.566 47.8683 133.902C47.7147 133.902 47.1661 132.805 47.0728 132.646C46.8041 132.202 46.5462 131.752 46.2994 131.296C44.9444 128.806 43.765 126.019 43.0134 123.293C42.5417 121.581 41.4391 113.989 41.5927 113.534C43.5291 116.035 45.9373 118.175 48.4607 120.067C48.9983 120.473 49.7224 120.874 50.4191 120.429C50.7976 120.188 50.5453 119.266 50.5124 118.871C50.4575 118.251 50.3862 117.637 50.2929 117.017C50.0132 115.152 49.5469 113.342 49.0861 111.526C48.9435 110.961 48.8008 110.39 48.6747 109.82C48.5266 109.134 48.5046 108.427 48.3565 107.741C48.2194 107.088 47.9506 106.43 47.7531 105.788C47.4514 104.817 47.1442 103.813 47.2868 102.804C47.2923 102.754 47.3032 102.705 47.3307 102.667C47.3965 102.584 47.5227 102.595 47.6214 102.639C48.351 102.952 48.9709 103.901 49.492 104.477C50.3149 105.377 51.3133 106.112 52.4049 106.644C52.959 106.913 53.5295 107.105 54.111 107.286C54.6486 107.456 54.7638 107.269 54.7144 106.764C54.5444 104.943 54.0945 103.127 53.8641 101.301C53.7105 100.088 53.4966 98.8979 53.2278 97.7075C52.9809 96.5994 52.6134 95.5242 52.3611 94.4051C52.0868 93.1873 51.8619 91.9476 51.1816 90.8998C50.847 90.3841 50.6715 89.7204 50.4356 89.1499C50.1832 88.5409 49.9199 87.9375 49.6456 87.3396C48.5595 84.9368 47.3197 82.6 45.855 80.4002C45.4546 79.7748 45.0706 79.0617 44.511 78.5844C43.754 77.9426 42.986 77.3008 42.1028 76.84C41.2251 76.3847 39.6727 75.7593 38.7401 76.253C37.6539 76.829 36.6116 77.5147 35.5584 78.1565C32.075 80.274 28.5641 82.4628 25.5306 85.2056C23.1169 87.389 21.1585 89.9563 19.3866 92.6717C16.929 96.4348 15.4369 100.834 14.614 105.228C14.3782 106.479 14.1971 107.741 14.0874 109.008C13.9942 110.056 13.7747 111.197 13.8845 112.212C13.9174 112.53 13.857 112.848 13.8241 113.166C13.7144 114.176 13.9887 115.037 14.1313 116.013C14.2301 116.688 14.6195 117.132 15.2394 116.425C16.5011 114.993 17.5215 113.353 18.5857 111.778C19.7377 110.078 20.9336 108.405 22.1788 106.77C22.7877 105.969 23.4241 105.163 24.2634 104.619C24.4005 104.532 24.6035 104.455 24.7132 104.576C24.7845 104.647 24.779 104.762 24.7681 104.861C24.6693 105.585 24.2469 106.199 23.9013 106.825C23.5831 107.401 23.4241 108.021 23.1278 108.597C22.7493 109.337 22.4531 110.111 22.1843 110.901C21.6357 112.524 21.2682 114.197 21.0378 115.893C20.577 119.266 20.6593 122.684 20.8513 126.069C20.8732 126.48 20.7416 127.413 21.153 127.681C21.6412 128.005 22.1514 127.193 22.4202 126.897C23.3857 125.822 24.2908 124.692 25.1246 123.512C26.2986 121.866 26.891 120.04 27.84 118.262C28.0704 117.829 28.416 117.352 28.9097 117.368C28.1253 120.813 27.7797 124.286 27.4122 127.791C27.1269 130.528 26.9404 133.282 27.4012 135.992C27.5328 136.755 27.681 137.731 28.5587 137.929C29.6064 138.17 30.2099 137.259 30.8572 136.568C31.6087 135.767 32.2725 134.89 32.843 133.951C33.1996 135.147 33.1666 136.607 33.2599 137.846C33.8304 145.236 36.299 152.35 41.077 158.083C46.2335 164.276 52.7231 168.253 60.7377 170.859C60.1946 169.323 59.2895 168.978 58.6202 168.407Z" fill="#C3955A"/>
<path d="M54.8186 125.026C51.4888 132.223 51.5985 139.821 55.2081 147.057C59.3004 155.269 66.3934 160.42 74.0679 164.88C75.3406 165.62 76.2676 165.242 76.1579 163.547C75.9385 160.195 76.6352 156.975 77.5294 153.777C78.5113 150.238 78.9831 146.645 78.7801 142.942C78.6923 141.374 78.2699 139.854 77.6775 138.406C77.2222 137.303 76.7394 136.217 76.2238 135.147C75.73 134.116 75.2034 133.096 74.6549 132.092C74.1611 131.192 73.7168 130.243 73.0969 129.431C71.8188 127.764 70.398 126.195 68.7358 124.9C67.5235 123.957 66.3166 122.997 65.011 122.19C63.7493 121.417 62.3121 120.939 60.9681 120.292C60.809 120.215 60.6444 120.133 60.5402 119.99C60.4414 119.859 60.414 119.689 60.3866 119.524C60.1781 118.202 60.0794 116.858 60.0958 115.52C60.1123 114.313 60.0739 112.875 60.5512 111.756C60.5841 111.68 60.6115 111.603 60.606 111.52C60.5896 111.383 60.4579 111.29 60.3427 111.208C59.6021 110.687 59.081 109.864 58.2636 109.469C58.1868 109.43 58.1045 109.397 58.0223 109.397C57.2049 109.376 56.958 111.729 56.8757 112.277C56.7002 113.435 56.6673 114.609 56.6618 115.783C56.6344 118.975 56.2668 121.894 54.8186 125.026Z" fill="#C3955A"/>
<path d="M65.0271 253.666C65.0326 253.622 65.0326 253.578 65.0381 253.534C65.0874 252.892 65.0436 252.234 64.9668 251.597C64.9174 251.202 64.8954 250.78 64.7309 250.407C64.5169 249.941 64.1604 250.248 63.7654 250.347C63.0358 250.528 62.3336 250.84 61.5931 250.983C61.1542 251.071 60.8031 251.257 60.3917 251.405C60.1558 251.493 59.7334 251.674 59.5359 251.669C58.5869 252.064 57.7037 252.579 56.7821 253.046C56.442 253.216 52.7446 255.147 52.7392 255.147C52.7501 255.163 52.7556 255.174 52.7666 255.191C52.4868 255.383 52.2016 255.558 51.9383 255.761C49.8756 257.324 48.0105 259.179 46.6062 261.367C45.904 262.465 45.3225 263.633 44.8837 264.862C44.4064 266.178 43.9182 267.632 43.9346 269.042C43.9346 269.135 43.9401 269.239 43.9895 269.322C44.1047 269.514 44.3845 269.503 44.6039 269.47C45.5419 269.316 46.48 269.163 47.418 269.014C47.4948 269.004 47.5826 268.993 47.6375 269.047C47.7198 269.135 47.643 269.272 47.5662 269.36C46.491 270.611 45.2073 271.659 44.2254 272.959C43.1228 274.418 41.7184 275.669 40.5829 277.111C38.5477 279.69 36.2108 282.098 35.174 285.345C34.8558 286.349 34.5486 287.649 35.0807 288.637C35.6842 289.767 36.902 289.597 37.9552 289.301C38.5148 289.141 38.9536 288.906 38.9646 289.668C38.9756 290.354 38.7452 291.067 38.5038 291.698C37.3902 294.594 36.4028 297.557 35.9091 300.634C35.7555 301.588 35.6293 302.636 36.304 303.426C37.0062 304.255 38.3996 304.211 39.2663 303.673C39.6174 303.454 39.9081 303.157 40.1989 302.861C40.6926 302.356 41.1863 301.852 41.68 301.347C41.7129 301.314 41.7513 301.276 41.8007 301.287C41.8501 301.292 41.8775 301.353 41.894 301.402C42.075 301.934 42.1298 302.505 42.1792 303.07C42.3383 304.798 42.2944 306.476 42.3548 308.21C42.3877 309.137 42.4206 310.058 42.4864 310.985C42.5468 311.896 42.7717 312.845 42.7717 313.756C43.611 319.543 44.5326 325.303 47.813 330.339C48.2848 331.063 49.0199 332.632 50.0457 332.643C51.1977 332.654 50.9563 330.465 51.0112 329.719C51.2306 326.883 51.3513 324.041 51.4775 321.2C51.5104 320.498 51.5378 319.795 51.5707 319.093C51.642 317.535 51.7079 315.977 51.8231 314.425C51.9328 312.977 52.1138 311.605 52.037 310.157C52.0096 309.702 52.037 309.241 52.1138 308.786C52.1193 308.742 52.1302 308.687 52.1686 308.66C52.229 308.61 52.3168 308.654 52.3826 308.698C52.9366 309.093 53.3097 309.702 53.6498 310.283C53.8637 310.656 54.1051 311.391 54.6208 311.391C55.3778 311.391 54.8621 308.177 54.8621 307.595C54.8073 306.317 54.7469 305.044 54.736 303.766C54.7195 301.77 54.8182 299.778 55.0322 297.792C55.0706 297.447 55.1748 295.159 55.482 295.104C55.9099 295.033 56.9522 296.542 57.2265 296.832C57.6214 297.249 58.0109 297.908 58.5211 298.187C59.0806 298.5 59.695 299.806 60.4301 299.674C61.242 299.526 60.5014 297.2 60.4136 296.635C60.0132 293.991 59.6676 291.336 59.4152 288.686C59.1958 285.982 59.0093 283.266 58.9819 280.551C58.9764 280.09 58.9874 279.596 59.2726 279.234C59.7005 278.686 60.9238 280.759 61.1432 281.121C61.3352 281.44 61.604 281.955 61.988 282.07C62.586 282.251 62.4927 281.483 62.5256 281.05C62.6299 279.75 62.3775 278.428 62.5476 277.155C62.6792 276.162 62.6518 275.137 62.7286 274.138C62.9371 271.56 63.0687 269.004 63.3979 266.425C63.6392 264.544 63.9245 262.673 64.2262 260.802C64.3798 259.875 64.5334 258.954 64.6925 258.032C64.9393 256.606 64.9229 255.125 65.0271 253.666Z" fill="#C3955A"/>
<path d="M84.9679 264.066C84.4577 263.49 83.8653 262.98 83.3003 262.454C82.1428 261.373 80.9688 260.314 79.773 259.272C78.0724 257.785 76.3444 256.326 74.6 254.889C74.205 254.56 73.8155 254.209 73.3931 253.912C73.0804 253.693 72.7623 253.353 72.4057 253.21C72.2576 252.963 71.901 252.821 71.6596 252.667C71.1275 252.333 70.6064 251.916 70.0688 251.537C69.2953 251.005 67.4356 249.392 66.4263 250.188C65.3511 251.038 65.9326 252.234 66.3714 253.265C66.4757 253.512 66.5525 253.781 66.6841 254.022C66.9803 254.543 67.2162 255.086 67.5289 255.602C69.2679 258.465 71.6432 260.89 74.4738 262.684C77.3044 264.478 80.4971 265.635 83.7556 266.381C84.5784 266.568 85.7908 266.979 86.2406 266.025C86.6685 265.164 85.5055 264.67 84.9679 264.066Z" fill="#C3955A"/>
<path d="M70.6666 240.56C70.7982 240.835 70.9409 241.098 71.1 241.356C71.2974 241.679 71.5882 241.987 71.846 242.255C72.0325 242.447 72.2794 242.563 72.4714 242.744C72.6634 242.919 72.7895 243.106 73.009 243.265C73.5356 243.66 74.0787 244.038 74.5998 244.444C75.0442 244.79 75.494 245.135 75.9493 245.47C76.432 245.832 76.7776 245.975 77.3591 246.117C79.4547 246.617 81.6764 246.479 83.728 245.881C84.7703 245.58 85.9442 245.262 86.8878 244.724C89.2137 243.391 89.285 242.875 86.9591 241.586C82.2962 239.002 78.7799 235.448 76.8764 230.406C74.5889 224.361 74.6108 218.19 75.8945 211.947C76.0974 210.954 76.7941 209.616 75.6695 209.078C74.523 208.535 73.9415 209.912 73.3217 210.729C72.1861 212.232 71.2481 213.938 69.9096 215.227C61.3519 223.45 50.951 226.029 39.4037 224.921C38.7234 224.855 37.9225 224.504 37.4892 225.283C37.0613 226.056 37.5056 226.758 37.9609 227.417C40.4679 230.999 44.0939 232.425 48.2685 232.688C50.3366 232.815 52.4212 232.71 54.6484 232.71C53.9846 234.691 52.6735 236.1 51.6697 237.68C48.7129 242.321 47.2811 247.379 47.3963 252.876C47.4457 255.317 47.7858 255.597 50.1172 255.262C50.7316 255.174 51.346 255.092 51.9659 255.01C51.9878 254.966 52.0153 254.927 52.0701 254.894C53.8475 253.885 55.6797 252.991 57.49 252.042C58.9601 251.274 60.4632 250.495 61.8182 249.524C62.3942 249.112 62.9373 248.635 63.3816 248.081C63.8918 247.45 64.2374 246.715 64.5226 245.958C65.1425 244.296 65.4552 242.546 66.0312 240.867C66.5578 239.332 67.0241 237.713 67.9237 236.342C68.0115 236.21 68.1596 236.177 68.2968 236.243C69.1525 236.654 69.3775 237.488 69.723 238.284C70.0412 239.046 70.31 239.82 70.6666 240.56Z" fill="#C3955A"/>
<path d="M92.1375 260.237C88.7035 257.094 85.253 253.973 81.8135 250.846C81.2814 250.363 80.7438 249.875 80.2117 249.387C79.7344 248.953 79.2242 248.608 78.725 248.196C78.4837 247.796 77.7431 247.428 77.3207 247.182C76.2071 246.523 75.2032 245.602 74.1829 244.812C73.3545 244.17 72.4878 243.577 71.6704 242.914C71.462 242.744 71.2535 242.568 71.0506 242.382C70.9079 242.25 70.672 241.91 70.4965 241.849C70.1893 241.751 70.2606 242.255 70.3045 242.508C71.3962 246.243 73.1406 249.738 75.4885 252.859C79.4546 258.125 84.6441 261.28 91.1611 262.201C91.8578 262.3 92.8946 262.684 93.2621 261.834C93.5803 261.11 92.6258 260.682 92.1375 260.237Z" fill="#C3955A"/>
<path d="M208.385 53.3832C205.867 52.3189 195.828 50.9091 192.015 50.9091C189.755 50.9091 184.171 51.8417 183.502 51.8965C182.3 51.9953 182.52 53.3064 183.057 54.1128C184.73 56.6417 186.661 59.0224 189.059 60.8492C197.962 67.6295 208.242 68.1506 218.802 66.9328C221.572 66.6146 221.995 65.5504 220.404 63.3232C217.288 58.9621 213.42 55.5116 208.385 53.3832Z" fill="#C3955A"/>
<path d="M291.164 70.2407C290.966 69.5989 290.248 69.6537 289.705 69.6757C286.945 69.8018 284.257 69.2203 281.542 68.8967C273.385 67.9312 265.793 65.4846 258.875 60.9754C257.328 59.966 256.236 58.4629 254.607 57.5797C244.031 51.8636 233.065 47.3599 221.002 45.7855C209.756 44.3153 198.867 45.2205 188.324 49.5487C187.572 49.8559 186.919 50.3386 186.245 50.7884C187.221 50.7281 188.192 50.6129 189.163 50.5142C191.154 50.3112 193.173 50.3935 195.17 50.4648C197.123 50.5361 199.114 50.2234 201.067 50.0424C202.91 49.8723 204.764 49.7023 206.613 49.8065C207.277 49.8449 207.935 49.9162 208.593 49.993C210.234 50.174 211.874 50.3606 213.514 50.5416C214.995 50.7062 216.465 50.5635 217.963 50.7007C219.406 50.8323 220.848 51.0024 222.28 51.1999C233.668 52.7633 243.345 57.0641 249.127 67.7721C250.652 70.5972 252.023 73.4717 251.958 76.7028C251.859 81.5686 249.884 85.5293 244.168 85.3153C243.608 85.2934 243.043 85.3428 242.478 85.3099C238.117 85.0136 234.184 83.8726 231.529 80.0107C229.176 76.5876 230.333 71.8425 233.954 70.0816C235.413 69.3739 236.57 69.9115 237.618 70.8167C238.666 71.7163 238.194 72.6818 237.552 73.6253C236.762 74.7883 236.631 76.061 237.574 77.1417C238.874 78.6338 240.652 79.0672 242.561 78.7435C243.938 78.5076 245.095 77.8932 245.441 76.3408C246.521 71.442 244.744 68.3207 239.993 66.8012C239.593 66.675 239.187 66.5543 238.776 66.4665C233.164 65.2707 228.896 68.5675 227.875 71.9467C225.884 78.5241 228.32 85.4635 235.484 87.8168C240.004 89.3034 244.662 89.2486 249.204 87.9156C253.302 86.7142 255.139 83.8397 255.233 79.5444C255.282 77.2953 254.591 75.2711 253.905 73.203C253.148 70.9209 252.248 68.7047 251.162 66.5049C258.508 71.1513 265.996 74.9529 274.811 75.4905C280.445 75.8361 285.519 74.4372 290.248 71.5024C290.709 71.2171 291.367 70.899 291.164 70.2407Z" fill="#C3955A"/>
<path d="M155.925 92.4742C157.801 92.9295 159.546 93.33 161.279 93.7853C168.729 95.7601 176.272 96.934 183.974 95.7821C189.723 94.9208 195.093 92.9679 198.812 88.1954C200.875 85.5513 202.471 82.5451 204.293 79.7145C205.132 78.4144 205.977 77.1252 207.321 76.2475C208.709 75.3424 209.394 75.8142 209.619 77.3227C209.652 77.5312 209.625 77.7451 209.663 77.9536C209.822 78.8642 209.378 79.6706 209.356 80.5702C209.35 80.839 209.389 81.1462 209.614 81.2889C210.195 81.6619 210.903 80.6361 211.265 80.3234C211.813 79.8571 212.4 79.4402 212.987 79.0233C214.156 78.2004 215.489 77.6025 216.86 77.202C218.917 76.5986 219.905 77.3556 220.168 79.4731C220.421 81.4918 219.866 83.4173 218.72 85.0795C218.155 85.9023 217.661 86.5442 216.855 87.1531C215.955 87.8333 214.968 88.3983 213.925 88.8317C213.75 88.903 213.563 88.9798 213.443 89.1279C213.322 89.276 213.289 89.5174 213.432 89.6491C213.53 89.7368 213.679 89.7478 213.81 89.7478C214.71 89.7697 215.604 89.8027 216.498 89.8465C217.831 89.9124 219.17 89.8795 220.503 89.9782C221.452 90.0495 222.319 90.4225 222.675 91.399C223.026 92.359 222.395 93.0228 221.77 93.5933C218.561 96.5116 214.809 98.5633 210.87 100.308C201.221 104.581 191.149 105.223 180.918 103.369C172.19 101.789 164.154 98.2835 156.595 93.6756C156.309 93.5055 155.969 93.3464 155.925 92.4742Z" fill="#C3955A"/>
<path d="M105.188 66.3403C102.198 66.5707 99.3075 65.8302 96.3781 65.501C94.9464 65.342 94.5514 64.6124 95.1823 63.3342C101.798 49.8997 111.936 43.1194 127.433 44.9517C130.022 45.2589 132.518 45.9775 135.008 46.7784C136.758 47.3434 137.054 48.1992 136.265 49.7461C132.792 56.5594 127.548 61.3484 120.312 63.965C115.408 65.7314 110.328 66.2142 105.188 66.3403Z" fill="#C3955A"/>
<path d="M159.079 97.7898C159.013 97.5868 158.975 97.3619 158.953 97.1096C158.948 97.0657 158.948 97.0218 158.975 96.9834C159.024 96.9121 159.129 96.9286 159.211 96.956C160.094 97.2577 165.234 101.487 166.106 102.08C166.715 102.491 167.406 102.848 168.032 103.248C170.495 104.811 173.035 106.276 175.723 107.428C177.297 108.103 178.915 108.684 180.578 109.101C182.936 109.71 185.268 110.012 187.665 109.579C189.733 109.2 191.719 109.694 193.721 110.078C194.621 110.253 195.274 110.725 195.433 111.696C195.652 113.029 194.577 113.408 193.595 113.896C192.405 114.483 191.083 114.856 189.75 114.757C189.245 114.719 188.746 114.62 188.252 114.516C187.709 114.406 185.526 113.611 185.114 113.38C183.99 112.738 182.86 112.096 181.73 111.455C181.603 111.383 181.466 111.307 181.324 111.296C181.176 111.285 181.011 111.356 180.962 111.493C180.929 111.586 180.956 111.696 180.984 111.789C181.187 112.426 181.56 112.777 182.015 113.216C182.476 113.66 182.799 114.318 183.194 114.834C183.995 115.871 184.9 116.836 185.882 117.703C187.764 119.376 189.925 120.698 192.169 121.823C193.436 122.459 194.725 123.035 196.025 123.6C193.963 124.763 188.439 123.896 184.056 121.987C182.618 121.356 181.247 120.561 180.024 119.573C178.888 118.652 177.61 117.538 177.078 116.172C176.557 114.845 175.898 113.567 175.108 112.376C175.037 112.272 174.944 112.151 174.812 112.162C174.752 112.168 174.697 112.201 174.653 112.245C174.489 112.404 174.456 112.645 174.434 112.87C174.28 114.373 174.154 115.81 173.748 117.269C173.441 118.367 172.782 119.387 172.02 120.237C170.747 121.653 169.058 122.223 167.182 121.976C166.046 121.828 164.938 121.455 163.874 121.038C162.941 120.671 162.672 119.941 163.309 118.997C167.516 112.705 167.28 108.306 162.458 102.337C161.729 101.432 161.076 100.445 160.308 99.5727C159.781 98.9692 159.304 98.4975 159.079 97.7898Z" fill="#C3955A"/>
<path d="M52.7725 44.8255C55.252 44.8036 57.183 45.4783 59.0317 46.356C60.1892 46.9046 61.1272 46.7894 62.175 46.0927C64.1772 44.7707 66.3715 43.8052 68.681 43.1359C69.4161 42.922 70.1896 42.7574 70.9521 42.7245C71.4897 42.7026 73.1189 42.5106 73.3054 43.2456C73.4865 43.9588 72.2083 44.6719 71.742 44.9462C70.3212 45.7855 68.9278 46.7016 67.6497 47.7439C66.377 48.7862 64.9507 49.6365 63.711 50.7281C63.0911 51.2767 62.5041 51.8691 61.9939 52.5274C61.7032 52.9059 61.3905 53.5368 60.8584 53.2625C60.639 53.1473 60.458 52.862 60.2495 52.7139C59.9588 52.511 59.6351 52.3409 59.3279 52.1708C58.0772 51.4687 56.7771 50.8653 55.4331 50.3661C54.5279 50.0314 53.6776 49.7571 52.8109 49.3347C51.9167 48.9014 50.9951 48.5229 50.0516 48.2047C48.8557 47.8042 47.6269 47.497 46.4311 47.0801C46.2775 47.0253 46.1184 46.9704 46.0032 46.8552C45.888 46.74 45.8331 46.548 45.9154 46.4109C45.9648 46.3286 46.058 46.2737 46.1458 46.2298C46.6121 45.9995 47.1277 45.9611 47.594 45.7581C48.181 45.5003 48.7954 45.3302 49.4262 45.2095C50.4905 45.0175 51.6918 44.831 52.7725 44.8255Z" fill="#C3955A"/>
<path d="M42.4484 239.079C38.2958 238.794 34.5051 237.976 31.6471 234.822C31.2905 234.427 30.6377 234.021 31.0272 233.418C31.3893 232.864 32.0695 233.122 32.5852 233.308C35.8985 234.477 39.2393 235.546 42.6733 236.287C44.2477 236.627 45.8495 236.819 47.4349 237.126C47.8792 237.214 48.6034 237.148 48.6143 237.763C48.6308 238.509 47.8408 238.481 47.3362 238.552C45.6685 238.772 43.9899 238.92 42.4484 239.079Z" fill="#C3955A"/>
<path d="M104.914 179.872C104.969 182.088 103.449 183.805 101.419 183.816C99.2142 183.833 97.3875 182.127 97.4039 180.064C97.4149 178.007 99.0332 176.449 101.227 176.383C103.29 176.323 104.864 177.815 104.914 179.872Z" fill="#C3955A"/>
<path d="M304.554 68.7212C304.505 70.718 302.695 72.424 300.698 72.3582C298.537 72.2869 296.962 70.6905 296.995 68.595C297.028 66.494 298.646 64.9854 300.841 65.0184C303.024 65.0513 304.609 66.6311 304.554 68.7212Z" fill="#C3955A"/>
<path d="M17.911 182.856C15.7716 182.818 14.4496 181.403 14.477 179.186C14.5044 177.129 16.2379 175.445 18.2731 175.5C20.0614 175.549 22.0033 177.607 21.9979 179.444C21.9924 181.276 20.0559 182.895 17.911 182.856Z" fill="#C3955A"/>
<path d="M52.9807 220.428C50.8961 220.378 49.1407 218.645 49.223 216.708C49.3053 214.695 51.0552 213.187 53.2221 213.269C55.2298 213.346 56.7768 214.98 56.711 216.961C56.6451 218.925 54.972 220.477 52.9807 220.428Z" fill="#C3955A"/>
<path d="M23.8738 190.569C23.9012 192.791 22.5188 194.151 20.1764 194.195C18.015 194.239 16.6546 192.747 16.6765 190.366C16.693 188.501 18.2345 187.086 20.2971 187.053C22.4255 187.02 23.8463 188.419 23.8738 190.569Z" fill="#C3955A"/>
<path d="M44.1433 216.045C44.1707 218.415 42.9365 219.671 40.5337 219.726C38.5095 219.775 36.9735 218.266 36.9132 216.171C36.8638 214.333 38.5369 212.556 40.3033 212.561C42.7774 212.572 44.1214 213.79 44.1433 216.045Z" fill="#C3955A"/>
<path d="M63.3157 218.513C61.3244 218.557 59.761 217.032 59.6897 214.975C59.6238 213.028 61.0611 211.552 63.0853 211.481C65.4332 211.398 66.9198 212.709 66.9527 214.898C66.9911 217.263 65.7843 218.464 63.3157 218.513Z" fill="#C3955A"/>
<path d="M24.5979 197.98C26.7099 198.008 28.1636 199.5 28.0977 201.579C28.0319 203.603 26.452 205.101 24.4059 205.079C22.261 205.057 20.8237 203.636 20.8073 201.53C20.7908 199.39 22.3323 197.953 24.5979 197.98Z" fill="#C3955A"/>
<path d="M31.9488 214.169C29.7107 214.174 28.3831 212.869 28.4106 210.696C28.438 208.639 29.782 207.29 31.8282 207.257C34.0828 207.224 35.6681 208.688 35.6407 210.784C35.6188 212.858 34.198 214.163 31.9488 214.169Z" fill="#C3955A"/>
<path d="M46.4036 246.128C43.7869 250.045 36.5293 251.779 33.1721 248.526C32.8265 248.191 32.2669 247.917 32.4151 247.374C32.5851 246.748 33.2324 246.94 33.6823 246.951C37.791 247.061 41.9053 247.16 46.4036 246.128Z" fill="#C3955A"/>
<path d="M25.909 230.456C26.8724 230.456 27.6534 229.675 27.6534 228.711C27.6534 227.748 26.8724 226.967 25.909 226.967C24.9456 226.967 24.1646 227.748 24.1646 228.711C24.1646 229.675 24.9456 230.456 25.909 230.456Z" fill="#C3955A"/>
<path d="M27.5983 246.545C28.5314 246.545 29.2879 245.789 29.2879 244.856C29.2879 243.922 28.5314 243.166 27.5983 243.166C26.6651 243.166 25.9087 243.922 25.9087 244.856C25.9087 245.789 26.6651 246.545 27.5983 246.545Z" fill="#C3955A"/>
<path d="M100.394 263.408C101.327 263.408 102.083 262.652 102.083 261.719C102.083 260.785 101.327 260.029 100.394 260.029C99.4606 260.029 98.7041 260.785 98.7041 261.719C98.7041 262.652 99.4606 263.408 100.394 263.408Z" fill="#C3955A"/>
<path d="M93.6188 269.355C94.5519 269.355 95.3084 268.598 95.3084 267.665C95.3084 266.732 94.5519 265.975 93.6188 265.975C92.6857 265.975 91.9292 266.732 91.9292 267.665C91.9292 268.598 92.6857 269.355 93.6188 269.355Z" fill="#C3955A"/>
<path d="M1139.85 650.699C1139.88 650.682 1139.91 650.655 1139.94 650.633C1140.23 650.392 1140.51 650.156 1140.79 649.914C1141.87 649.004 1142.94 648.186 1144.15 647.44C1145.35 646.711 1146.61 646.063 1147.91 645.548C1150.51 644.527 1153.3 644.089 1156.08 644.374C1157.77 644.549 1159.38 645.021 1161.02 645.4C1161.29 645.465 1161.58 645.526 1161.85 645.433C1161.89 645.422 1161.93 645.405 1161.95 645.372C1162.01 645.306 1162 645.208 1161.98 645.125C1161.77 644.281 1160.95 643.666 1160.46 642.975C1159.37 641.45 1158.44 639.766 1158.03 637.923C1157.82 637.007 1157.76 636.085 1157.81 635.147C1157.87 634.192 1157.82 633.254 1157.97 632.283C1158.11 631.312 1158.26 630.33 1158.63 629.42C1159.26 627.873 1160.47 626.661 1161.14 625.141C1161.43 624.483 1161.33 624.088 1160.55 624.247C1159.72 624.417 1158.89 624.79 1158.14 625.174C1156.6 625.969 1155.24 627.099 1154.19 628.476C1153.97 628.773 1153.75 629.085 1153.55 629.398C1153.19 629.941 1152.86 630.501 1152.55 631.066C1152.28 631.554 1152.09 632.152 1151.64 632.508C1151.26 632.799 1150.75 632.848 1150.29 632.744C1149.83 632.64 1149.41 632.41 1149 632.179C1148.51 631.905 1148.02 631.631 1147.53 631.356C1146.74 630.917 1145.96 630.484 1145.23 629.952C1144.85 629.672 1143.47 628.208 1143.4 629.414C1143.33 630.616 1144.01 631.987 1144.46 633.062C1144.63 633.479 1144.8 633.896 1145.01 634.297C1145.62 635.46 1146.67 636.551 1147.72 637.319C1148.31 637.747 1148.96 638.241 1149.61 638.543C1150.31 638.866 1150.93 639.124 1151.48 639.689C1149.62 639.557 1147.72 640.002 1146.08 640.885C1144.16 641.916 1142.51 643.567 1141.42 645.449C1141.17 645.866 1141.02 646.327 1140.86 646.782C1140.4 648.093 1139.89 649.294 1139.64 650.671C1139.7 650.754 1139.78 650.737 1139.85 650.699Z" fill="#C3955A"/>
<path d="M1097.07 647.78C1098.73 648.592 1100.16 649.711 1101.53 650.935C1104.74 653.793 1106.35 657.638 1108.03 661.429C1109.52 664.786 1111.61 667.507 1114.74 669.591C1114.96 669.734 1115.17 669.871 1115.39 669.997C1118.34 671.775 1121.72 672.526 1125.13 672.652C1125.98 672.685 1126.83 672.68 1127.69 672.658C1128.55 672.625 1129.37 672.515 1130.24 672.51C1130.36 671.089 1130.26 669.663 1130.16 668.242C1130.11 667.507 1130.06 666.766 1130.01 666.031C1129.92 664.731 1129.83 663.431 1129.68 662.136C1129.47 660.381 1129.14 658.637 1128.71 656.925C1128.34 655.499 1127.93 653.99 1127.02 652.805C1125.98 651.472 1125.17 650.084 1123.93 648.91C1116.26 641.598 1105.01 642.695 1096.98 646.008C1095.76 646.502 1096.06 647.287 1097.07 647.78Z" fill="#C3955A"/>
<path d="M1130.97 666.026C1131.17 667.501 1131.36 668.955 1131.43 670.447C1131.46 671.204 1131.48 671.95 1131.61 672.696C1131.72 673.25 1131.84 673.805 1131.91 674.364C1136.78 689.971 1145.73 703.115 1156.7 715.029C1157.1 715.463 1157.67 715.808 1157.93 716.373C1158.44 716.681 1158.84 717.24 1159.28 717.602C1160.09 718.288 1160.86 719.029 1161.74 719.632C1162.5 720.159 1163.3 720.641 1163.97 721.278C1164.41 721.695 1164.83 722.205 1165.19 722.742C1165.24 722.77 1165.3 722.792 1165.34 722.83C1165.32 722.737 1165.31 722.644 1165.29 722.556C1165.04 721.398 1164.81 720.246 1164.65 719.072C1164.4 717.141 1164.36 714.903 1163.14 713.279C1163.13 713.274 1163.13 713.274 1163.13 713.269C1162.93 713.197 1162.73 713.011 1162.51 712.786C1161.77 712.056 1160.86 711.497 1160.07 710.833C1159.25 710.153 1158.48 709.418 1157.76 708.628C1156.64 707.393 1155.68 706.055 1154.58 704.793C1151.75 701.573 1149.16 698.15 1146.86 694.535C1145.99 693.153 1145.16 691.748 1144.37 690.311C1143.59 688.868 1142.91 687.376 1142.02 685.994C1141.6 685.335 1140.18 681.347 1140 680.848C1139.61 679.773 1139.23 678.687 1138.88 677.59C1138.18 675.401 1137.59 673.185 1137.09 670.941C1136.93 670.217 1136.79 669.498 1136.65 668.769C1134.32 656.525 1134.9 644.478 1139.61 632.92C1143.65 622.974 1150.29 615.475 1161.72 614.148C1168.09 613.413 1174.31 613.89 1179.77 618.108C1186.3 623.155 1190.83 631.087 1188.39 640.051C1186.86 645.663 1184.68 648.033 1179.56 648.433C1174.73 648.812 1170.38 647.117 1166.76 643.929C1166.05 643.304 1165.44 642.558 1164.98 641.73C1164.1 640.166 1163.37 637.747 1164.17 636.008C1164.93 634.373 1165.8 632.711 1167.53 631.932C1168.95 631.296 1170.8 631.071 1172.33 630.912C1173.58 630.78 1175.42 630.972 1176.07 632.245C1174.23 632.448 1172.42 632.958 1170.75 633.743C1170.2 634 1169.66 634.291 1169.25 634.735C1168.93 635.087 1168.7 635.514 1168.52 635.959C1168.11 636.985 1167.68 638.811 1168.19 639.876C1169.15 641.834 1171.6 643.315 1173.58 643.968C1175.71 644.676 1178.21 644.719 1180.17 643.485C1180.9 643.024 1181.44 642.399 1181.91 641.68C1185.42 636.299 1183.22 627.845 1177.42 624.422C1175.05 623.023 1172.29 622.393 1169.55 622.607C1168.15 622.716 1166.76 623.04 1165.44 623.545C1164.27 623.989 1163.24 624.697 1162.22 625.415C1161.69 625.783 1161.32 626.326 1160.96 626.863C1160.54 627.505 1160.13 628.164 1159.72 628.816C1159.46 629.228 1159.21 629.639 1159.03 630.095C1158.7 630.923 1158.71 631.663 1158.75 632.514C1158.79 633.611 1158.75 634.697 1158.9 635.794C1159.5 639.958 1161.81 643.353 1164.52 646.436C1165.46 647.501 1166.3 648.466 1167.47 649.278C1168.53 650.019 1169.66 650.666 1170.84 651.209C1173.22 652.312 1175.79 652.992 1178.41 653.25C1179.9 653.398 1181.4 653.409 1182.89 653.31C1184.23 653.222 1185.48 652.877 1186.8 652.844C1186.84 652.844 1186.88 652.844 1186.91 652.86C1186.98 652.91 1186.95 653.019 1186.9 653.096C1186.38 653.946 1185.62 654.621 1184.98 655.384C1184.59 655.839 1184.25 656.327 1183.91 656.81C1183.3 657.682 1182.68 658.56 1182.32 659.564C1182.08 660.238 1181.96 660.952 1181.87 661.659C1181.75 662.564 1181.44 663.892 1181.98 664.709C1182.43 665.395 1183.26 665.499 1184.01 665.422C1185.7 665.258 1187.35 664.731 1188.78 663.81C1190.44 662.74 1191.59 661.144 1192.85 659.668C1192.99 659.509 1193.24 659.344 1193.38 659.498C1193.42 659.547 1193.43 659.608 1193.45 659.668C1193.61 660.408 1193.69 661.165 1193.8 661.917C1194.01 663.256 1194.31 664.583 1194.71 665.883C1195.08 667.096 1195.47 668.45 1196.21 669.482C1197.49 671.248 1198.98 672.806 1200.74 674.095C1203.32 675.977 1206.28 677.25 1209.33 678.116C1209.8 678.248 1210.38 678.539 1210.7 678.05C1211.06 677.518 1210.48 677.156 1210.15 676.833C1208.36 675.033 1206.76 673.08 1205.33 670.979C1199.48 662.317 1196.63 652.635 1195.62 642.339C1194.79 633.819 1192.62 625.733 1187.76 618.575C1183.74 612.667 1178.25 608.596 1171.12 607.735C1159.57 606.342 1149.77 610.549 1141.76 618.701C1134.66 625.925 1131.92 634.785 1130 644.599C1129.59 646.667 1129.53 650.342 1129.61 651.384C1129.85 656.294 1130.27 661.155 1130.97 666.026Z" fill="#C3955A"/>
<path d="M1110.48 732.331C1111.09 732.49 1112.6 732.874 1113.09 732.348C1116.71 728.42 1121.73 725.617 1126.53 723.39C1135.68 719.149 1145.18 717.931 1155.09 719.939C1158.26 720.581 1161.16 722.155 1164.4 722.578C1164.14 722.249 1163.86 721.93 1163.58 721.662C1162.91 721.031 1162.11 720.565 1161.37 720.043C1160.79 719.637 1160.3 719.116 1159.74 718.699C1159.13 718.244 1158.16 718.09 1157.63 717.558C1156.9 717.169 1156.17 716.714 1155.4 716.412C1154.71 716.138 1154.01 716.072 1153.27 715.962C1152.19 715.803 1151.16 715.413 1150.12 715.101C1149.01 714.766 1147.98 714.722 1146.84 714.667C1145.62 714.607 1144.39 714.624 1143.16 714.706C1137.82 715.046 1132.62 716.576 1127.76 718.787C1122.06 721.376 1116.6 724.553 1111.82 728.596C1111.03 729.254 1110.31 729.989 1109.54 730.653C1109.23 730.927 1108.91 731.393 1109.18 731.733C1109.42 732.041 1110.11 732.238 1110.48 732.331Z" fill="#C3955A"/>
<path d="M1105.67 740.132C1105 739.94 1104.32 739.77 1103.64 739.616C1102.82 739.43 1102 739.276 1101.17 739.145C1100.84 739.095 1097.1 742.995 1097.31 743.083C1098.01 743.379 1098.74 743.626 1099.48 743.813C1100.83 744.158 1102.22 744.241 1103.6 744.005C1104.67 742.65 1105.56 741.492 1106.48 740.373C1106.21 740.286 1105.93 740.209 1105.67 740.132Z" fill="#C3955A"/>
<path d="M1095.14 747.093C1094.76 747.675 1094.39 748.212 1093.89 748.728C1092.62 750.067 1091.45 751.498 1090.05 752.716C1088.62 753.956 1087.07 755.053 1085.67 756.326C1084.51 757.379 1083.44 758.58 1082.06 759.354C1080.71 760.111 1079.46 761.043 1078.13 761.877C1075.36 763.611 1072.41 765.081 1069.32 766.14C1066.05 767.253 1062.64 767.884 1059.19 767.988C1055.91 768.087 1055.99 768.032 1055.93 771.307C1055.9 772.81 1056.35 773.189 1057.84 773.244C1062.36 773.414 1066.43 771.812 1070.42 770.084C1081.73 765.174 1090.77 757.16 1099.26 748.47C1099.56 748.163 1099.83 747.938 1100.11 747.774C1099.66 747.62 1099.21 747.499 1098.74 747.351C1097.99 747.11 1097.28 746.737 1096.55 746.451C1095.94 746.216 1095.52 746.523 1095.19 747.022C1095.17 747.055 1095.16 747.071 1095.14 747.093Z" fill="#C3955A"/>
<path d="M1036.61 760.643C1039.11 762.832 1042.1 764.033 1045.32 764.647C1052.81 766.079 1060.05 764.543 1067.1 762.289C1072.53 760.555 1077.55 757.779 1082.56 755.064C1086.14 753.127 1089.54 751.026 1092.83 748.651C1093.18 748.399 1095 746.616 1094.79 746.144C1094.78 746.128 1094.78 746.111 1094.78 746.089C1094.72 746.002 1094.73 745.903 1094.8 745.826C1094.41 745.733 1094.01 745.672 1093.62 745.596C1093.22 745.519 1092.85 745.365 1092.46 745.288C1091.96 745.184 1091.89 745.316 1091.45 745.65C1090.71 746.226 1089.96 746.802 1089.21 747.373C1087.7 748.509 1086.17 749.606 1084.58 750.621C1078.59 754.428 1071.84 756.693 1065 758.41C1060.63 759.507 1056.15 760.155 1051.65 760.38C1046.8 760.621 1042.14 759.617 1037.44 758.75C1036.82 758.635 1035.9 758.136 1035.55 759.003C1035.23 759.765 1036.12 760.215 1036.61 760.643Z" fill="#C3955A"/>
<path d="M1096.77 736.709C1097.34 736.978 1106.13 740.401 1116.09 740.856C1125.78 741.295 1136.59 738.788 1142.01 737.208C1143.81 736.687 1145.62 736.248 1147.43 735.771C1148.22 735.562 1148.98 735.277 1149.72 734.959C1150.09 734.8 1150.47 734.559 1150.86 734.454C1151.14 734.372 1151.44 734.41 1151.5 734.021C1150.14 733.642 1148.62 734.098 1147.26 734.312C1146.41 734.449 1145.55 734.526 1144.69 734.608C1144.15 734.657 1143.63 734.707 1143.09 734.756C1142.85 734.778 1142.61 734.8 1142.36 734.789C1141.25 734.723 1140.1 734.953 1138.99 735.069C1134.57 735.524 1130.12 735.776 1125.68 735.453C1123.19 735.272 1120.32 734.789 1117.85 734.46C1115.41 734.125 1113.09 733.555 1110.72 732.814C1108.9 732.249 1107.2 731.338 1105.57 730.335C1104.13 729.435 1103.05 728.195 1101.77 727.131C1097.57 723.642 1095.8 717.915 1095.65 712.638C1095.5 707.289 1096.92 702.226 1098.99 697.327C1099.34 696.493 1099.94 695.495 1099.35 694.732C1098.72 693.904 1097.63 694.464 1096.78 694.694C1093.31 695.638 1089.88 696.79 1086.78 698.594C1078.71 703.301 1075.93 708.644 1078.33 716.094C1081.34 725.469 1087.68 732.463 1096.77 736.709Z" fill="#C3955A"/>
<path d="M1157.7 740.894C1157.69 741.487 1157.81 742.189 1157.83 742.513C1157.92 743.577 1158.07 744.636 1158.22 745.694C1158.3 746.237 1158.37 746.786 1158.45 747.329C1158.66 748.805 1158.83 750.313 1159.15 751.767C1159.45 753.117 1159.98 754.45 1160.47 755.744C1161.49 758.449 1162.71 761.071 1164.04 763.633C1164.22 763.967 1164.4 764.302 1164.57 764.631C1165.23 765.871 1166.01 767.632 1167.71 767.314C1168.71 767.127 1168.96 766.249 1169.03 765.35C1169.06 764.867 1169.15 764.401 1169.2 763.929C1169.26 763.298 1169.06 762.601 1169.03 761.965C1169.01 761.8 1169.01 761.625 1169.11 761.493C1169.7 762.327 1170.36 763.122 1170.95 763.945C1171.59 764.856 1172.05 765.898 1172.72 766.809C1173.32 767.637 1173.97 768.433 1174.65 769.195C1176.51 771.258 1178.66 773.046 1181.04 774.467C1182.24 775.185 1183.5 775.805 1184.79 776.332C1186.09 776.859 1187.53 777.116 1188.88 777.522C1189.1 777.588 1189.33 777.66 1189.56 777.649C1189.8 777.643 1190.04 777.55 1190.17 777.358C1190.28 777.193 1190.3 776.985 1190.31 776.787C1190.43 774.335 1190.42 771.773 1189.84 769.376C1189.43 767.714 1188.69 766.447 1187.64 765.097C1186.94 764.209 1186.23 763.325 1185.39 762.563C1184 761.279 1182.3 760.358 1180.87 759.107C1180.34 758.635 1179.72 758.092 1179.35 757.478C1180 757.033 1180.75 757.28 1181.49 757.324C1182.22 757.368 1182.94 757.417 1183.66 757.439C1184.07 757.45 1184.61 757.417 1184.65 756.902C1184.69 756.337 1183.45 755.975 1183.05 755.766C1182.68 755.574 1182.32 755.382 1181.96 755.196C1181.74 755.08 1181.28 754.718 1181.04 754.718C1180.69 754.537 1180.34 754.356 1180 754.175C1179.6 753.972 1179.21 753.764 1178.82 753.55C1177.12 752.601 1175.54 751.427 1174.13 750.077C1177.51 749.48 1180.87 750.176 1184.27 749.918C1184.64 749.891 1185.23 750.061 1185.55 749.814C1185.93 749.518 1185.45 749.134 1185.2 748.871C1184.24 747.905 1183.23 746.984 1182.18 746.117C1181.22 745.327 1179.94 745.058 1178.79 744.586C1177.82 744.191 1176.93 743.665 1175.95 743.297C1174.91 742.908 1173.83 742.611 1172.76 742.31C1171.41 741.937 1170.11 741.509 1168.73 741.416C1168.41 741.394 1168.1 741.317 1167.8 741.24C1166.81 741.004 1165.7 740.642 1164.68 740.637C1163.62 740.631 1162.54 740.642 1161.47 740.626C1160.76 740.615 1160.05 740.604 1159.34 740.593C1158.96 740.587 1158.6 740.582 1158.22 740.576C1157.87 740.576 1157.7 740.499 1157.7 740.894Z" fill="#C3955A"/>
<path d="M1128.58 774.346C1128.93 775.421 1129.67 775.739 1130.72 775.52C1137.93 774.022 1144.58 771.258 1150.14 766.353C1153.85 763.078 1157 758.35 1157.76 753.363C1157.82 752.935 1157.83 752.502 1157.83 752.069C1157.85 751.224 1157.86 750.379 1157.88 749.534C1157.89 748.744 1158.03 747.834 1157.87 747.06C1157.55 745.579 1157.47 744.071 1157.26 742.562C1157.19 742.052 1157.32 741.103 1156.9 740.796C1156.5 740.51 1155.85 740.598 1155.4 740.675C1154.35 740.851 1153.3 741.059 1152.26 741.273C1151.07 741.509 1149.87 741.75 1148.69 741.986C1146.75 742.376 1144.9 742.924 1143.13 743.802C1142.28 744.224 1141.43 744.641 1140.58 745.064C1138.64 746.024 1136.68 747 1134.99 748.355C1133.66 749.425 1132.63 750.829 1131.32 751.899C1130.1 752.897 1129.53 754.373 1128.78 755.766C1128.54 756.221 1128.29 756.671 1128.06 757.132C1127.81 757.631 1127.9 757.867 1127.78 758.361C1127.48 759.65 1127.1 760.923 1126.87 762.228C1126.63 763.594 1126.69 764.856 1126.81 766.222C1127.08 768.992 1127.75 771.702 1128.58 774.346Z" fill="#C3955A"/>
<path d="M1070.22 732.551C1072.42 734.355 1074.96 735.886 1077.35 737.389C1080.15 739.155 1083.04 740.774 1086.04 742.178C1086.34 742.178 1087.99 743.05 1088.4 743.226C1089.23 743.582 1092.83 744.658 1093.78 744.998C1100.1 747.225 1106.71 748.585 1113.42 748.794C1119.88 748.991 1126.2 748.146 1132.46 746.616C1132.84 746.523 1133.23 746.512 1133.6 746.413C1135.24 745.996 1136.85 745.48 1138.46 744.965C1139.07 744.773 1139.68 744.575 1140.26 744.306C1140.85 744.038 1141.33 743.582 1141.93 743.352C1142.52 743.122 1143.16 742.979 1143.77 742.787C1144.41 742.589 1145.05 742.386 1145.68 742.189C1146.84 741.832 1147.9 741.317 1148.96 740.746C1149.07 740.686 1149.19 740.637 1149.29 740.582C1151.04 739.507 1152.78 738.426 1154.53 737.356C1155.9 736.517 1155.89 735.354 1155.28 734.076C1155.05 733.593 1154.71 733.39 1154.25 733.346C1154.02 733.593 1153.64 733.818 1153.52 733.911C1152.49 734.657 1151.42 735.414 1150.29 735.99C1148.99 736.648 1147.69 737.323 1146.39 737.998C1145.45 738.486 1144.5 738.974 1143.53 739.408C1140.65 740.691 1137.56 741.448 1134.49 742.118C1133.17 742.403 1131.77 742.485 1130.5 742.902C1128.97 743.407 1127.41 743.802 1125.83 744.12C1124.31 744.427 1122.78 744.669 1121.25 744.888C1120.26 745.025 1119.27 745.157 1118.28 745.239C1117.31 745.321 1116.34 745.36 1115.37 745.398C1114.37 745.437 1113.38 745.48 1112.38 745.519C1110.77 745.585 1109.14 745.65 1107.54 745.448C1106.16 745.277 1100.44 744.433 1098.92 744.263C1097.05 744.054 1095.39 743.615 1093.59 742.957C1092.28 742.474 1090.97 742.173 1089.72 741.536C1088.56 740.944 1087.36 740.543 1086.16 740.033C1083.58 738.931 1081.09 737.641 1078.65 736.259C1075.09 734.246 1071.84 730.899 1067.77 729.945C1068.27 730.642 1068.69 731.234 1069.36 731.827C1069.65 732.068 1069.94 732.309 1070.22 732.551Z" fill="#C3955A"/>
<path d="M1027.18 743.27C1027.56 745.892 1028.7 748.168 1030.89 749.907C1033.95 752.332 1037.44 753.418 1041.23 753.654C1047.75 754.066 1052.18 751.756 1054.37 746.923C1056.37 742.529 1053.32 738.091 1048.52 738.426C1046.84 738.541 1045.27 738.964 1044.65 740.796C1044.03 742.611 1044.86 743.95 1046.25 745.003C1047.24 745.755 1047.82 746.654 1047.47 747.894C1047.12 749.15 1046.21 749.907 1044.95 750.198C1039.15 751.531 1033.94 749.447 1030.62 744.471C1028.36 741.086 1030.3 734.328 1034.1 732.803C1037.57 731.41 1041.24 730.417 1044.93 730.203C1051.02 729.846 1057.18 729.369 1063.19 730.965C1065.07 731.465 1067.07 731.64 1068.92 732.216C1068.2 731.415 1067.53 730.565 1066.9 729.682C1058.14 727.493 1049.4 725.902 1040.36 726.67C1030.86 727.482 1025.79 733.856 1027.18 743.27Z" fill="#C3955A"/>
<path d="M1160.38 651.593C1162.36 653.277 1164.35 654.945 1166.01 656.963C1169.49 661.165 1172.1 666.009 1173.78 671.188C1174.45 673.239 1174.97 675.34 1175.37 677.463C1175.57 678.5 1175.66 679.564 1175.94 680.585C1176.17 681.462 1176.37 682.357 1176.5 683.256C1176.58 683.821 1176.71 684.737 1176.51 685.286C1175.32 684.694 1174.29 683.975 1172.97 683.64C1172.23 683.448 1170.82 683.086 1170.32 683.887C1169.79 684.737 1170.69 685.434 1171.13 686.098C1171.29 686.098 1171.83 687.195 1171.93 687.354C1172.2 687.798 1172.45 688.248 1172.7 688.704C1174.06 691.194 1175.24 693.981 1175.99 696.707C1176.46 698.419 1177.56 706.011 1177.41 706.466C1175.47 703.965 1173.06 701.825 1170.54 699.933C1170 699.527 1169.28 699.126 1168.58 699.571C1168.2 699.812 1168.45 700.734 1168.49 701.129C1168.54 701.749 1168.61 702.363 1168.71 702.983C1168.99 704.848 1169.45 706.658 1169.91 708.474C1170.06 709.039 1170.2 709.61 1170.33 710.18C1170.47 710.866 1170.5 711.573 1170.64 712.259C1170.78 712.912 1171.05 713.57 1171.25 714.212C1171.55 715.183 1171.86 716.187 1171.71 717.196C1171.71 717.246 1171.7 717.295 1171.67 717.333C1171.6 717.416 1171.48 717.405 1171.38 717.361C1170.65 717.048 1170.03 716.099 1169.51 715.523C1168.69 714.623 1167.69 713.888 1166.6 713.356C1166.04 713.087 1165.47 712.895 1164.89 712.714C1164.35 712.544 1164.24 712.731 1164.29 713.236C1164.46 715.057 1164.91 716.873 1165.14 718.699C1165.29 719.912 1165.5 721.102 1165.77 722.292C1166.02 723.401 1166.39 724.476 1166.64 725.595C1166.91 726.813 1167.14 728.052 1167.82 729.1C1168.15 729.616 1168.33 730.28 1168.56 730.85C1168.82 731.459 1169.08 732.062 1169.35 732.66C1170.44 735.063 1171.68 737.4 1173.14 739.6C1173.55 740.225 1173.93 740.938 1174.49 741.416C1175.25 742.057 1176.01 742.699 1176.9 743.16C1177.77 743.615 1179.33 744.241 1180.26 743.747C1181.35 743.171 1182.39 742.485 1183.44 741.843C1186.93 739.726 1190.44 737.537 1193.47 734.794C1195.88 732.611 1197.84 730.044 1199.61 727.328C1202.07 723.565 1203.56 719.166 1204.39 714.772C1204.62 713.521 1204.8 712.259 1204.91 710.992C1205.01 709.944 1205.23 708.803 1205.12 707.788C1205.08 707.47 1205.14 707.152 1205.18 706.834C1205.29 705.824 1205.01 704.963 1204.87 703.987C1204.77 703.312 1204.38 702.868 1203.76 703.575C1202.5 705.007 1201.48 706.647 1200.41 708.222C1199.26 709.922 1198.07 711.595 1196.82 713.23C1196.21 714.031 1195.58 714.837 1194.74 715.38C1194.6 715.468 1194.4 715.545 1194.29 715.424C1194.22 715.353 1194.22 715.238 1194.23 715.139C1194.33 714.415 1194.75 713.801 1195.1 713.175C1195.42 712.599 1195.58 711.979 1195.87 711.403C1196.25 710.663 1196.55 709.889 1196.82 709.099C1197.36 707.476 1197.73 705.802 1197.96 704.107C1198.42 700.734 1198.34 697.316 1198.15 693.931C1198.13 693.52 1198.26 692.587 1197.85 692.319C1197.36 691.995 1196.85 692.807 1196.58 693.103C1195.61 694.178 1194.71 695.308 1193.88 696.488C1192.7 698.133 1192.11 699.96 1191.16 701.738C1190.93 702.171 1190.58 702.648 1190.09 702.632C1190.87 699.187 1191.22 695.714 1191.59 692.209C1191.87 689.472 1192.06 686.718 1191.6 684.008C1191.47 683.245 1191.32 682.269 1190.44 682.071C1189.39 681.83 1188.79 682.741 1188.14 683.432C1187.39 684.233 1186.73 685.11 1186.16 686.048C1185.8 684.853 1185.83 683.393 1185.74 682.154C1185.17 674.764 1182.7 667.649 1177.92 661.917C1172.77 655.724 1166.28 651.746 1158.26 649.141C1158.81 650.677 1159.71 651.022 1160.38 651.593Z" fill="#C3955A"/>
<path d="M1164.18 694.974C1167.51 687.777 1167.4 680.179 1163.79 672.943C1159.7 664.731 1152.61 659.58 1144.93 655.12C1143.66 654.38 1142.73 654.758 1142.84 656.453C1143.06 659.805 1142.36 663.025 1141.47 666.223C1140.49 669.762 1140.02 673.355 1140.22 677.058C1140.31 678.626 1140.73 680.146 1141.32 681.594C1141.78 682.697 1142.26 683.783 1142.78 684.853C1143.27 685.884 1143.8 686.904 1144.35 687.908C1144.84 688.808 1145.28 689.757 1145.9 690.569C1147.18 692.236 1148.6 693.805 1150.26 695.1C1151.48 696.043 1152.68 697.003 1153.99 697.81C1155.25 698.583 1156.69 699.061 1158.03 699.708C1158.19 699.785 1158.36 699.867 1158.46 700.01C1158.56 700.141 1158.59 700.311 1158.61 700.476C1158.82 701.798 1158.92 703.142 1158.9 704.48C1158.89 705.687 1158.93 707.125 1158.45 708.244C1158.42 708.32 1158.39 708.397 1158.39 708.48C1158.41 708.617 1158.54 708.71 1158.66 708.792C1159.4 709.313 1159.92 710.136 1160.74 710.531C1160.81 710.57 1160.9 710.603 1160.98 710.603C1161.8 710.624 1162.04 708.271 1162.12 707.723C1162.3 706.565 1162.33 705.391 1162.34 704.217C1162.37 701.025 1162.73 698.106 1164.18 694.974Z" fill="#C3955A"/>
<path d="M1153.97 566.334C1153.97 566.378 1153.97 566.422 1153.96 566.466C1153.91 567.108 1153.96 567.766 1154.03 568.403C1154.08 568.798 1154.1 569.22 1154.27 569.593C1154.48 570.059 1154.84 569.752 1155.23 569.653C1155.96 569.472 1156.67 569.16 1157.41 569.017C1157.85 568.929 1158.2 568.743 1158.61 568.595C1158.84 568.507 1159.27 568.326 1159.46 568.331C1160.41 567.936 1161.3 567.421 1162.22 566.954C1162.56 566.784 1166.26 564.853 1166.26 564.853C1166.25 564.837 1166.24 564.826 1166.23 564.809C1166.51 564.617 1166.8 564.442 1167.06 564.239C1169.12 562.676 1170.99 560.821 1172.39 558.633C1173.1 557.535 1173.68 556.367 1174.12 555.138C1174.59 553.822 1175.08 552.368 1175.07 550.958C1175.07 550.865 1175.06 550.761 1175.01 550.678C1174.9 550.486 1174.62 550.497 1174.4 550.53C1173.46 550.684 1172.52 550.837 1171.58 550.986C1171.51 550.996 1171.42 551.007 1171.36 550.953C1171.28 550.865 1171.36 550.728 1171.43 550.64C1172.51 549.389 1173.79 548.341 1174.77 547.041C1175.88 545.582 1177.28 544.331 1178.42 542.889C1180.45 540.31 1182.79 537.902 1183.83 534.655C1184.14 533.651 1184.45 532.351 1183.92 531.363C1183.32 530.233 1182.1 530.403 1181.04 530.699C1180.49 530.859 1180.05 531.094 1180.04 530.332C1180.02 529.646 1180.25 528.933 1180.5 528.302C1181.61 525.406 1182.6 522.443 1183.09 519.366C1183.24 518.412 1183.37 517.364 1182.7 516.574C1181.99 515.745 1180.6 515.789 1179.73 516.327C1179.38 516.546 1179.09 516.843 1178.8 517.139C1178.31 517.644 1177.81 518.148 1177.32 518.653C1177.29 518.686 1177.25 518.724 1177.2 518.713C1177.15 518.708 1177.12 518.647 1177.11 518.598C1176.93 518.066 1176.87 517.495 1176.82 516.93C1176.66 515.202 1176.71 513.524 1176.65 511.79C1176.61 510.863 1176.58 509.942 1176.51 509.015C1176.45 508.104 1176.23 507.155 1176.23 506.244C1175.39 500.457 1174.47 494.697 1171.19 489.661C1170.72 488.937 1169.98 487.368 1168.95 487.357C1167.8 487.346 1168.04 489.535 1167.99 490.281C1167.77 493.117 1167.65 495.959 1167.52 498.8C1167.49 499.502 1167.46 500.205 1167.43 500.907C1167.36 502.465 1167.29 504.023 1167.18 505.575C1167.07 507.023 1166.89 508.395 1166.96 509.843C1166.99 510.298 1166.96 510.759 1166.89 511.214C1166.88 511.258 1166.87 511.313 1166.83 511.34C1166.77 511.39 1166.68 511.346 1166.62 511.302C1166.06 510.907 1165.69 510.298 1165.35 509.717C1165.14 509.344 1164.89 508.609 1164.38 508.609C1163.62 508.609 1164.14 511.823 1164.14 512.405C1164.19 513.683 1164.25 514.956 1164.26 516.234C1164.28 518.23 1164.18 520.222 1163.97 522.208C1163.93 522.553 1163.83 524.841 1163.52 524.896C1163.09 524.967 1162.05 523.458 1161.77 523.168C1161.38 522.751 1160.99 522.092 1160.48 521.813C1159.92 521.5 1159.3 520.194 1158.57 520.326C1157.76 520.474 1158.5 522.8 1158.59 523.365C1158.99 526.009 1159.33 528.664 1159.58 531.314C1159.8 534.018 1159.99 536.734 1160.02 539.449C1160.02 539.91 1160.01 540.404 1159.73 540.766C1159.3 541.314 1158.08 539.241 1157.86 538.879C1157.66 538.56 1157.4 538.045 1157.01 537.93C1156.41 537.749 1156.51 538.517 1156.47 538.95C1156.37 540.25 1156.62 541.572 1156.45 542.845C1156.32 543.838 1156.35 544.863 1156.27 545.862C1156.06 548.44 1155.93 550.996 1155.6 553.575C1155.36 555.456 1155.08 557.327 1154.77 559.198C1154.62 560.125 1154.47 561.046 1154.31 561.968C1154.06 563.394 1154.08 564.875 1153.97 566.334Z" fill="#C3955A"/>
<path d="M1134.03 555.934C1134.54 556.51 1135.13 557.02 1135.7 557.546C1136.86 558.627 1138.03 559.686 1139.23 560.728C1140.93 562.215 1142.66 563.674 1144.4 565.111C1144.8 565.44 1145.18 565.791 1145.61 566.088C1145.92 566.307 1146.24 566.647 1146.59 566.79C1146.74 567.037 1147.1 567.179 1147.34 567.333C1147.87 567.667 1148.39 568.084 1148.93 568.463C1149.7 568.995 1151.56 570.608 1152.57 569.812C1153.65 568.962 1153.07 567.766 1152.63 566.735C1152.52 566.488 1152.45 566.219 1152.32 565.978C1152.02 565.457 1151.78 564.914 1151.47 564.398C1149.73 561.535 1147.36 559.11 1144.53 557.316C1141.7 555.522 1138.5 554.365 1135.24 553.619C1134.42 553.432 1133.21 553.021 1132.76 553.975C1132.33 554.836 1133.49 555.33 1134.03 555.934Z" fill="#C3955A"/>
<path d="M1148.33 579.44C1148.2 579.165 1148.06 578.902 1147.9 578.644C1147.7 578.321 1147.41 578.013 1147.15 577.745C1146.97 577.553 1146.72 577.437 1146.53 577.256C1146.34 577.081 1146.21 576.894 1145.99 576.735C1145.46 576.34 1144.92 575.962 1144.4 575.556C1143.96 575.21 1143.51 574.865 1143.05 574.53C1142.57 574.168 1142.22 574.025 1141.64 573.883C1139.55 573.384 1137.32 573.521 1135.27 574.119C1134.23 574.42 1133.06 574.739 1132.11 575.276C1129.79 576.609 1129.71 577.125 1132.04 578.414C1136.7 580.998 1140.22 584.552 1142.12 589.594C1144.41 595.639 1144.39 601.81 1143.11 608.053C1142.9 609.046 1142.21 610.385 1143.33 610.922C1144.48 611.465 1145.06 610.088 1145.68 609.271C1146.81 607.768 1147.75 606.062 1149.09 604.773C1157.65 596.55 1168.05 593.971 1179.6 595.079C1180.28 595.145 1181.08 595.496 1181.51 594.717C1181.94 593.944 1181.49 593.242 1181.04 592.583C1178.53 589.001 1174.91 587.575 1170.73 587.312C1168.66 587.186 1166.58 587.29 1164.35 587.29C1165.02 585.309 1166.33 583.9 1167.33 582.32C1170.29 577.679 1171.72 572.621 1171.6 567.124C1171.55 564.683 1171.21 564.404 1168.88 564.738C1168.27 564.826 1167.65 564.908 1167.03 564.99C1167.01 565.034 1166.98 565.073 1166.93 565.106C1165.15 566.115 1163.32 567.009 1161.51 567.958C1160.04 568.726 1158.54 569.505 1157.18 570.476C1156.61 570.888 1156.06 571.365 1155.62 571.919C1155.11 572.55 1154.76 573.285 1154.48 574.042C1153.86 575.704 1153.54 577.454 1152.97 579.133C1152.44 580.669 1151.98 582.287 1151.08 583.658C1150.99 583.79 1150.84 583.823 1150.7 583.757C1149.85 583.346 1149.62 582.512 1149.28 581.716C1148.96 580.954 1148.69 580.18 1148.33 579.44Z" fill="#C3955A"/>
<path d="M1126.86 559.763C1130.3 562.906 1133.75 566.027 1137.19 569.154C1137.72 569.637 1138.26 570.125 1138.79 570.613C1139.27 571.047 1139.78 571.392 1140.27 571.804C1140.52 572.204 1141.26 572.572 1141.68 572.818C1142.79 573.477 1143.8 574.398 1144.82 575.188C1145.65 575.83 1146.51 576.423 1147.33 577.086C1147.54 577.256 1147.75 577.432 1147.95 577.618C1148.09 577.75 1148.33 578.09 1148.5 578.151C1148.81 578.249 1148.74 577.745 1148.7 577.492C1147.6 573.757 1145.86 570.262 1143.51 567.141C1139.55 561.875 1134.36 558.72 1127.84 557.799C1127.14 557.7 1126.11 557.316 1125.74 558.166C1125.42 558.89 1126.37 559.318 1126.86 559.763Z" fill="#C3955A"/>
<path d="M1010.62 766.617C1013.13 767.681 1023.17 769.091 1026.98 769.091C1029.24 769.091 1034.83 768.158 1035.5 768.103C1036.7 768.005 1036.48 766.694 1035.94 765.887C1034.27 763.358 1032.34 760.977 1029.94 759.151C1021.04 752.37 1010.76 751.849 1000.2 753.067C997.428 753.385 997.005 754.45 998.596 756.677C1001.71 761.038 1005.58 764.488 1010.62 766.617Z" fill="#C3955A"/>
<path d="M927.836 749.759C928.034 750.401 928.752 750.346 929.295 750.324C932.055 750.198 934.743 750.78 937.458 751.103C945.615 752.069 953.207 754.515 960.125 759.025C961.672 760.034 962.764 761.537 964.393 762.42C974.969 768.136 985.935 772.64 997.998 774.214C1009.24 775.685 1020.13 774.779 1030.68 770.451C1031.43 770.144 1032.08 769.661 1032.76 769.212C1031.78 769.272 1030.81 769.387 1029.84 769.486C1027.85 769.689 1025.83 769.606 1023.83 769.535C1021.88 769.464 1019.89 769.777 1017.93 769.958C1016.09 770.128 1014.24 770.298 1012.39 770.193C1011.72 770.155 1011.06 770.084 1010.41 770.007C1008.77 769.826 1007.13 769.639 1005.49 769.458C1004 769.294 1002.53 769.436 1001.04 769.299C999.594 769.168 998.152 768.998 996.72 768.8C985.332 767.237 975.655 762.936 969.873 752.228C968.348 749.403 966.977 746.528 967.042 743.297C967.141 738.431 969.116 734.471 974.832 734.685C975.392 734.707 975.957 734.657 976.522 734.69C980.883 734.986 984.816 736.127 987.471 739.989C989.824 743.412 988.667 748.157 985.046 749.918C983.587 750.626 982.43 750.088 981.382 749.183C980.334 748.284 980.806 747.318 981.448 746.375C982.238 745.212 982.369 743.939 981.426 742.858C980.126 741.366 978.348 740.933 976.439 741.256C975.062 741.492 973.905 742.107 973.559 743.659C972.479 748.558 974.256 751.679 979.007 753.199C979.407 753.325 979.813 753.446 980.224 753.533C985.836 754.729 990.104 751.432 991.125 748.053C993.116 741.476 990.68 734.536 983.516 732.183C978.996 730.696 974.338 730.751 969.796 732.084C965.698 733.286 963.861 736.16 963.767 740.456C963.718 742.705 964.409 744.729 965.095 746.797C965.852 749.079 966.752 751.295 967.838 753.495C960.492 748.849 953.004 745.047 944.189 744.509C938.555 744.164 933.481 745.563 928.752 748.498C928.291 748.783 927.633 749.101 927.836 749.759Z" fill="#C3955A"/>
<path d="M1063.07 727.526C1061.2 727.071 1059.45 726.67 1057.72 726.215C1050.27 724.24 1042.73 723.066 1035.03 724.218C1029.28 725.079 1023.91 727.032 1020.19 731.805C1018.12 734.449 1016.53 737.455 1014.71 740.286C1013.87 741.586 1013.02 742.875 1011.68 743.753C1010.29 744.658 1009.61 744.186 1009.38 742.677C1009.35 742.469 1009.38 742.255 1009.34 742.046C1009.18 741.136 1009.62 740.329 1009.64 739.43C1009.65 739.161 1009.61 738.854 1009.39 738.711C1008.8 738.338 1008.1 739.364 1007.74 739.677C1007.19 740.143 1006.6 740.56 1006.01 740.977C1004.84 741.8 1003.51 742.398 1002.14 742.798C1000.08 743.401 999.095 742.644 998.832 740.527C998.579 738.508 999.134 736.583 1000.28 734.921C1000.85 734.098 1001.34 733.456 1002.15 732.847C1003.04 732.167 1004.03 731.602 1005.07 731.168C1005.25 731.097 1005.44 731.02 1005.56 730.872C1005.68 730.724 1005.71 730.483 1005.57 730.351C1005.47 730.263 1005.32 730.252 1005.19 730.252C1004.29 730.23 1003.4 730.197 1002.5 730.154C1001.17 730.088 999.83 730.121 998.497 730.022C997.548 729.951 996.681 729.578 996.325 728.601C995.974 727.641 996.605 726.977 997.23 726.407C1000.44 723.488 1004.19 721.437 1008.13 719.692C1017.78 715.419 1027.85 714.777 1038.08 716.631C1046.81 718.211 1054.85 721.717 1062.41 726.325C1062.69 726.495 1063.03 726.654 1063.07 727.526Z" fill="#C3955A"/>
<path d="M1113.81 753.66C1116.8 753.429 1119.69 754.17 1122.62 754.499C1124.05 754.658 1124.45 755.388 1123.82 756.666C1117.2 770.1 1107.06 776.88 1091.57 775.048C1088.98 774.741 1086.48 774.022 1083.99 773.222C1082.24 772.657 1081.95 771.801 1082.74 770.254C1086.21 763.441 1091.45 758.652 1098.69 756.035C1103.59 754.268 1108.67 753.786 1113.81 753.66Z" fill="#C3955A"/>
<path d="M1059.92 722.21C1059.99 722.413 1060.02 722.638 1060.05 722.89C1060.05 722.934 1060.05 722.978 1060.03 723.017C1059.98 723.088 1059.87 723.072 1059.79 723.044C1058.91 722.742 1053.77 718.513 1052.89 717.92C1052.28 717.509 1051.59 717.152 1050.97 716.752C1048.51 715.189 1045.97 713.724 1043.28 712.572C1041.7 711.897 1040.08 711.316 1038.42 710.899C1036.06 710.29 1033.73 709.988 1031.33 710.422C1029.27 710.8 1027.28 710.306 1025.28 709.922C1024.38 709.747 1023.73 709.275 1023.57 708.304C1023.35 706.971 1024.42 706.593 1025.4 706.104C1026.6 705.517 1027.92 705.144 1029.25 705.243C1029.75 705.281 1030.25 705.38 1030.75 705.484C1031.29 705.594 1033.47 706.39 1033.89 706.62C1035.01 707.262 1036.14 707.904 1037.27 708.545C1037.4 708.617 1037.53 708.694 1037.68 708.704C1037.82 708.715 1037.99 708.644 1038.04 708.507C1038.07 708.414 1038.04 708.304 1038.02 708.211C1037.81 707.574 1037.44 707.223 1036.99 706.785C1036.52 706.34 1036.2 705.682 1035.81 705.166C1035 704.129 1034.1 703.164 1033.12 702.297C1031.24 700.624 1029.07 699.302 1026.83 698.177C1025.56 697.541 1024.27 696.965 1022.97 696.4C1025.04 695.237 1030.56 696.104 1034.94 698.013C1036.38 698.644 1037.75 699.439 1038.98 700.427C1040.11 701.348 1041.39 702.462 1041.92 703.828C1042.44 705.155 1043.1 706.433 1043.89 707.624C1043.96 707.728 1044.06 707.849 1044.19 707.838C1044.25 707.832 1044.3 707.799 1044.35 707.755C1044.51 707.596 1044.54 707.355 1044.57 707.13C1044.72 705.627 1044.85 704.19 1045.25 702.731C1045.56 701.633 1046.22 700.613 1046.98 699.763C1048.25 698.348 1049.94 697.777 1051.82 698.024C1052.95 698.172 1054.06 698.545 1055.13 698.962C1056.06 699.329 1056.33 700.059 1055.69 701.003C1051.48 707.295 1051.72 711.694 1056.54 717.663C1057.27 718.568 1057.92 719.555 1058.69 720.427C1059.22 721.031 1059.7 721.503 1059.92 722.21Z" fill="#C3955A"/>
<path d="M1166.23 775.175C1163.75 775.196 1161.82 774.522 1159.97 773.644C1158.81 773.095 1157.87 773.211 1156.83 773.907C1154.82 775.229 1152.63 776.195 1150.32 776.864C1149.58 777.078 1148.81 777.243 1148.05 777.276C1147.51 777.298 1145.88 777.49 1145.69 776.754C1145.51 776.041 1146.79 775.328 1147.26 775.054C1148.68 774.215 1150.07 773.298 1151.35 772.256C1152.62 771.214 1154.05 770.364 1155.29 769.272C1155.91 768.723 1156.5 768.131 1157.01 767.473C1157.3 767.094 1157.61 766.463 1158.14 766.738C1158.36 766.853 1158.54 767.138 1158.75 767.286C1159.04 767.489 1159.36 767.659 1159.67 767.829C1160.92 768.531 1162.22 769.135 1163.57 769.634C1164.47 769.969 1165.32 770.243 1166.19 770.665C1167.08 771.099 1168 771.477 1168.95 771.795C1170.14 772.196 1171.37 772.503 1172.57 772.92C1172.72 772.975 1172.88 773.03 1173 773.145C1173.11 773.26 1173.17 773.452 1173.08 773.589C1173.04 773.671 1172.94 773.726 1172.85 773.77C1172.39 774.001 1171.87 774.039 1171.41 774.242C1170.82 774.5 1170.2 774.67 1169.57 774.791C1168.51 774.983 1167.31 775.169 1166.23 775.175Z" fill="#C3955A"/>
<path d="M1176.55 580.921C1180.7 581.206 1184.49 582.024 1187.35 585.178C1187.71 585.573 1188.36 585.979 1187.97 586.582C1187.61 587.136 1186.93 586.878 1186.41 586.692C1183.1 585.523 1179.76 584.454 1176.33 583.713C1174.75 583.373 1173.15 583.181 1171.57 582.874C1171.12 582.786 1170.4 582.852 1170.39 582.237C1170.37 581.491 1171.16 581.519 1171.66 581.448C1173.33 581.228 1175.01 581.08 1176.55 580.921Z" fill="#C3955A"/>
<path d="M1114.09 640.128C1114.03 637.912 1115.55 636.195 1117.58 636.184C1119.79 636.167 1121.61 637.873 1121.6 639.936C1121.59 641.993 1119.97 643.551 1117.77 643.617C1115.71 643.677 1114.14 642.185 1114.09 640.128Z" fill="#C3955A"/>
<path d="M914.446 751.279C914.495 749.282 916.305 747.576 918.302 747.642C920.463 747.713 922.038 749.309 922.005 751.405C921.972 753.506 920.354 755.015 918.159 754.982C915.976 754.949 914.391 753.369 914.446 751.279Z" fill="#C3955A"/>
<path d="M1201.09 637.144C1203.23 637.182 1204.55 638.597 1204.52 640.814C1204.5 642.871 1202.76 644.555 1200.73 644.5C1198.94 644.451 1197 642.393 1197 640.556C1197.01 638.723 1198.94 637.105 1201.09 637.144Z" fill="#C3955A"/>
<path d="M1166.02 599.572C1168.1 599.622 1169.86 601.355 1169.78 603.292C1169.69 605.305 1167.94 606.813 1165.78 606.731C1163.77 606.654 1162.22 605.02 1162.29 603.039C1162.35 601.075 1164.03 599.523 1166.02 599.572Z" fill="#C3955A"/>
<path d="M1195.13 629.431C1195.1 627.209 1196.48 625.849 1198.82 625.805C1200.98 625.761 1202.35 627.253 1202.32 629.634C1202.31 631.499 1200.77 632.914 1198.7 632.947C1196.57 632.98 1195.15 631.581 1195.13 629.431Z" fill="#C3955A"/>
<path d="M1174.86 603.955C1174.83 601.585 1176.06 600.329 1178.47 600.274C1180.49 600.225 1182.03 601.734 1182.09 603.829C1182.14 605.667 1180.46 607.444 1178.7 607.439C1176.22 607.428 1174.88 606.21 1174.86 603.955Z" fill="#C3955A"/>
<path d="M1155.68 601.487C1157.68 601.443 1159.24 602.968 1159.31 605.025C1159.38 606.972 1157.94 608.448 1155.91 608.519C1153.57 608.602 1152.08 607.29 1152.05 605.102C1152.01 602.737 1153.22 601.536 1155.68 601.487Z" fill="#C3955A"/>
<path d="M1194.4 622.02C1192.29 621.992 1190.84 620.5 1190.9 618.421C1190.97 616.397 1192.55 614.899 1194.59 614.921C1196.74 614.943 1198.18 616.364 1198.19 618.47C1198.21 620.61 1196.67 622.047 1194.4 622.02Z" fill="#C3955A"/>
<path d="M1187.05 605.831C1189.29 605.826 1190.62 607.132 1190.59 609.304C1190.56 611.361 1189.22 612.71 1187.17 612.743C1184.92 612.776 1183.33 611.312 1183.36 609.216C1183.38 607.142 1184.8 605.837 1187.05 605.831Z" fill="#C3955A"/>
<path d="M1172.6 573.872C1175.21 569.955 1182.47 568.221 1185.83 571.474C1186.17 571.809 1186.73 572.083 1186.58 572.626C1186.41 573.252 1185.77 573.06 1185.32 573.049C1181.21 572.939 1177.09 572.84 1172.6 573.872Z" fill="#C3955A"/>
<path d="M1193.09 589.544C1192.13 589.544 1191.35 590.325 1191.35 591.289C1191.35 592.252 1192.13 593.033 1193.09 593.033C1194.05 593.033 1194.84 592.252 1194.84 591.289C1194.84 590.325 1194.05 589.544 1193.09 589.544Z" fill="#C3955A"/>
<path d="M1191.4 573.455C1190.47 573.455 1189.71 574.211 1189.71 575.144C1189.71 576.078 1190.47 576.834 1191.4 576.834C1192.33 576.834 1193.09 576.078 1193.09 575.144C1193.09 574.211 1192.33 573.455 1191.4 573.455Z" fill="#C3955A"/>
<path d="M1118.61 556.592C1117.67 556.592 1116.92 557.348 1116.92 558.281C1116.92 559.215 1117.67 559.971 1118.61 559.971C1119.54 559.971 1120.3 559.215 1120.3 558.281C1120.3 557.348 1119.54 556.592 1118.61 556.592Z" fill="#C3955A"/>
<path d="M1125.38 550.645C1124.45 550.645 1123.69 551.402 1123.69 552.335C1123.69 553.268 1124.45 554.025 1125.38 554.025C1126.31 554.025 1127.07 553.268 1127.07 552.335C1127.07 551.402 1126.31 550.645 1125.38 550.645Z" fill="#C3955A"/>
</svg>
